<?xml version="1.0" encoding="utf-8"?>
<!-- Generator: Adobe Illustrator 27.8.1, SVG Export Plug-In . SVG Version: 6.00 Build 0)  -->
<svg version="1.1" id="Layer_1" xmlns="http://www.w3.org/2000/svg" xmlns:xlink="http://www.w3.org/1999/xlink" x="0px" y="0px"
	 viewBox="0 0 360 360" style="enable-background:new 0 0 360 360;" xml:space="preserve">
<style type="text/css">
	.st0{fill:#E22925;}
</style>
<path class="st0" d="M179.9,105.1c7.2,0,13.2-5.4,14.1-12.4c-4.5-1.1-9.1-1.8-14.1-1.8c-4.8,0-9.6,0.7-14.1,1.8
	C166.7,99.7,172.6,105.1,179.9,105.1z M132.8,125.8c7,0.9,12.4,6.8,12.4,14.1c0,7.2-5.4,13.2-12.4,14.1c-1.2-4.5-1.8-9.2-1.8-14.1
	C131,135,131.6,130.2,132.8,125.8z M157.9,139.8c0,2.5-2,4.5-4.5,4.5c-2.5,0-4.5-2-4.5-4.5c0-2.5,2-4.5,4.5-4.5
	C155.9,135.4,157.9,137.3,157.9,139.8z M214.8,139.8c0,7.2,5.4,13.2,12.4,14.1c1.2-4.5,1.8-9.2,1.8-14.1c0-4.8-0.6-9.6-1.8-14.1
	C220.2,126.6,214.8,132.6,214.8,139.8z M211,139.8c0,2.5-2,4.5-4.5,4.5c-2.5,0-4.5-2-4.5-4.5c0-2.5,2-4.5,4.5-4.5
	C209,135.4,211,137.3,211,139.8z M179.9,174.7c-7.2,0-13.2,5.4-14.1,12.4c4.5,1.2,9.2,1.8,14.1,1.8c4.8,0,9.6-0.6,14.1-1.8
	C193.1,180.1,187.1,174.7,179.9,174.7z M184.4,166.5c0,2.5-2,4.5-4.5,4.5c-2.5,0-4.5-2-4.5-4.5c0-2.5,2-4.5,4.5-4.5
	C182.4,162.1,184.4,164.1,184.4,166.5z M184.4,113.4c0,2.5-2,4.5-4.5,4.5c-2.5,0-4.5-2-4.5-4.5c0-2.5,2-4.5,4.5-4.5
	C182.4,108.9,184.4,110.9,184.4,113.4z M204.6,164.5c-5.1,5.1-5.5,13.2-1.2,18.7c8.2-4.8,15.1-11.7,19.8-19.8
	C217.7,159,209.7,159.4,204.6,164.5z M203.2,158.6c0,2.5-2,4.5-4.5,4.5c-2.5,0-4.5-2-4.5-4.5s2-4.5,4.5-4.5
	C201.2,154.2,203.2,156.2,203.2,158.6z M155.4,115.3c5.1-5.1,5.5-13.2,1.2-18.7c-8.2,4.8-15.1,11.7-19.8,19.8
	C142.2,120.8,150.2,120.3,155.4,115.3z M165.6,121.1c0,2.5-2,4.5-4.5,4.5c-2.5,0-4.5-2-4.5-4.5c0-2.5,2-4.5,4.5-4.5
	C163.6,116.6,165.6,118.6,165.6,121.1z M204.5,115.2c5.1,5.1,13.2,5.5,18.7,1.2c-4.8-8.2-11.7-15.1-19.8-19.8
	C199,102,199.4,110.1,204.5,115.2z M203.2,121.1c0,2.5-2,4.5-4.5,4.5c-2.5,0-4.5-2-4.5-4.5c0-2.5,2-4.5,4.5-4.5
	C201.2,116.6,203.2,118.6,203.2,121.1z M155.3,164.4c-5.1-5.1-13.2-5.5-18.7-1.2c4.8,8.2,11.7,15.1,19.8,19.9
	C160.8,177.6,160.4,169.5,155.3,164.4z M165.6,158.6c0,2.5-2,4.5-4.5,4.5c-2.5,0-4.5-2-4.5-4.5s2-4.5,4.5-4.5
	C163.6,154.2,165.6,156.2,165.6,158.6z"/>
<g>
	<path d="M183.1,203.9l0.4,58.5h-7l0.4-58.5H183.1z M176.4,281.9l-0.4,37.8l0,0c0,2.3,2,3.9,3.9,3.9s3.9-2,3.9-3.9l-0.4-37.8
		C183.4,281.9,176.4,281.9,176.4,281.9z M99.2,335.8L99.2,335.8c-0.4,2,0.8,4.3,2.7,4.7c2,0.4,4.3-0.8,4.7-2.7l31.2-133.8h-6.2
		L99.2,335.8z M197.1,77.5l-13.7-55.4c-0.4-0.8-1.2-1.6-2-1.6c-0.4-0.8-0.8-1.2-1.6-1.2c-0.8,0-1.2,0.4-1.6,1.2
		c-0.8,0-1.6,0.4-2,1.6l-13.7,55.4h4.7L178,32.6l-0.4,44.9h4.7l-0.4-44.9l10.5,44.9H197.1z M260.7,335.8l-32.4-131.9h-6.2
		l31.2,133.8l0,0c0.4,2,2.7,3.5,4.7,2.7C259.9,339.7,261.5,338.1,260.7,335.8z"/>
	<path d="M240.5,262l-60.1-26.1l-58.5,24.6l-4.3,5.9v11.3h124.8v-10.9L240.5,262z M180.8,240.6l51.9,26.1H127.3L180.8,240.6z"/>
	<path d="M272.7,205.8H87.3c-0.4,0-1.2-0.4-1.6-0.8c-0.4-0.4-0.4-0.8-0.4-1.6L97.1,77.1c0-1.2,0.8-2,2-2H261c1.2,0,2,0.8,2,2
		l11.7,126.4c0,0.4,0,1.2-0.4,1.6C273.4,205.5,273,205.8,272.7,205.8z M89.3,201.9h181L259,79.4H100.6L89.3,201.9z"/>
	<path d="M286.9,214H73.1c-1.2,0-2.3-1.2-2.3-2.3v-5.1c0-1.2,1.2-2.3,2.3-2.3h213.8c1.2,0,2.3,1.2,2.3,2.3v5.1
		C289.2,213.3,288.1,214,286.9,214z"/>
	<path d="M202.4,56.4h-44.5c-1.2,0-2.3-1.2-2.3-2.3V51c0-1.2,1.2-2.3,2.3-2.3H202c1.2,0,2.3,1.2,2.3,2.3v3.1
		C204.7,55.3,203.6,56.4,202.4,56.4z"/>
</g>
</svg>
