<?xml version="1.0" encoding="utf-8"?>
<!-- Generator: Adobe Illustrator 28.3.0, SVG Export Plug-In . SVG Version: 6.00 Build 0)  -->
<svg version="1.1" id="Layer_1" xmlns="http://www.w3.org/2000/svg" xmlns:xlink="http://www.w3.org/1999/xlink" x="0px" y="0px"
	 viewBox="0 0 396 396" style="enable-background:new 0 0 396 396;" xml:space="preserve">
<g>
	<path d="M343.7,52.52c2.34,3.12,4.17,6.53,5.83,9.94c3.83,7.89,8.72,15.03,14.33,21.72c1.93,2.3,3.67,4.73,5.16,7.32
		c2.19,3.81,2.54,7.93,1.72,12.2c-0.23,1.21-0.61,2.41-0.65,3.63c-0.17,5.51-3.95,8.37-8.02,10.94c-2.7,1.71-5.57,3.15-8.35,4.73
		c-1.23,0.69-2.5,0.79-3.82,0.35c-5.6-1.91-10.8-4.29-13.34-10.25c-0.78-1.84-2.07-3.47-3.07-5.22c-1.45-2.53-3.92-3.83-6.39-4.89
		c-2.52-1.07-4.85-2.4-7.16-3.82c-1.37-0.84-2.85-1.55-4.4-0.43c-1.69,1.23-1.54,2.81-1.08,4.71c1.16,4.81,2.89,9.27,5.43,13.6
		c2.36,4.02,4.27,8.5,3.71,13.52c-0.17,1.48,0.11,3-0.02,4.48c-0.64,7.33,1.86,13.54,6.21,19.33c3.58,4.76,7.24,9.52,9.9,14.89
		c1.86,3.77,3.49,7.67,5.05,11.57c0.69,1.73,0.44,3.67,0.27,5.5c-0.4,4.21-0.41,8.43-0.46,12.65c-0.06,4.7-1.34,8.83-5.12,11.92
		c-0.14,0.11-0.25,0.25-0.38,0.36c-4.83,3.78-3.24,7.78,1.6,10.81c0.97,0.61,1.92,1.21,2.78,1.99c2.33,2.11,4.6,4.3,7.66,5.43
		c1.95,0.72,2.16,2.56,1.84,4.22c-0.7,3.57,0.21,6.98,0.65,10.44c0.31,2.42-0.2,4.34-2.33,5.68c-2.51,1.57-3.54,4.31-4.93,6.67
		c-2.55,4.3-5.09,8.68-6.9,13.31c-1.7,4.37-3.42,8.81-4.29,13.48c-0.26,1.38-0.65,2.73-0.97,4.09c-0.81,3.46-1.86,4.35-5.41,4.57
		c-0.88,0.05-1.77,0.11-2.64,0.03c-6.08-0.57-9.52,3.11-11.87,7.88c-5.38,10.92-6.61,22.64-6.01,34.64
		c0.07,1.43,0.52,2.75,1.11,4.04c3.15,6.79,8.15,12.48,11.44,19.19c0.25,0.51,0.79,1.06,1.31,1.23c3.77,1.24,7.08,3.52,10.9,4.64
		c0.42,0.12,0.86,0.29,1.28,0.28c3.49-0.08,6.93,0.42,10.38,0.82c1.06,0.12,2.07-0.33,2.98-0.91c3.25-2.1,6.51-4.17,9.74-6.29
		c5.86-3.84,12.19-4.71,18.92-3.01c2.04,0.52,4.06,1.18,6.12,1.57c1.57,0.3,2.33,1.02,2.33,2.62c-0.02,3.43-0.01,6.86,0.01,10.29
		c0.01,1.31-0.64,1.95-1.9,2.01c-0.88,0.04-1.76,0.08-2.64,0.08c-67.73,0-135.45,0.03-203.18-0.03c-8.7-0.01-17.39-0.53-26.09-0.79
		c-1.01-0.03-1.9-0.29-2.65-0.99c-0.91-0.85-2.01-1.41-3.07-2.03c-1.23-0.72-2.17-0.97-2.25,0.96c-0.09,2.17-1.27,1.73-2.44,0.93
		c-1.38-0.95-2.72-1.93-4.37-2.38c-1.32-0.36-2.18-0.03-1.95,1.48c0.28,1.8-0.61,2.17-2.11,1.98c-3.13-0.4-6.32-0.33-9.38-1.26
		c-2.97-0.91-5.76,0.06-8.44,1.17c-1.67,0.69-3.33,0.95-5.12,1.01c-6.07,0.19-12.12-0.39-18.18-0.37c-0.34,0-0.71,0-1-0.49
		c1.93-0.69,3.99,0.18,5.94-0.42c-2.07-2.95-7.45-3.96-10.03-1.51c-2.57,2.45-5.38,2.83-8.66,2.8c-12.13-0.1-24.26-0.04-36.39-0.04
		c-0.62,0-1.24,0.05-1.85-0.02c-0.98-0.12-2.43,0.34-2.69-0.98c-0.25-1.28,1.22-1.28,2.04-1.58c1.48-0.54,1.45-1.25,0.56-2.33
		c-0.64-0.78-2.09-1.4-1.56-2.49c0.56-1.16,2.05-0.49,3.14-0.57c2.01-0.14,4.06,0.31,6.03-0.32c2.82-0.9,3.11-1.88,1.17-3.97
		c-1.03-1.12-0.72-1.67,0.63-1.91c0.6-0.11,1.23-0.05,1.84-0.14c2.04-0.3,2.65-1.09,1.95-3.01c-0.59-1.63-0.03-2.12,1.46-2.15
		c0.44-0.01,0.88,0.03,1.32,0.03c3.87-0.02,4.3-0.69,2.46-4.02c-0.76-1.38-0.44-1.97,1.09-1.95c2.81,0.04,5.58,0.73,8.41,0.59
		c1.45-0.08,2.68-0.09,2.29-2.16c-0.25-1.33,0.86-1.45,1.73-1.24c7.9,1.97,16.27,1.98,23.78,5.64c1.17,0.57,2.48,0.9,3.76,1.19
		c1.75,0.39,3.5,0.8,3.97-1.9c0.23-1.33,1.46-0.95,2.38-0.52c1.67,0.79,3.21,1.82,5.02,2.32c1.82,0.51,3.58,0.89,5.32-0.27
		c1.03-0.69,2.21-0.33,3.34-0.25c5.85,0.41,10.67,3.35,15.42,6.39c4.77,3.04,9.55,5.96,15.36,6.56c2.22,0.23,4.38,0.22,6.53-0.38
		c1.31-0.36,1.3-1,0.45-1.85c-1.21-1.21-2.7-1.99-4.29-2.52c-2.41-0.81-3.58-2.26-3.32-4.92c0.37-3.86-0.8-7.51-2.14-11.05
		c-5.26-13.91-11.3-27.45-19.17-40.11c-1.11-1.79-2.31-3.53-3.55-5.24c-1.02-1.41-1.45-2.9-1.53-4.65
		c-0.13-2.58,0.82-4.21,3.05-5.59c6.04-3.75,9.46-9.27,10.26-16.37c0.3-2.65-0.37-4.93-2.02-7.13c-3.85-5.12-8.09-9.91-12.22-14.8
		c-3.77-4.45-5.15-9.92-6.3-15.46c-0.28-1.38-0.59-2.75-0.9-4.12c-0.17-0.77-0.28-1.62-1.31-1.73c-0.88-0.09-1.13,0.63-1.55,1.2
		c-2.47,3.4-3.72,7.35-5.19,11.21c-1.61,4.21-2.26,8.67-3.29,13.02c-1.87,7.91-4.86,15.16-10.3,21.37
		c-2.71,3.09-3.96,7.24-6.72,10.38c-4.94,5.62-10.38,10.75-15.88,15.8c-0.45,0.41-0.99,0.82-1.55,0.98
		c-6.59,1.85-11.51,6.68-17.48,9.65c-0.08,0.04-0.15,0.1-0.23,0.13c-0.92,0.39-2.06,1.66-2.76,0.59c-0.8-1.23,0.87-1.84,1.67-2.53
		c4.48-3.88,9.57-6.83,14.78-9.6c0.69-0.37,1.34-0.83,1.99-1.28c0.09-0.06,0.07-0.3,0.14-0.67c-3.15,0.86-5.81,2.58-8.69,3.76
		c-2.19,0.89-4.09,2.14-5.86,3.85c-3.09,2.99-7.14,4.4-11.27,5.46c-0.55,0.14-1.32,0.34-1.61-0.42c-0.28-0.75,0.39-1.07,0.91-1.4
		c1.56-0.99,3.14-1.94,4.67-2.97c0.46-0.31,1.18-0.72,0.76-1.46c-0.29-0.52-0.94-0.39-1.45-0.32c-2.53,0.34-5.05,0.68-7.57,1.07
		c-1.49,0.23-2.98,0.29-4.47,0.22c-0.59-0.03-1.36,0.01-1.35-0.87c0.01-0.66,0.65-0.72,1.15-0.87c3.87-1.19,7.6-2.74,11.26-4.46
		c2.21-1.04,4.38-2.15,6.39-3.65c-2.68,1.16-5.35,2.33-8.04,3.47c-4.57,1.93-9.28,3.26-14.28,3.38c-1.62,0.04-3.16-0.18-4.48-1.22
		c-0.4-0.32-1-0.54-0.83-1.19c0.15-0.55,0.66-0.8,1.18-0.93c1.01-0.26,2.03-0.49,3.15-0.76c-0.21-1.4-1.33-1.66-2.18-2.15
		c-0.53-0.31-1.14-0.46-1.71-0.69c-0.67-0.27-1.45-0.63-1.25-1.45c0.23-0.94,1.1-0.65,1.78-0.51c3.38,0.67,6.8,0.81,10.22,1.01
		c2.91,0.17,5.75-0.16,8.44-1.55c-1.92,0.2-3.87,0.27-5.75,0.64c-4.24,0.83-7.96-0.69-11.7-2.28c-0.49-0.21-1.01-0.48-0.9-1.12
		c0.11-0.65,0.72-0.71,1.23-0.79c2.34-0.34,4.62-1.06,7.35-1.02c-1.72-0.76-3.16-1.36-4.56-2.03c-0.67-0.32-1.15-0.87-1.02-1.68
		c0.11-0.68,0.65-1,1.26-1.21c1.68-0.59,3.43-0.76,5.2-0.75c6.07,0.02,12.12-0.27,18.14-1.17c1.82-0.27,3.51-1.11,5.39-1.17
		c-4.2-0.89-8.51-0.32-12.69-1.18c-1.06-0.22-2.81-0.02-2.66-1.4c0.14-1.33,1.87-0.92,2.94-0.88c6.15,0.27,12.29,0.64,18.43,0.94
		c1.66,0.08,3.33,0.01,5.38,0.01c-1.94-0.85-3.68-0.65-5.32-0.99c-4.59-0.94-8.76-3.13-13.24-4.42c-0.33-0.1-0.64-0.29-0.93-0.48
		c-0.44-0.3-0.9-0.66-0.58-1.28c0.24-0.46,0.72-0.48,1.15-0.37c0.94,0.22,1.88,0.44,2.8,0.74c1.84,0.61,3.69,1.16,5.79,1.01
		c-1.4-0.83-3.24-0.34-4.7-2.13c8.96,0.05,17.53,0.65,26.01-0.97c-6.39-0.99-12.94,0.14-19.3-1.55c8.67-2.47,17.73-0.78,26.45-2.95
		c-1.2-0.56-1.53-1.23-0.22-2.19c4.1-3.02,4.23-3.12,5.99-7.72c2.39-6.24,4.55-12.56,7.01-18.76c1.55-3.91,3.31-7.77,5.27-11.5
		c2.8-5.34,3.8-11.31,6.11-16.83c2.33-5.57,5.48-10.59,8.91-15.49c2.87-4.1,5.73-8.18,9.04-11.95c1.83-2.09,3.96-3.69,6.33-5.08
		c4.72-2.77,10.05-4.27,14.81-6.85c10.7-5.79,22.36-6.99,34.11-7.9c6.83-0.53,13.7-0.65,20.4-2.26c8.09-1.94,14.52-6.5,19.63-12.98
		c0.98-1.24,1.93-2.51,2.82-3.81c0.74-1.09,1.14-2.1,0.71-3.64c-0.54-1.93,0.74-3.71,1.9-5.26c0.78-1.05,1.28-1.83,0.61-3.28
		c-0.5-1.08-1.17-2.57,0.29-3.81c0.55-0.47,0.1-1.27-0.37-1.88c-1.33-1.76-1.56-4.74-0.14-6.45c1.03-1.24,1.2-2.72,1.03-3.86
		c-0.24-1.58-0.08-3.01,0.37-4.38c1.14-3.52,0.74-7.35,2.33-10.76c0.24-0.51,0.11-1.03,0.02-1.55c-0.4-2.44,0.26-4.69,1.21-6.9
		c1.22-2.84,2.49-5.67,3.52-8.59c0.8-2.27,1.29-4.63,2.05-6.93c0.99-2.99,2.73-5.52,4.32-8.07c4.41-7.07,10.3-13.02,15.52-19.49
		c1.93-2.39,4.2-5.02,7.85-5.23c0.7-0.04,1.28-0.55,1.8-1.04c3.75-3.62,8.45-5.64,13.07-7.8c0.93-0.44,1.99-0.99,3.03-0.43
		c1.34,0.72,1.65-0.95,2.75-0.99c3.94-0.14,7.84-1.14,11.81-0.71c0.95,0.1,1.7-0.28,2.54-0.46c2.04-0.43,3,0.67,2.37,2.66
		c-0.62,1.92-1.3,3.83-1.94,5.74c-0.26,0.76-0.49,1.62-0.03,2.31c1.35,2.03,1.46,4.54,2.6,6.6c1.95,3.51,2.53,7.26,2.51,11.18
		c0,0.34,0.1,0.68,0.47,1.01c0.39-3.18,0.69-6.36-0.09-9.53c-0.46-1.87-1.19-3.68-1.76-5.52c-0.23-0.75-0.46-1.54-0.48-2.31
		c-0.03-1.08-0.59-2.47,0.69-3.11c1.12-0.56,1.6,0.74,2.31,1.32c2.77,2.25,4.55,1.95,6.47-1.11c0.37-0.59,0.7-1.22,0.98-1.87
		c1.05-2.41,0.7-3.11-1.81-3.71c-3.7-0.88-4.83-0.39-7.05,3.09c-0.44,0.69-0.86,1.48-1.82,1.06c-0.8-0.35-0.64-1.16-0.51-1.86
		c0.25-1.47,0.69-2.89,0.77-4.41c0.07-1.32,1.16-1.69,2.27-1.75c5.67-0.34,11.3-1.44,17.01,0.17c2.38,0.67,4.86-0.18,7.05-1.49
		c2.69-1.61,5.63-2.45,8.75-2.62c0.68-0.04,1.5-0.25,1.94,0.46c0.48,0.79-0.19,1.34-0.7,1.78c-1.11,0.94-1.29,1.91-0.61,3.24
		c0.94,1.87-0.21,3.59-0.69,5.33c-0.6,2.2-0.02,2.99,2.33,2.81c1.68-0.13,3.22-0.81,4.73-1.56c2.32-1.15,2.95-0.73,2.95,1.91
		c0,1.32,0.01,2.67-0.69,3.85c-1.29,2.2-2.5,4.37-2.76,7.03C346.91,50.84,344.84,51.36,343.7,52.52z M295.57,357.97
		c-2.4-1.38-2.24-3.31-1.84-5.45c0.29-1.54,0.06-3.17,0.28-4.73c0.5-3.49-0.85-5.93-3.9-7.57c-1.48-0.8-2.08-2.14-1.91-3.75
		c0.32-3.05,0.79-6.06,1.82-9.01c0.85-2.44,1.8-4.87,2.47-7.35c1.24-4.59,1.22-9.38,1.45-14.11c0.06-1.3,0.01-2.67-0.35-3.91
		c-1.88-6.44-1.42-12.89,0.39-19.16c1.79-6.17,5.22-11.92,4.38-18.7c-0.03-0.25,0.1-0.52,0.12-0.78c0.3-3.14,0.87-6.22,0.29-9.43
		c-0.83-4.65-2.04-9.27-1.9-14.07c0.07-2.28-0.15-4.57-0.37-6.84c-0.27-2.8-0.97-3.27-3.72-3.05c-2.33,0.18-4.43,0.93-6.5,1.97
		c-5.02,2.53-9.78,5.54-14.98,7.72c-7.17,3.01-14.56,5.15-22.34,5.83c-8.51,0.75-17.04,0.6-25.56,0.61c-1.79,0-3.47,0.42-5.2,0.75
		c-0.85,0.16-1.15,0.5-1.23,1.36c-0.35,3.96-1.79,7.69-2.55,11.56c-1.6,8.15-6.53,13.73-13.61,17.45
		c-6.67,3.51-9.74,9.32-11.49,16.2c-0.37,1.48-0.16,2.93,0.83,3.97c4.08,4.26,8.39,8.32,13.82,10.82c3.99,1.83,8.13,3.34,12.19,5.01
		c4.39,1.81,8.76,3.64,12.67,6.42c1.45,1.03,2.35,2.16,2.57,4.02c0.39,3.4,1.15,6.75,2.63,9.87c0.94,1.98,1.98,3.92,3.07,5.83
		c2.51,4.39,2.26,9.33,2.84,14.09c0.45,3.73,0.96,4.37,4.68,4.83c0.7,0.09,1.4,0.1,2.11,0.08c11.42-0.24,22.85-0.43,34.27-0.77
		c2.65-0.08,5.23-0.1,7.85,0.46C290.95,358.61,293.16,358.7,295.57,357.97z M170.21,291.54c0-1.05,0.02-2.11-0.01-3.16
		c-0.02-0.52-0.12-1.05-0.22-1.57c-0.52-2.91-0.9-3.16-3.75-2.72c-1.39,0.21-2.79,0.35-4.19,0.48c-0.99,0.09-2.04,0.26-2.63,1.05
		c-1.82,2.41-4.38,3.93-6.59,5.87c-1.26,1.1-2.49,2.17-4.03,2.91c-3.03,1.44-3.66,3.01-2.72,6.16c1.89,6.38,4.94,12.38,6.22,18.96
		c0.19,0.98,0.81,1.76,1.55,2.4c1.01,0.89,1.68,2.01,2.37,3.13c2.35,3.82,4.74,7.6,7.15,11.38c2.99,4.69,6.26,9.02,11.74,11.22
		c2.88,1.16,5.1,3.44,6.68,6.17c1.07,1.84,2.49,3.4,3.7,5.12c1.3,1.85,2.59,3.6,5.14,1.68c0.31-0.23,0.85-0.15,1.29-0.19
		c7.96-0.7,15.93-1.35,23.88-2.14c1.94-0.19,4.51-0.05,5.32-2.13c0.77-1.99-0.89-3.8-2.16-5.37c-1.51-1.86-2.74-3.89-3.68-6.06
		c-1.05-2.42-0.31-4.39,2.05-5.29c1.82-0.7,2.66-2.21,3.67-3.63c0.32-0.45,0.55-1.14,0.05-1.42c-1.25-0.71-1.95-2.37-3.74-2.14
		c-2.44,0.31-4.1-0.98-5.73-2.62c-3.69-3.71-7.71-6.95-13.03-8.09c-0.75-0.16-1.46-0.61-2.14-1c-2.82-1.64-5.81-2.91-8.77-4.26
		c-4.48-2.05-9.09-3.72-13.85-5.04c-4.85-1.35-6.21-3.99-5.12-8.8C169.47,298.86,170.5,295.29,170.21,291.54z M145.1,189.08
		c-8.57-0.12-16.56,2.11-24.31,5.4c-0.56,0.24-1.63,0.34-1.33,1.26c0.25,0.76,1.07,1.14,1.97,0.94c0.69-0.15,1.37-0.32,2.04-0.52
		c1.85-0.55,3.67-1.27,5.55-1.66c4.39-0.91,8.86-1.74,13.29-0.43c4.47,1.32,8.79,3.12,12.85,5.43c5.88,3.36,11.72,6.68,18.16,8.97
		c9.43,3.36,18.7,7.19,27.61,11.8c4.56,2.36,8.84,5.1,11.5,9.75c0.6,1.05,1.33,2.12,2.61,2.5c0.94,0.27,2.02,1.41,2.85,0.27
		c0.77-1.06,1.71-2.18,1.18-3.83c-2.2-6.74-6.36-12.12-11.61-16.67c-2.45-2.12-5.33-3.63-8.54-4.56c-5.14-1.49-10.19-3.3-15.3-4.92
		c-7.74-2.45-14.64-6.89-22.29-9.5C156.03,191.51,150.99,188.46,145.1,189.08z M160.42,215.79c0.05,0.57-0.15,0.74-0.41,0.81
		c-0.51,0.14-1.02,0.33-1.53,0.35c-9.18,0.46-18.25,0.27-26.94-3.38c-5.19-2.18-10.22-4.66-15.31-7.03
		c-1.31-0.61-2.34-1.24-3.19,0.57c-1.18,2.5-1.14,3.27,0.84,4.3c3.04,1.57,6.26,2.82,9.21,4.54c8.47,4.94,17.54,6.91,27.29,6.39
		c8.5-0.45,16.33,1.7,23.25,6.79c2.12,1.56,4.31,3.06,6.3,4.78c1.82,1.58,3.58,0.71,5.01-0.15c1.43-0.86,1.57-2.68,1.04-4.3
		c-0.27-0.82-0.78-1.56-1.24-2.31c-4.02-6.65-10.25-10.45-17.26-13.2c-5.32-2.09-10.67-4.1-15.5-7.22
		c-3.78-2.45-7.74-4.54-11.93-6.14c-4.11-1.57-8.39-1.72-12.67-0.66c-0.58,0.14-1.33,0.4-1.38,1.07c-0.07,0.92,0.83,1,1.48,1.2
		c0.58,0.18,1.18,0.38,1.79,0.43c2.77,0.22,5.3,1.13,7.74,2.41c3.35,1.75,6.65,3.63,9.68,5.87c3.09,2.28,6.59,3.22,10.22,3.94
		C158.13,215.09,159.45,215.1,160.42,215.79z M313.06,187.26c-0.69-1.4-0.6-3.23-1.84-4.09c-4.97-3.47-9.17-7.78-16.61-6.53
		c-5.87,0.98-9.92,3.32-13.24,7.78c-0.26,0.35-0.5,0.72-0.76,1.08c-0.34,0.46-0.47,1.28-1.31,0.95c-0.68-0.27-0.73-0.98-0.69-1.58
		c0.12-1.66,0.29-3.32,0.49-4.97c0.63-5.11,2.55-6.96,7.66-7.2c3.6-0.17,7.17-0.55,10.76-0.84c2.33-0.19,5.42-1.05,6.6,2.5
		c0.1,0.3,0.7,0.48,1.11,0.63c1.41,0.5,2.85,0.89,4.24,1.43c3.1,1.22,6.41,1.83,9.33,3.53c5.96,3.46,10.91,7.95,14.42,13.94
		c0.63,1.07,1.4,2.02,2.34,2.83c0.62,0.53,1.32,0.81,1.56-0.29c0.41-1.93,1.27-3.78,0.34-5.89c-2.72-6.17-6.67-11.42-12.21-15.16
		c-7.87-5.31-16.95-6.94-26.27-7.41c-0.96-0.05-2-0.1-2.8,0.51c-1.26,0.96-2.72,1.18-4.21,1.34c-3.4,0.37-6.77,1.09-10.15,1.45
		c-3.32,0.36-4.8,2.1-5.57,4.98c-0.39,1.45-0.65,2.91-0.65,4.42c0.02,5.01-0.04,10.02,0.03,15.03c0.03,2.32-0.19,4.53-1.16,6.68
		c-0.72,1.6-1.25,3.3-1.43,5.05c-0.11,1.03-0.78,2.55,0.64,2.99c1.16,0.36,1.64-1.05,2.23-1.89c2.35-3.38,3.04-7.21,3.17-11.23
		c0.24-7.22,5.39-12.89,12.47-13.8c1.48-0.19,2.98-0.21,4.47-0.31c0.78-0.05,1.63,0.09,2.29-0.44c3.02-2.44,5.84-1.44,8.73,0.32
		C309.13,184.32,310.68,186.32,313.06,187.26z M224.94,232.81c1.03-1.26,2.04-1.75,3.52-1.62c1.35,0.12,1.93-1.04,2.27-2.19
		c0.83-2.72,0.12-5.25-1.19-7.61c-2.12-3.85-4.49-7.56-6.52-11.46c-2.93-5.61-7.43-9.5-12.87-12.46c-1.31-0.71-2.65-1.38-3.95-2.12
		c-6.93-3.93-14.18-6.89-22.12-8.18c-5.2-0.85-10.23-2.5-15.3-3.96c-4.87-1.4-9.5-3.62-14.73-3.88c-4.6-0.23-9.17-0.05-13.68,0.49
		c-5.51,0.66-10.62,2.76-15.69,5.96c3.19,0.41,5.82-1.31,9.18-0.79c-3,2.05-6.11,2.13-8.76,3.37c3.08,0.18,5.92-0.74,8.79-1.55
		c10.09-2.83,20.24-3.27,30.53-1.14c8.38,1.74,16.54,4.08,24.27,7.82c6.71,3.25,13.77,5.67,20.21,9.58
		c6.39,3.88,10.79,8.78,12.3,16.22C222.12,223.84,224.9,227.86,224.94,232.81z M302.51,87.3c-0.46-2.76-0.49-5.2-0.05-7.63
		c0.33-1.82,1.06-3.54,1.5-5.32c0.88-3.52,2.6-7.23,0.32-10.69c-3.62-5.5-7.77-10.64-11.06-16.37c-0.32-0.56-0.73-1.43-1.58-1.03
		c-0.63,0.29-0.46,1.11-0.38,1.68c0.83,5.69,2.71,11.2,6.91,15.03c3.36,3.07,4.55,5.95,3.18,10.09c-0.05,0.16-0.02,0.35-0.06,0.52
		c-0.32,1.3-0.06,3.4-1.74,3.36c-1.73-0.04-1.42-2.1-1.52-3.44c-0.13-1.87-0.24-3.84-1.77-5.08c-1.69-1.37-2.42-3.17-3.1-5.08
		c-0.86-2.4-1.71-4.81-2.73-7.14c-0.88-2.01-1.86-4.01-3.53-5.51c-0.74-0.66-1.7-1.62-2.77-0.74c-0.88,0.73-0.86,1.92-0.46,2.95
		c2.2,5.63,3.78,11.56,7.79,16.34c0.72,0.86,1.19,1.94,1.75,2.94c0.21,0.38,0.38,0.88-0.08,1.17c-0.25,0.16-0.69,0.14-0.99,0.04
		c-1.26-0.44-2.38-1.12-3.33-2.07c-2.91-2.92-5-6.27-6.1-10.31c-0.74-2.72-0.45-6.12-3.95-7.45c-0.16-0.06-0.21-0.64-0.19-0.97
		c0.26-4.75-2.51-8.49-4.12-12.62c-0.36-0.92-0.81-1.08-1.55-0.54c-4.55,3.32-5.63,1.38-4.31,8.22c0.51,2.66,2.54,3.25,4.26,4.09
		c2.37,1.16,3.56,2.98,4.4,5.26c0.58,1.56,1.3,3.08,1.78,4.67c0.44,1.42,2.35,3.14,0.98,4.18c-1.23,0.93-2.63-1.13-3.93-1.96
		c-1.94-1.25-3.26-3.38-5.52-4.07c-0.71,0.65-0.01,1.92-0.77,1.96c-2.06,0.11-0.61,0.98-0.32,1.36c2.94,4.02,6.91,6.69,11.41,8.66
		c4.02,1.76,8.39,2.6,12.3,4.69c1.45,0.78,2.74,2.03,4.51,2.08c2.12,0.06,2.7,1.21,2.53,3.11C300.04,83.81,300.82,85.57,302.51,87.3
		z M166.33,164.49c2.36,0.28,4.49,0.55,6.62,0.77c6.98,0.75,13.98,1.2,20.57,4.09c4.75,2.08,9.8,3.35,14.78,4.77
		c3.29,0.94,6.69,1.68,9.79,3.07c7.34,3.29,12.48,8.94,15.89,16.16c1.2,2.54,2.22,5.16,3.35,7.73c2.55,5.78,5.68,11.3,7.17,17.53
		c0.88,3.69,1.24,7.45,1.96,11.15c0.13,0.65,0.05,1.58,1.04,1.55c0.93-0.02,1.71-0.53,1.95-1.49c0.17-0.67,0.14-1.39,0.17-2.09
		c0.29-7.25-1.57-14.01-5.4-20.06c-3.49-5.51-5.68-11.48-7.4-17.66c-2.85-10.23-7.74-19.15-15.89-26.16c-2.61-2.24-5.38-4-8.71-4.62
		c-0.3,0.55-0.14,0.8,0.05,0.96c4.02,3.42,7.55,7.29,10.93,11.33c0.45,0.53,1.16,0.97,0.92,1.76c-0.29,0.96-1.21,0.88-1.99,0.9
		c-0.52,0.02-1.05-0.06-1.57-0.16c-5.79-1.15-11.37-2.97-16.79-5.31c-2.56-1.11-4.84-2.74-7.72-3.23
		c-9.14-1.58-18.34-1.92-27.58-1.61C167.86,163.89,167.12,163.63,166.33,164.49z M121.77,230.57c1.09,0.91,1.9,1.44,2.85,1.66
		c6.16,1.42,12.36,2.68,18.48,4.24c6.26,1.59,12.75,0.99,19.05,2.41c4.81,1.08,8.95,2.89,12.51,6.25c1.33,1.26,2.88,2.3,4.38,3.37
		c1.04,0.74,1.71,0.33,1.7-0.89c0-1.58-0.31-3.16-0.21-4.73c0.14-2.28-0.86-3.83-2.57-5.15c-1.26-0.97-2.54-1.88-3.98-2.56
		c-5.02-2.37-10.48-2.86-15.84-3.72c-5.3-0.85-10.62-1.68-15.63-3.62c-6.7-2.6-13.22-5.67-20.08-7.89c-1.43-0.46-2.02-0.4-2.36,1.17
		c-0.27,1.27-0.05,2.23,0.83,3.12c1.57,1.57,3.36,2.81,5.29,3.89c0.77,0.43,1.8,0.63,2.19,1.82
		C126.27,230.83,124.11,229.88,121.77,230.57z M235.56,134.58c1.25,1.13,2.37,1.46,3.44,1.77c10.2,2.99,19.04,8.49,27.54,14.69
		c5.63,4.1,12.01,6.43,18.77,8c4.26,0.99,8.59,0.12,12.95,1.61c4.84,1.65,9.96,2.79,14.95,4.14c5.89,1.6,11.38,4.16,15.85,8.53
		c1.82,1.78,3.84,3.37,5.99,4.74c1.05,0.67,2.37,2.17,3.44,1.06c1.18-1.23-0.33-2.62-1.14-3.62c-5.65-6.92-12.21-12.49-21.15-14.89
		c-8.87-2.38-17.93-3.51-26.99-4.62c-6.67-0.82-12.91-2.51-18.29-6.76c-2.21-1.74-4.52-3.35-6.79-5.01
		c-6.24-4.54-12.83-8.31-20.61-9.55C241.01,134.27,238.52,134.07,235.56,134.58z M361.51,97.48c-2.43-3.56-5.26-5.84-8.7-7.29
		c-1.28-0.54-2.71-0.43-3.98,0.56c-1.62,1.26-3.59,1.3-5.54,1.21c-0.69-0.03-1.54-0.02-1.66-0.93c-0.12-0.88,0.69-1.15,1.32-1.41
		c1.88-0.77,3.85-1.21,5.86-1.48c1.57-0.21,3.14-0.41,4.69-0.69c0.84-0.15,1.53-0.78,1.5-1.61c-0.03-0.81-0.94-0.63-1.5-0.63
		c-2.72,0.01-5.46-0.07-8.17,0.14c-3.49,0.27-6.84,3.3-7.76,6.54c-0.36,1.28-1.32,2.27-2.28,3.18c-0.22,0.21-0.71,0.36-0.95,0.26
		c-0.46-0.2-0.51-0.76-0.29-1.14c1.79-3.12,2.5-6.86,5.74-9.13c2.64-1.85,5.71-2.15,8.65-3c0.75-0.22,2.05,0.22,2.06-1.06
		c0.01-0.99-0.78-1.79-1.73-2.15c-1.31-0.49-2.68-0.81-4.02-1.22c-5.35-1.64-10-0.29-14.15,3.26c-1.18,1.01-1.81,2.34-2.33,3.76
		c-0.5,1.34,0.47,3.34,0.71,3.36c2,0.22,1.33,1.67,1.31,2.62c-0.02,1.26-0.39,2.51-0.62,3.77c1.07-0.73,1.19-1.86,1.53-2.89
		c0.77-2.33,1.11-4.81,2.48-6.92c0.56-0.86,1.23-2.2,2.37-1.42c1.04,0.71-0.07,1.74-0.57,2.49c-1.73,2.61-2.63,5.54-3.37,8.53
		c-0.22,0.91-0.54,2.23,0.61,2.55c1.65,0.46,3.21,1.94,5.17,0.65c1.12-0.74,2.53-0.65,3.85-0.67c3.52-0.05,7.01-0.36,10.48-1
		c1.28-0.24,2.62-0.15,3.94-0.15c0.52,0,1.14,0.13,1.13,0.82c-0.01,0.5-0.51,0.73-0.96,0.71c-3.84-0.16-7.24,2.11-11.11,1.93
		c-1.79-0.08-4.33,2.06-4.68,3.67c-0.17,0.77-0.62,1.86,0.89,1.93c2.73,0.13,4.12,2.08,5.45,4.05c0.72,1.07,1.27,2.26,2.79,2.99
		c0.04-1.59-0.69-2.59-1.43-3.5c-0.88-1.09-1.93-2.04-2.88-3.08c-0.86-0.94-0.51-1.8,0.58-1.91c4.01-0.4,7.96-1.43,12.03-1.26
		c1.42,0.06,1.99,0.75,2,2.18c0.02,1.59,0.11,1.59,0.89,2.83c-0.33-2.85,0.74-5.73-1.68-7.91c-0.38-0.34-0.96-0.67-0.66-1.27
		c0.29-0.59,0.9-0.35,1.41-0.29C360.25,97.51,360.59,97.48,361.51,97.48z M237.8,86.29c-0.95,0.05-1.84,0.04-1.71,1.04
		c0.18,1.44-1.1,3.21,0.84,4.27c2.57,1.41,5.29,2.48,8.27,1.94c1.91-0.35,3.63-1.11,3.76,2c0.04,0.9,1.25,1.65,2.14,2.22
		c1.92,1.25,3.94,2.36,6.18,2.89c2.43,0.57,4.71,1.5,6.78,2.82c6.48,4.09,13.85,5.33,21.15,6.84c6.08,1.26,12.36,1.74,17.96,4.81
		c3.33,1.83,7.1,2.56,10.54,4.12c0.97,0.44,1.66,0.28,2.29-0.54c0.67-0.85,0.51-1.6-0.13-2.37c-0.85-1.02-1.81-1.9-3.01-2.52
		c-5.63-2.92-11.48-5.22-17.58-6.99c-6.7-1.95-13.62-2.57-20.45-3.7c-2.3-0.38-4.35-1.14-6.33-2.4c-4.97-3.18-10.15-5.95-15.96-7.34
		c-1.65-0.39-3.34-0.92-4.33-2.33C245.59,87.31,241.46,87.13,237.8,86.29z M168.33,253.06c1.53-0.96,2.48-0.36,3.44-0.07
		c2.02,0.6,4.05,1.18,6.06,1.79c1.36,0.41,1.87-0.58,2.47-1.45c0.66-0.94-0.07-1.47-0.61-2c-2.99-2.97-6.39-5.13-10.68-5.83
		c-5.58-0.91-11.2-1.07-16.82-0.9c-4.53,0.14-8.67-0.91-12.74-2.72c-2.39-1.06-4.8-2.26-7.58-1.11c-0.85,0.35-1.73-0.13-2.53-0.47
		c-1.13-0.48-2.22-1.06-3.37-1.49c-0.57-0.21-1.35-0.89-1.78,0.15c-0.29,0.7,0.29,1.14,0.84,1.45c4.63,2.65,8.92,6.01,14.4,6.9
		c0.68,0.11,1.34,0.41,1.98,0.69c0.49,0.22,0.92,0.59,0.85,1.2c-0.07,0.62-0.57,0.89-1.1,0.96c-0.87,0.11-1.75,0.16-2.63,0.17
		c-1.96,0.02-3.92,0.01-6.08,0.01c0.44,1.01,0.93,0.88,1.32,0.93c6.36,0.92,12.78,0.98,19.17,1.51c9.57,0.79,18.77,2.73,27.04,7.92
		c0.29,0.18,0.7,0.59,1.06-0.01C177.44,257.37,172.95,255.54,168.33,253.06z M308.39,107.08c-0.43-2.55-2.51-3.11-3.8-4.28
		c-3.51-3.16-7.2-6.24-11.87-7.58c-3.62-1.04-7.35-1.7-10.98-2.73c-5.86-1.66-12-2.17-16.9-6.9c-3-2.9-6.93-5.44-11.55-5.93
		c-0.47-0.05-1-0.4-1.34-0.77c-2.1-2.27-4.94-2.75-7.77-3.16c-1.27-0.18-2.81-0.27-3.33,1.37c-0.53,1.65,0.02,2.92,1.43,4.13
		c2.07,1.77,4.65,1.39,6.93,2.17c1.24,0.43,2.35,0.8,1.79-1.31c-0.17-0.63,0.21-1.22,0.9-1.42c0.69-0.2,1.18,0.14,1.55,0.7
		c0.54,0.82,1.11,1.73,0.52,2.68c-1.14,1.83-0.18,3.22,1.13,4.07c3.08,2.01,5.7,4.66,9,6.35c0.78,0.4,1.59,0.79,2.44,0.96
		c3.96,0.78,7.95,1.4,11.89,2.24c7.19,1.54,14.56,2.29,21.48,5.07C302.77,103.9,305.28,105.68,308.39,107.08z M324.89,156.8
		c0.08-0.98-0.51-1.15-0.9-1.46c-6.38-5.02-13.99-7.47-21.65-9.21c-13.08-2.95-25.1-8.42-37.07-14.11
		c-7.76-3.69-15.92-5.9-24.41-6.99c-0.33-0.04-0.71,0.01-1.03,0.14c-0.54,0.22-1.32,0.3-1.23,1.13c0.06,0.64,0.69,0.75,1.2,0.82
		c1.22,0.16,2.59,0.17,3.52,0.95c1.99,1.66,4.42,2.06,6.74,2.83c2.74,0.92,5.56,1.63,8.17,2.93c5.42,2.7,10.79,5.53,16.31,8
		c12.07,5.4,24.79,8.81,37.61,11.82C316.39,154.65,320.63,155.66,324.89,156.8z M318.09,146.06c-1.46-2.62-3.07-4.22-5.38-5.39
		c-4.3-2.19-8.61-4.36-13.06-6.23c-6.41-2.69-12.93-4.96-19.81-6.18c-3.8-0.67-7.49-1.88-11.04-3.44
		c-5.46-2.4-10.71-5.29-16.49-6.95c-1.8-0.52-3.61-0.91-5.36,0.07c-0.55,0.31-1.46,0.51-1.27,1.45c0.14,0.69,0.84,0.84,1.42,1.01
		c6.3,1.88,12.32,4.39,18.32,7.15c10.6,4.88,21.48,9.16,32.33,13.47c6.94,2.76,14.04,5.12,21.42,7.79c-2.4-2.13-5.28-2.78-7.34-4.7
		C314.05,143.94,315.7,145.23,318.09,146.06z M250.8,104.79c-1.35,0.14-2.79-0.27-3.26,1.06c-0.48,1.36,0.68,2.24,1.62,3.03
		c0.61,0.51,1.3,0.9,2.12,0.97c1.33,0.11,2.55,0.64,3.8,1.04c5.3,1.67,10.1,4.46,15.12,6.75c8.21,3.75,16.92,5.79,25.74,7.47
		c3.3,0.63,6.48,1.61,9.4,3.31c3.2,1.87,6.51,3.45,10.16,4.25c0.86,0.19,1.74,0.68,2.36-0.31c0.59-0.94,0.33-1.9-0.31-2.7
		c-0.49-0.6-1.06-1.23-1.73-1.58c-4.57-2.41-8.9-5.29-13.84-6.98c-6.68-2.29-13.59-3.52-20.49-4.8c-3.8-0.7-7.9-0.93-11.18-2.83
		c-3.23-1.88-6.56-3.59-9.81-5.43C257.4,106.28,254.09,105.2,250.8,104.79z M154.8,167.31c2.05,1.39,4.41,0.86,6.58,1.4
		c8.1,2,15.96,4.85,24.13,6.61c3.78,0.81,7.5,1.81,11.17,3.04c7.38,2.48,14.72,5.31,20.03,11.14c5.41,5.94,10.08,12.55,12.47,20.46
		c0.81,2.68,1.92,5.28,3.44,7.67c1.22,1.93,2.74,3.85,3.09,6.07c0.46,2.96,2.33,4.92,3.96,7.11c0.73,0.99,1.33,0.77,1.68-0.22
		c0.23-0.64,0.22-1.38,0.26-2.08c0.33-6.28-1.96-11.72-5.52-16.68c-4.18-5.84-9.18-11.1-12.49-17.58c-0.76-1.49-2.01-2.63-3.29-3.73
		c-2.06-1.78-4-3.69-5.65-5.88c-0.53-0.7-1.08-1.42-1.91-1.78c-4.51-1.95-8.59-4.76-13.29-6.37c-11.41-3.9-23.26-6.08-34.87-9.2
		C161.46,166.44,158.07,166.95,154.8,167.31z M311.1,51.54c0.14,0.05,0.23,0.11,0.3,0.09c0.07-0.02,0.18-0.12,0.17-0.17
		c-0.39-2.3,0.5-2.19,2.05-1.16c0.78,0.52,2.26,1.35,2.59,0.64c1.05-2.26,1.81-0.52,2.38,0.06c1.86,1.91,3.45,4.14,4.06,6.71
		c0.9,3.79,2.88,6.71,5.82,9.11c0.41,0.33,0.91,0.67,0.71,1.28c-0.18,0.56-0.75,0.8-1.28,0.75c-1.81-0.16-1.8,0.9-1.91,2.29
		c-0.24,3.32-0.69,6.62-1.59,9.87c-0.82,2.98-2.09,5.78-2.99,8.72c-0.26,0.85-0.75,1.71,0.02,3.28c1.36-4.32,4.06-7.31,5.74-10.83
		c2.19-4.59,5.14-7.32,10.6-6.86c2.31,0.19,4.97,0.47,6.99-0.67c1.53-0.86,2.71-1.1,4.28-0.37c-0.22-1.11-7.24-13.83-8.1-14.73
		c0.47,1.28,0.87,2.34,1.24,3.42c0.17,0.5,0.38,1.11-0.13,1.46c-0.6,0.41-0.92-0.23-1.26-0.58c-0.31-0.31-0.6-0.65-0.85-1.01
		c-3.46-5.04-8.45-8.9-10.96-14.75c-0.6,0.62-0.3,0.93-0.17,1.22c1.53,3.37,3.13,6.69,5.84,9.33c0.53,0.52,1.5,1.04,0.99,1.92
		c-0.44,0.76-1.43,0.4-2.2,0.39c-0.94-0.01-1.79-0.74-2.8-0.35c0.05,1.72,1.35,1.29,2.31,1.34c2.33,0.13,4.56,0.37,5.95,2.67
		c0.86,1.42,0.53,1.98-1.07,2.27c-5.56,1.01-10.22-1.72-12.27-7.45c-1.21-3.38-3.01-6.3-5.75-8.64c-0.6-0.51-1.37-1.07-0.83-1.97
		c0.64-1.07,1.55-1.99,2.81-2.24c1.27-0.25,1.8,0.84,2.4,1.71c0.86,1.24,1.33,2.66,1.85,4.06c0.68,1.81,1.45,3.58,2.2,5.36
		c0.23,0.54,0.6,0.92,1.21,0.55c0.52-0.31,0.31-0.77,0.07-1.15c-2.2-3.4-2.6-7.68-5.32-10.82c-0.89-1.03-0.71-2.03,0.01-3.12
		c2-3.01,4.29-5.77,6.78-8.38c0.7-0.73,1.34-1.53,2-2.3c-0.27-0.23-0.53-0.46-0.8-0.68c-1.13,1.34-2.19,2.76-3.41,4.01
		c-3.86,3.93-7.02,8.53-11.63,11.77c-2.58,1.81-3.13,1.88-4.45-1.02c-1.05-2.3-2.83-3.56-5.41-4.1
		C309.42,45.2,309.48,48.7,311.1,51.54z M224.39,148.73c0.83,1.75,2.12,2.64,3.27,3.64c3.91,3.41,8.32,6.17,12.18,9.66
		c8.17,7.39,14.07,16.04,14.99,27.27c0.9,11.02,5.35,21.02,8.22,31.49c0.29-1.77,0.15-3.51-0.37-5.17
		c-1.48-4.76-1.95-9.59-1.58-14.56c0.16-2.18-0.03-4.37-0.37-6.57c-1.3-8.4-4.08-16.35-7.04-24.27c-1.05-2.8-2.83-4.95-5.04-6.94
		c-5.95-5.35-12.93-9.07-19.87-12.85C227.51,149.75,226.29,148.82,224.39,148.73z M138.48,256.61c-1.06,0.15-2.89-0.1-1.82,1.72
		c1.57,2.68,3.15,5.54,6.97,5.73c1.73,0.09,3.46,0.59,5.15,1.06c7.21,1.98,14.37,4.13,21.99,3.71c0.69-0.04,1.4,0.14,2.08,0.29
		c0.52,0.11,1.17,0.35,0.98,0.99c-0.61,1.98,0.94,1.3,1.65,1.27c2.63-0.11,3.25-2.38,4.19-4.22c1.08-2.11,0.89-2.69-1.3-3.63
		c-3.16-1.35-6.47-2.22-9.91-2.57c-6.55-0.66-13.14-0.89-19.59-2.49C145.46,257.64,141.95,257.22,138.48,256.61z M228.12,144.16
		c2.97,1.39,5,4.01,7.9,5.32c3.52,1.6,6.98,3.32,10.34,5.25c7.2,4.15,12.51,9.8,14.74,18.07c0.84,3.13,2.07,6.17,3.35,9.15
		c1.73,4.03,2.59,8.17,2.62,12.54c0.03,3.77-0.11,7.56,0.49,11.32c0.23,1.45,0.53,2.85,1.84,3.96c1.59-2.47,2.16-4.96,2.41-7.64
		c0.77-8.15-2.31-15.35-5.48-22.5c-0.86-1.93-1.81-3.79-2.23-5.88c-0.84-4.2-2.6-7.98-5.05-11.49c-4.17-5.97-8.62-11.6-15.98-13.91
		c-0.33-0.1-0.85-0.26-0.9-0.49c-0.55-2.37-2.62-2.04-4.21-2.27C234.7,145.12,231.55,143.9,228.12,144.16z M304.7,94.73
		c-0.4-1.32-1.22-1.88-1.87-2.53c-6.22-6.21-13.14-11.33-21.57-14.19c-1.32-0.45-2.58-1.09-3.87-1.66
		c-4.67-2.08-8.83-5.04-13.17-7.7c-1.91-1.18-3.93-0.71-5.11,1.44c-0.76,1.37-0.5,2.91,0.83,4.2c7,6.79,15.59,10.23,25.01,11.81
		c4.57,0.76,8.86,2.09,12.81,4.52C299.97,91.96,302.22,93.26,304.7,94.73z M254.77,226.78c0.19-0.03,0.38-0.06,0.57-0.1
		c1.18-7.64-0.33-14.87-4.29-21.43c-1.9-3.15-3.5-6.29-4.06-9.89c-0.76-4.78-1.72-9.51-2.82-14.21c-1.16-4.96-3.38-9.41-7.05-13.02
		c-2.38-2.34-4.8-4.64-7.29-6.86c-3.01-2.68-5.94-5.5-9.61-7.32c-0.58-0.29-1.3-1-1.85-0.19c-0.45,0.67,0.38,1.03,0.82,1.42
		c2.44,2.14,4.77,4.44,7.36,6.39c8.29,6.26,13.21,14.52,14.51,24.75c0.77,6.1,2.45,11.84,5.1,17.34c2.32,4.84,4.24,9.84,6.06,14.88
		C253.17,221.25,253.92,224.03,254.77,226.78z M309.33,288.83c-0.45,3.3,2.33,3.96,4.43,3.09c1.02-0.42,1.31-1.35,1.88-2.11
		c1.31-1.77,2.59-3.65,4.71-4.48c1.57-0.61,2.78,0.78,4.13,1.3c1.73,0.66,2.75,0.18,3.1-1.59c0.4-2.07,0.68-4.16,1.05-6.23
		c0.26-1.49,0.68-2.75,2.32-3.53c1.73-0.82,1.73-2.3,0.27-3.56c-0.73-0.63-1.58-1.11-2.37-1.67c-0.43-0.3-0.94-0.61-0.74-1.24
		c0.21-0.66,0.82-0.57,1.33-0.51c0.96,0.1,1.91,0.29,2.87,0.35c0.77,0.05,1.68,0.16,2.05-0.77c0.4-1,0.1-1.88-0.72-2.6
		c-0.7-0.62-2.05-1.05-1.75-2.07c0.31-1.06,1.67-0.59,2.59-0.72c0.17-0.03,0.35-0.01,0.52-0.05c1.52-0.34,1.75-1,0.76-2.13
		c-2.48-2.83-5.17-2.48-6.84,0.86c-2.07,4.15-2.93,8.61-3.42,13.18c-0.51,4.7-5.86,8.26-10.41,6.95c-0.48-0.14-0.98-0.45-1.31-0.82
		c-1.42-1.57-2.21-0.75-2.91,0.67C309.68,283.56,309.69,286.23,309.33,288.83z M137.05,175.8c1.04-0.07,2.08-0.14,3.12-0.19
		c6.96-0.38,13.86-0.12,20.65,1.69c8.32,2.23,16.7,4.18,25.28,5.11c1.8,0.19,3.6,0.34,5.51,0.02c-0.42-1.25-1.4-1.31-2.14-1.64
		c-1.76-0.8-3.55-1.54-5.33-2.28c-5.28-2.19-10.64-4.3-16.21-5.47c-5.8-1.23-11.7-1.65-17.77-0.98
		C145.54,172.57,141.24,173.54,137.05,175.8z M231.28,138.93c4.09,1.01,7.81,2.78,11.62,4.31c6.37,2.56,10.9,7.6,15.87,12.05
		c4.32,3.88,7.73,8.67,12.31,12.28c0.82,0.65,1.66,1.75,2.73,1.28c3.38-1.49,6.95-1.78,10.54-2.08c0.51-0.04,1.14-0.14,1.16-0.81
		c0.03-0.77-0.55-1.12-1.22-1.09c-1.84,0.07-3.37-0.93-5.07-1.33c-7.94-1.87-14.58-5.91-20.29-11.67
		c-4.91-4.96-10.36-9.25-16.83-12.03C238.64,138.36,235.08,137.27,231.28,138.93z M329.6,249.68c0-0.96,0.17-1.97-0.04-2.88
		c-0.44-1.94-2.07-2.13-3.71-2.21c-1.65-0.08-1.71,1.05-1.86,2.25c-0.33,2.54-1.15,4.94-2.28,7.24c-0.66,1.34-1.88,2.35-2.29,3.82
		c-1.27,4.57-2.09,9.23-2.63,13.93c-0.1,0.85-0.48,2.15,0.92,2.36c1.09,0.16,1.67-0.67,2.07-1.66c1-2.45,2.57-4.56,4.01-6.76
		C326.99,260.89,329.2,255.59,329.6,249.68z M306.52,61.01c1.4,4.88,2.07,9.74,0.38,14.67c-1.57,4.58-2.55,9.17-0.1,13.77
		c0.88,1.65,1.72,3.37,3.55,4.27c0.55-0.84,0.25-1.53,0.01-2.16c-1.06-2.84-0.74-5.68-0.15-8.56c0.44-2.17,1.52-4.12,2.03-6.24
		c1.15-4.9,0.14-9.56-1.66-14.13C309.46,59.78,309.37,59.72,306.52,61.01z M171.66,366.26c1.61-0.14,3.62-0.23,5.61-0.51
		c2.24-0.31,3.94-2.37,3.52-4.07c-1.53-6.17-10.4-8.88-15.13-4.63c-0.62,0.56-0.9,1.26-0.98,2.08
		C164.31,362.85,167.53,366.35,171.66,366.26z M310.39,191.08c0-0.83-0.62-0.83-1.27-0.83c-1.73,0-2.93,1.07-4.13,2.1
		c-4.75,4.08-8.99,8.6-12.32,13.94c-1.35,2.17-2.46,4.45-3.46,6.79c-0.2,0.46-0.44,1.06,0.06,1.46c0.49,0.39,1,0.04,1.45-0.22
		c2.36-1.37,4.93-2.67,6.38-4.99c3.59-5.77,7.89-10.96,12.32-16.06C309.94,192.68,310.29,191.97,310.39,191.08z M155.6,335.85
		c-1.74-0.04-3.27,0.56-4.67,1.54c-1.23,0.86-1.18,1.72,0.14,2.35c1.1,0.52,2.32,0.8,3.46,1.27c1.67,0.69,1.87,1.43,0.58,2.69
		c-0.86,0.84-1.66,1.59-1.29,2.91c0.6,2.15,1.52,4.13,3.23,5.63c1.27,1.11,3.39,1.09,4.13-0.36c1.29-2.53,3.33-5.03,1.44-8.23
		c-0.62-1.04-0.85-2.3-1.31-3.44C160.28,337.64,157.91,335.85,155.6,335.85z M143.28,269.28c-0.86,0.19-2.45-0.53-2.83,0.82
		c-0.39,1.37,1.24,1.77,2.18,2.24c5.38,2.68,10.69,5.51,16.52,7.26c3.1,0.93,5.68,0.28,8.35-0.94c1.5-0.68,1.25-1.5,0.06-2.26
		c-0.97-0.62-2.03-1.02-3.18-1.19c-5.68-0.82-11.21-2.08-16.32-4.86C146.66,269.59,145.1,269.24,143.28,269.28z M281.71,210.24
		c0.25,0.89-0.36,2.55,1.29,2.84c1.41,0.25,2.08-1.08,2.62-2.2c1.2-2.47,1.99-5.08,2.25-7.8c0.51-5.17,3.38-8.32,8.19-9.83
		c2.53-0.8,4.86-2.02,7.21-3.19c0.89-0.44,2.46-0.97,2.07-2c-0.47-1.23-2.07-0.58-3.05-0.3c-3.79,1.09-7.61,2.15-11.09,4.08
		c-0.69,0.38-1.32,0.83-1.89,1.39c-4.33,4.27-5.24,10.19-7.46,15.48C281.7,209.09,281.77,209.58,281.71,210.24z M79.32,355.63
		c-0.26-0.71-0.98-0.76-1.68-0.82c-4.31-0.36-8.52,1-12.83,0.8c-0.62-0.03-1.19,0.37-1.54,0.91c-1.42,2.17-3.38,3.18-6,3.07
		c-1.27-0.05-1.99,0.65-0.86,1.74c1.66,1.61,3.09,3.29,3.92,5.5c0.44,1.17,1.23,0.76,1.62-0.19c0.26-0.64,0.27-1.38,0.52-2.03
		c0.59-1.52,1.4-2.9,3.28-2.97c4.76-0.17,8.42-3.28,12.7-4.72C78.96,356.76,79.39,356.4,79.32,355.63z M134.88,285.09
		c5.27,2.05,10.54,4.14,16.4,2.53c0.58-0.16,1.18-0.41,1.64-0.78c1.31-1.03,1.24-2.13-0.34-2.74c-3.69-1.4-6.68-3.74-9.63-6.28
		c-2.98-2.56-4.09-2.05-5.06,1.8c-0.38,1.5,0.25,2.29,1.41,3.01c0.72,0.45,1.71,1,1.3,2.02c-0.41,1.02-1.52,0.52-2.35,0.56
		C137.13,285.27,136.06,284.62,134.88,285.09z M298.17,220.1c1.86-0.04,6.77-4.55,7.32-6.59c0.82-3.02,2.29-5.65,4.28-8.06
		c1.79-2.16,3.82-4.14,5.12-6.66c0.31-0.59,0.79-1.31,0.14-1.93c-0.71-0.67-1.48-0.31-2.16,0.14c-0.43,0.29-0.82,0.66-1.19,1.02
		c-3.37,3.34-6.51,6.89-9.21,10.8c-1.95,2.82-2.87,6.2-4.95,8.98C296.92,218.6,296.75,219.85,298.17,220.1z M320.28,206.17
		c0.17-1.45-0.39-2.2-2.28-1.87c-1.59,0.27-2.73,0.95-3.71,2.2c-3.05,3.86-5.55,8.09-8.25,12.18c-0.72,1.09-1.66,2.07-2.02,3.37
		c-0.18,0.64-0.76,1.35-0.05,1.94c0.54,0.45,1.17,0.01,1.73-0.21c2.96-1.17,5.3-3.02,6.81-5.89c1.92-3.65,3.83-7.34,7.29-9.85
		C320.42,207.6,320.44,207.05,320.28,206.17z M299.68,289.26c0.43,1.13-0.76,3.23,1.42,4.02c1.77,0.64,3.63,0.4,5.4-0.29
		c0.7-0.27,1.12-0.79,0.56-1.38c-1.68-1.77-0.82-3.59-0.24-5.41c0.8-2.5,1.66-4.98,2.46-7.49c0.23-0.73,0.53-1.92-0.62-1.8
		c-1.49,0.15-3.31-0.01-4.37,1.4C301.92,281.47,299.55,284.65,299.68,289.26z M316.82,54.22c0.58,1.24,0.95,1.93,1.25,2.66
		c2.02,4.83,3.84,9.83,2.5,15.05c-1.09,4.25-1.98,8.53-2.94,12.8c-0.69,3.09-1.28,6.27-0.36,9.49c0.19-3.78,1.9-7.06,3.3-10.43
		c0.6-1.44,1.54-2.69,1.98-4.26c1.62-5.8,0.86-11.48-0.63-17.13C321.13,59.36,320.39,56.23,316.82,54.22z M323.18,213.37
		c-1.7,0.13-3.29,0.75-4.61,2.28c-2.36,2.73-4.01,5.97-6.36,8.7c-1.41,1.64-1.03,2.74,1.11,3.17c1.2,0.24,2.27-0.14,3.21-0.86
		c3.78-2.89,6.02-7.01,8.42-10.95C325.97,214.03,325.37,213.36,323.18,213.37z M231.55,340.62c-2.49-4.27-3.27-8.83-3.3-13.64
		c-0.02-2.78-2.3-4.06-4.48-5.02c-2.1-0.92-3.33,1.03-4.81,1.99c-0.66,0.43-1.12,1.18-0.89,2.05c0.23,0.9,1.02,1.13,1.84,1.25
		c1.82,0.27,3.67,0.44,5.47,0.81c1.83,0.38,2.15,1.25,1.12,2.81c-0.38,0.58-0.85,1.15-1.41,1.55c-1.09,0.77-1.02,1.61-0.59,2.73
		C225.72,338.36,228.4,339.68,231.55,340.62z M303.82,57.89c0.18-0.04,0.35-0.07,0.53-0.11c0-0.6,0.14-1.24-0.02-1.8
		c-0.87-3.03-1.34-6.17-2.76-9.04c-1.43-2.9-2.98-5.76-3.18-9.13c-0.08-1.38-0.56-2.75-0.95-4.1c-0.41-1.4-1.52-1.88-2.86-1.79
		c-1.38,0.09-1.62,1.17-1.67,2.27c-0.05,1.14,0.01,2.28-0.03,3.42c-0.07,2.03,0.61,3.61,2.59,4.44c1.14,0.47,1.77,1.43,2.22,2.5
		C299.6,49.06,302.58,53.06,303.82,57.89z M137.07,294.94c-2.41-0.28-4.46-0.05-6.5,0.39c-0.81,0.18-1.53,0.54-1.65,1.46
		c-0.13,1.03,0.73,1.24,1.42,1.61c1.52,0.81,2.98,0.93,4.43-0.14c1.01-0.75,2.18-1.07,3.41-1.25c1.22-0.18,2.4-0.58,3.39-1.34
		c0.93-0.71,1.1-1.59,0.19-2.44c-2.71-2.58-5.89-4.37-9.5-5.37c-0.57-0.16-1.22-0.12-1.83-0.09c-0.52,0.02-1.08,0.12-1.35,0.66
		c-0.33,0.67,0.04,1.22,0.49,1.63c1.37,1.24,2.89,2.25,4.64,2.92C135.15,293.33,136.34,293.31,137.07,294.94z M198.93,231.64
		c-0.09-0.19-0.22-0.5-0.37-0.81c-2.99-5.96-8.68-8.56-14.17-11.41c-0.37-0.19-0.92-0.31-1.22,0.08c-0.41,0.53,0.05,0.99,0.38,1.36
		c1.72,1.97,3.3,4.12,5.69,5.36c0.67,0.35,0.86,0.83,1.2,1.45c1.25,2.23,1.82,5,4.42,6.28C196.7,234.86,198.81,233.74,198.93,231.64
		z M264.18,59.77c2.36,0.12,2.75-0.34,2.25-2.64c-0.09-0.42-0.31-0.94-0.16-1.27c1.32-2.9-0.57-4.83-2.06-6.83
		c-1.28-1.73-2.37-1.69-3.78,0.03c-0.82,1.01-1.34,2.27-2.54,2.95c-0.42,0.24-0.48,0.66-0.46,1.14
		C257.55,56.11,261.11,59.61,264.18,59.77z M330.63,237.61c4.21-0.83,8.68-1.69,13.15-2.59c0.84-0.17,1.92-0.23,2.05-1.31
		c0.12-1.06-0.72-1.73-1.5-2.32c-0.91-0.69-1.99-0.64-3.04-0.55c-3.26,0.26-6.4,1.02-9.4,2.36c-1.07,0.48-1.92,1.23-2.67,2.1
		c-0.39,0.46-0.96,0.93-0.71,1.59C328.84,237.73,329.68,237.52,330.63,237.61z M314.91,182.74c5.92,6.8,12.14,13.33,17.6,20.5
		C331.14,194.68,321.85,183.74,314.91,182.74z M288.61,43.53c-0.41-3.41-1.21-6.47-4.75-8.2c-2.04-1-3.22-0.72-3.58,1.56
		c-0.77,4.93,1.59,7.96,6.56,8.53C288.36,45.58,288.69,44.78,288.61,43.53z M339.33,227.23c-0.63-0.85-1.4-0.52-2.03-0.59
		c-0.88-0.1-1.4-0.42-1.69-1.33c-0.89-2.76-1.31-2.84-3.52-0.8c-2.77,2.55-5.42,5.22-8.42,7.51c-0.63,0.48-1.98,0.74-1.57,1.77
		c0.4,1,1.68,0.64,2.61,0.66c0.72,0.01,1.38-0.29,1.9-0.79c2.59-2.5,5.67-4.04,9.13-4.95C336.95,228.39,338.09,227.75,339.33,227.23
		z M313.07,89.92c0.3,0.04,0.6,0.08,0.9,0.12c0.73-2.85,1.31-5.74,2.21-8.53c2.03-6.29,2.16-12.54,0.08-18.83
		c-0.38-1.16-0.85-2.29-0.66-3.58c0.28-1.94,0.24-1.95-2.43-2.9C316.94,67.6,315.8,78.76,313.07,89.92z M241.17,106.83
		c0.93-0.1,1.54-0.14,2.15-0.23c0.77-0.1,1.3-0.44,1.3-1.34c0-0.85,0.41-1.97-0.7-2.27c-2.57-0.7-4.79-2-7.06-3.33
		c-1.68-0.98-3.63,0.25-3.42,1.74c0.54,3.89,0.67,4.03,4.68,4.84C239.23,106.48,240.35,106.67,241.17,106.83z M319.49,231.68
		c0.9-0.09,1.66-0.72,2.41-1.31c3.34-2.61,5.88-6.02,8.84-9.01c0.55-0.55,1.48-1.41,0.66-2.26c-0.78-0.81-1.81-0.25-2.66,0.24
		c-0.38,0.22-0.72,0.51-1.03,0.81c-3.11,2.98-6.22,5.95-9.02,9.23c-0.44,0.51-1.01,1.09-0.5,1.86
		C318.44,231.65,318.9,231.7,319.49,231.68z M116.85,365.25c-4.48-0.51-8.98-0.04-13.39-1c-1.36-0.3-2.68-0.92-4.13-0.75
		c-0.81,0.09-1.72,0.27-1.9,1.14c-0.22,1.03,0.81,1.22,1.5,1.53C105.03,368.87,111.01,368.43,116.85,365.25z M258.59,66.65
		c-0.07-0.87-0.05-1.89-0.81-2.41c-2.25-1.51-4.68-2.67-7.35-3.24c-0.86-0.18-1.47,0.36-1.81,1.19c-0.32,0.78-0.25,1.32,0.3,2.11
		c1.69,2.4,4.35,3.08,6.76,4.22C257.72,69.49,258.61,68.87,258.59,66.65z M213.96,166.69c-2.4-1.86-4.8-3.59-7.1-5.45
		c-0.63-0.51-1.45-0.68-2.24-0.65c-4.35,0.19-8.7,0.42-13.05,0.64C199.04,163.18,206.69,163.98,213.96,166.69z M311.98,353.76
		c-1.86-2.11-2.14-4.66-3.27-6.83c-1.43-2.74-2.15-3.03-4.92-1.87c-1.05,0.44-1.34,0.95-0.71,1.98c0.91,1.49,1.78,3.01,2.59,4.56
		C307.17,354.51,308.15,354.89,311.98,353.76z M128.02,362.39c-0.13-4.16-1.99-6.32-6.14-7.14c-0.76-0.15-1.58-0.5-2.16,0.31
		c-0.56,0.8-0.05,1.57,0.4,2.16c1.59,2.07,3.25,4.09,4.92,6.1c0.47,0.57,0.98,1.41,1.92,0.83
		C127.76,364.15,128.07,363.33,128.02,362.39z M356.19,368.8c1.13-0.23,2.29-0.3,3.14-1.19c1.59-1.66,3.47-2.9,5.59-3.8
		c0.77-0.32,1.28-0.91,1.53-1.69c0.18-0.55,0.07-1.22-0.53-1.26c-1.87-0.13-3.99-0.97-5.55,0.44c-1.87,1.68-3.43,3.71-5.04,5.66
		C354.43,368.03,354.81,368.71,356.19,368.8z M330.36,213.23c0.23-7.61-3.27-13.28-9.23-17.65
		C324.11,201.5,326.95,207.49,330.36,213.23z M234.58,115.69c-0.26,0-0.53-0.01-0.79,0c-1.17,0.05-2.36,0.1-2.59,1.62
		c-0.23,1.46,0.56,2.23,1.82,2.81c2.6,1.19,5.13,0.78,7.67-0.12c0.77-0.28,1.39-0.82,1.38-1.74c-0.01-0.99-0.78-1.3-1.55-1.54
		C238.58,116.14,236.61,115.71,234.58,115.69z M142.1,311.91c1.05,0,1.57,0.03,2.09-0.01c0.75-0.06,1.77,0.21,2.05-0.72
		c0.31-1.03-0.62-1.58-1.39-1.95c-2.22-1.07-4.55-1.77-7.04-1.73c-0.77,0.01-1.7-0.1-1.94,0.9c-0.21,0.88,0.44,1.47,1.06,1.95
		C138.62,311.65,140.57,311.98,142.1,311.91z M142.1,304.43c0.93-0.06,1.81,0.13,2.32-0.65c0.21-0.31-0.14-0.64-0.37-0.91
		c-2.38-2.81-7.36-3.52-10.4-1.48c-0.44,0.29-0.96,0.55-0.87,1.18c0.11,0.77,0.76,0.95,1.38,0.96
		C136.89,303.59,139.59,303.85,142.1,304.43z M335.44,251.39c-0.37,0.05-1.57-0.45-2.22,0.69c-0.44,0.76-0.1,1.51,0.44,2.16
		c1.4,1.68,4.65,2.56,6.7,1.8c1.6-0.59,1.93-1.77,0.74-2.97C339.72,251.68,337.98,251.22,335.44,251.39z M333.4,243.63
		c0.49,2.58,1.63,4.28,3.89,4.85c1.6,0.4,3.29,0.47,4.94,0.59c0.64,0.05,1.58,0.37,1.87-0.45c0.27-0.78-0.58-1.18-1.12-1.58
		C340.24,244.98,336.99,244.37,333.4,243.63z M56.75,298.62c0.55-0.27,1.11-0.5,1.63-0.8c3.7-2.16,7.39-4.29,11.47-5.76
		c2.61-0.94,4.67-2.85,6.22-5.28c-2.12,1.17-4.11,2.48-6.4,3.31C64.7,291.87,60.38,294.78,56.75,298.62z M341.37,242.79
		c1.66,0.03,3.35,0.27,4.96-0.33c0.49-0.18,1.04-0.42,1.04-1.04c0-0.65-0.58-0.84-1.09-0.96c-2.75-0.68-5.54-0.91-8.37-0.73
		c-0.87,0.06-1.53,0.33-1.55,1.38c-0.03,1.13,0.57,1.62,1.59,1.67C339.09,242.83,340.23,242.79,341.37,242.79z"/>
	<path d="M72.59,263.03c-1.75,0-3.51,0.02-5.26-0.01c-0.58-0.01-1.39,0.08-1.41-0.78c-0.01-0.59,0.63-0.82,1.16-0.86
		c3.84-0.28,7.67-0.95,11.54-0.48c0.64,0.08,1.6,0.1,1.61,1.01c0.01,0.93-0.95,0.96-1.6,0.98c-2.01,0.07-4.03,0.02-6.05,0.02
		C72.59,262.95,72.59,262.99,72.59,263.03z"/>
	<path d="M340.57,72.49c-2.86-0.28-5.6,0.24-8.29,1.16c-1.27,0.44-2.55,0.73-3.53-0.71c-1.35-1.98-0.82-3.43,1.56-3.69
		c2.79-0.3,5.64-0.22,8.4-0.71c2.87-0.52,4.57,1.3,6.58,2.6c0.29,0.19,0.55,0.46,0.37,0.87c-0.16,0.38-0.53,0.45-0.87,0.46
		C343.37,72.51,341.97,72.49,340.57,72.49z"/>
</g>
</svg>
