<?xml version="1.0" encoding="utf-8"?>
<!-- Generator: Adobe Illustrator 27.8.1, SVG Export Plug-In . SVG Version: 6.00 Build 0)  -->
<svg version="1.1" id="Layer_1" xmlns="http://www.w3.org/2000/svg" xmlns:xlink="http://www.w3.org/1999/xlink" x="0px" y="0px"
	 viewBox="0 0 360 360" style="enable-background:new 0 0 360 360;" xml:space="preserve">
<style type="text/css">
	.st0{fill:#AD1A27;}
	.st1{fill:#BE1E2D;}
	.st2{fill:#C67715;}
	.st3{clip-path:url(#SVGID_00000031924240127837192860000016287657211226276519_);}
	.st4{opacity:0.55;}
	.st5{fill:none;stroke:#F7D78B;stroke-width:2;stroke-miterlimit:10;}
	.st6{fill:none;stroke:#FFEDB1;stroke-width:5;stroke-linejoin:round;stroke-miterlimit:10;}
	.st7{clip-path:url(#SVGID_00000092437295670475126330000002043227006014496447_);}
	.st8{fill:#754C29;}
	.st9{fill:#2E3192;}
	.st10{clip-path:url(#SVGID_00000150082232720995832220000005039656174108774796_);}
</style>
<path class="st0" d="M33.57,182.51c5.73,54.29,14.18,74.15,28.77,91.02c15.9,18.39,40.57,25.53,64.24,35.27
	c15.59,6.42,30.27,11.92,57.16,11.92h2c26.89,0,41.56-5.5,57.16-11.92c23.67-9.75,50.65-15.57,65.79-34.59
	c14.97-18.8,21.23-40.62,26.87-93.63"/>
<g>
	<g>
		<path class="st1" d="M184.74,126.61c78.96,0,142.98,24.17,142.98,53.98c0,29.81-64.01,53.98-142.98,53.98
			S41.76,210.41,41.76,180.6C41.76,150.78,105.78,126.61,184.74,126.61 M184.74,118.61c-39.13,0-76.04,5.8-103.93,16.33
			c-30.34,11.46-47.05,27.67-47.05,45.66s16.71,34.2,47.05,45.66c27.89,10.53,64.79,16.33,103.93,16.33s76.04-5.8,103.93-16.33
			c30.34-11.46,47.05-27.67,47.05-45.66s-16.71-34.2-47.05-45.66C260.78,124.41,223.87,118.61,184.74,118.61L184.74,118.61z"/>
	</g>
	<g>
		<ellipse class="st2" cx="184.87" cy="180.63" rx="142.98" ry="53.98"/>
	</g>
	<g>
		<defs>
			<ellipse id="SVGID_1_" cx="184.87" cy="180.63" rx="142.98" ry="53.98"/>
		</defs>
		<clipPath id="SVGID_00000060012726088880305920000007489837354209102256_">
			<use xlink:href="#SVGID_1_"  style="overflow:visible;"/>
		</clipPath>
		<g style="clip-path:url(#SVGID_00000060012726088880305920000007489837354209102256_);">
			<g class="st4">
				<path class="st5" d="M65.19,141.42c2.52,8.65,19.99,16.41,42.21,18.74c13.86,1.45,28.59,0.92,42.82,0.14
					c14.23-0.78,28.58-1.79,42.9-1.27c14.31,0.53,28.95,2.86,36.79,7.41c5.27,3.05,7.01,6.79,11.7,9.98
					c6.15,4.18,17.49,7.22,29.98,8.02c12.49,0.81,25.86-0.64,35.33-3.81"/>
				<path class="st5" d="M85.94,197.59c11.75,0.06,23.68-0.3,34.71-1.83c11.02-1.53,21.13-4.35,26.57-8.28
					c6.29-4.55,5.75-9.94,8.3-14.98c3.09-6.1,11.27-11.95,24.31-15.73c13.05-3.78,31.19-5.21,46.54-2.98
					c7.52,1.09,14.15,2.99,21.86,3.86c12.93,1.47,28.02-0.38,36.22-4.43"/>
				<path class="st5" d="M147.9,205.56c8.95,4.14,21.98,7,35.94,7.88s28.74-0.22,40.76-3.05c7.94-1.86,14.86-4.56,17.73-7.92
					c2.87-3.36,1.01-7.41-5.98-9.75c-3.7-1.24-8.83-1.95-13.71-1.63c-4.88,0.32-9.29,1.78-10.1,3.63c-0.98,2.22,3.05,4.32,7.47,5.83
					c18.5,6.36,46.35,7.55,70.7,5.38c24.35-2.17,46.1-7.22,67.36-12.19"/>
				<path class="st5" d="M95.15,233.8c0.86,0.33,1.72,0.67,2.57,1c5.8-4.49,16.78-7.68,28.02-10.31s23.25-4.89,32.99-8.27
					c9.02-3.13,15.83-7.16,19.51-11.57c2.37-2.83,3.43-5.96,0.71-8.75c-3.47-3.55-12.46-5.93-21.71-7.4
					c-9.25-1.47-19.21-2.25-28.26-3.88c-16.77-3.02-29.58-9-33.9-15.82c-4.32-6.82-0.05-14.34,11.28-19.9"/>
				<path class="st5" d="M162.43,124.98c-12.4,10.05-13.14,22.06-1.99,32.32c3.39,3.12,8.01,6.16,15.1,8.2
					c10.74,3.1,25.44,3.43,38.82,2.7c19.08-1.05,37.07-3.97,55.93-5.48c18.86-1.51,40.14-1.38,55.42,3.06
					c6.27,1.82,11.18,4.27,17.74,5.94c6.56,1.67,15.98,2.37,22.1,0.48"/>
				<path class="st5" d="M243.79,124.36c-7.62,2.96-12.04,7.06-12.04,11.19c0,4.15,5.23,8.57,15.28,10.26
					c7.95,1.34,17.24,0.75,25.5-0.28c24.06-2.99,44.79-9.62,56.57-18.09"/>
				<path class="st5" d="M160.68,246.24c1.09-7.69,5.29-15.32,12.4-22.55c3.96-4.02,10-8.33,20.87-9.59
					c6.64-0.77,14.08-0.24,20.52-1.23c7.22-1.11,11.59-3.88,14.71-6.58c5.68-4.91,8.9-10.65,3.28-15.57
					c-7.17-6.27-26.73-9.32-44.83-9.46s-35.71,1.97-53.59,3.03s-37.62,0.92-52.2-3.13c-11.07-3.08-17.47-7.93-26.09-11.96
					c-8.62-4.04-22.06-7.54-35.3-6.16"/>
				<path class="st5" d="M37.88,216.35c-0.44,0.31-1.87,0.28-2.23-0.04c4.52-5.92,20.15-10.37,36.48-10.37
					c7.8,0,15.37,0.9,22.8,1.79c5.95,0.71,12.7,1.71,14.59,3.96c1.83,2.17-1.86,4.42-5.62,6.2c-14.92,7.07-34.01,12.89-55.48,16.9"
					/>
				<path class="st5" d="M247.89,243.05c-0.99-20.99,27.94-41.85,74.2-53.5c4.1-1.03,8.45-2.01,13.3-2.33
					c4.85-0.32,10.35,0.15,13.42,1.6"/>
				<path class="st5" d="M139.61,170.65c-1.55-5.34,2.71-10.88,11.58-15.08s22.25-7,36.38-7.61c7.51-0.33,15.34-0.07,22.42-1.07
					c8.94-1.26,15.26-4.34,19.43-7.58c12.81-9.95,8.25-22.73-11.07-31.05"/>
				<path class="st5" d="M74.89,133.63c10.36-0.22,21.65-0.34,30.06,1.95c8.02,2.19,11.46,6.16,11.29,9.9s-3.4,7.34-6.35,10.91
					c-2.95,3.57-5.69,7.26-4.82,10.99c0.86,3.72,6.06,7.52,15.11,9.03c9.62,1.61,21.37,0.38,30.86,2.09
					c6.8,1.23,11.47,3.99,11.55,6.84c0.11,3.95-8.2,7.44-18.04,8.8c-9.84,1.36-20.8,0.94-30.95-0.04
					c-20.75-2.01-39.85-6.39-54.18-12.4c-4.69-1.97-9.36-4.23-16.14-4.9c-6.63-0.66-13.66,0.4-19.27,1.89
					c-17.8,4.69-25.8,14.06-18.63,21.79"/>
				<path class="st5" d="M27.21,204.94c-1.8-0.12-3.59-0.23-5.39-0.35c5.74-7.52,21.03-13.91,40.27-16.83
					c13.48-2.04,30.4-2.2,41.09,1.52c13.17,4.57,12.51,13.26,27.05,17.19c9.61,2.6,22.71,2.2,34.24,1.21s23.31-2.46,34.92-1.63
					c18.78,1.35,30.9,8.19,38.93,14.74c8.04,6.55,15,13.81,30.58,17.99c14.41,3.87,34.94,4.17,50.1,0.73"/>
				<path class="st5" d="M218.97,246.74c-10.88-2.87-15.62-8.05-17.8-13c-4.47-10.19-0.66-20.87,10.8-30.25
					c4.21-3.44,9.56-6.93,9.13-10.72c-0.76-6.8-19.32-11.46-24.06-18.02c-3.5-4.85,1.26-10.15,9.6-14.07s19.86-6.68,31.52-9.1
					c34.63-7.22,74.35-12.81,96.7-25.13"/>
				<path class="st5" d="M322.07,227.08c-6.42,0.07-12.41-1.41-16.35-3.33s-6.17-4.24-8.35-6.52c-7.6-7.97-15.28-16.08-16.38-24.54
					c-1.11-8.46,5.32-17.47,22.02-23.12c7.85-2.66,17.56-4.46,25.3-7.16c15.33-5.35,21.19-14.23,14.28-21.67"/>
				<path class="st5" d="M116.29,132.29c-0.3,6.59,16.61,12.52,33.98,11.93c11.28-0.38,21.03-3.01,31.65-4.5
					c10.62-1.48,24.85-1.36,30.66,2.31c5.45,3.45,0.12,7.97-7.41,10.8c-7.53,2.83-17.24,4.86-23.34,8.15
					c-6.09,3.27-7.84,7.64-4.59,11.45c2.32,2.72,7.06,5.5,4.63,8.21c-2.6,2.9-11.84,3.94-19.79,4.53
					c-7.95,0.59-17.19,1.51-20.2,4.35c-2.89,2.73,1.67,5.75,6.87,7.93c3.84,1.61,8.25,3.09,13.56,3.89s11.67,0.86,16.55-0.27
					c5.63-1.31,8.2-3.83,11.04-6.08c2.84-2.25,7.15-4.62,13.69-4.98c7.38-0.4,14.18,2.24,14.87,5.04c0.69,2.8-3.34,5.51-8.64,7.49
					c-5.3,1.98-11.84,3.4-17.86,5.07c-6.02,1.66-11.74,3.68-14.31,6.33c-5.35,5.52,6.41,11.98,21.58,13.3
					c15.17,1.33,31.31-1.58,41.47-6.04c10.16-4.46,15.29-10.23,18.85-15.95c3.55-5.73,5.78-11.6,11.22-17.11
					c2.98-3.02,7.55-6.14,15.46-7.34c8.48-1.29,18.5,0.1,25.06,2.51c6.55,2.41,10.37,5.65,13.97,8.83
					c8.3,7.32,16.26,14.69,23.85,22.12"/>
				<path class="st5" d="M110.18,242.21c8.74-0.16,16.12-2.75,19.75-5.76c3.63-3.01,4.23-6.39,4.78-9.69
					c0.37-2.22,0.72-4.5-0.99-6.62c-1.71-2.13-5.94-4.11-11.71-4.57c-6.28-0.49-12.58,0.88-18.99,0.83
					c-6.73-0.05-12.81-1.71-16.66-3.79c-3.85-2.09-5.84-4.57-7.68-7.01c-2.14-2.84-4.17-5.76-3.61-8.71
					c0.55-2.95,4.14-5.97,10.92-7.45c8.59-1.88,20.07-0.74,27.45,1.77c7.38,2.51,11.47,6.09,14.79,9.62
					c2.62,2.79,4.98,5.69,9.72,8.05c4.74,2.36,12.55,4.11,20.26,3.56c10.45-0.75,15.85-5.08,18.97-8.92
					c5.11-6.28,8.54-12.95,5.47-19.42c-3.07-6.47-13.72-12.73-29.95-15.1c-19.77-2.89-44.08,0.25-62.09-3.98
					c-13.61-3.2-18.98-9.54-23.56-15.34c-4.58-5.8-10.55-12.13-24.63-15.03"/>
				<path class="st5" d="M29.57,190.7c5.24-7.86,13.97-15.39,25.71-22.18c4.51-2.6,10.78-5.36,19.02-5.28
					c8.08,0.08,14.31,2.89,22.28,3.38c6,0.37,12.11-0.68,16.59-2.23c4.48-1.55,7.61-3.56,10.67-5.54c4.5-2.91,9-5.82,13.5-8.74
					c4.04-2.61,8.2-5.39,8.2-8.42c0-3.03-5.91-6.28-13.93-6.23c-6.2,0.03-12.71,1.92-18.01,0.7c-3.07-0.7-4.17-2.25-3.57-3.58
					c0.61-1.34,2.58-2.52,4.52-3.66c5.22-3.08,10.43-6.16,15.65-9.24c5.68-3.35,13.11-7.09,23.65-7.12"/>
				<path class="st5" d="M335.94,139.37c-8.49-0.91-17.27,1.1-23.47,3.47c-18.23,6.98-24.42,18.07-15.21,27.24
					c3.5,3.48,8.96,6.65,12.06,10.18c4.85,5.53,3.41,11.81-3.91,16.94c-5.85,4.11-15.29,7.55-18.46,12.05
					c-2.89,4.1-0.1,8.46,3.66,12.46c3.76,4,8.54,7.93,9.75,12.15c0.41,1.44,0.36,2.97-1.43,4.26c-1.8,1.28-5.76,2.23-9.48,1.87"/>
				<path class="st5" d="M241.32,186.76c-3.04-2.28,0.37-5.12,5.47-6.79c5.11-1.67,11.64-2.56,17.38-3.89
					c7.58-1.76,14.12-4.59,14.75-7.94s-6.75-6.93-15.6-6.61c-6.32,0.22-11.44,2.2-17.75,2.48c-7.96,0.35-15.34-2.35-16.47-5.35
					c-1.14-3,2.78-6.01,8.39-8.17c5.61-2.16,12.79-3.63,19.81-5.09c6.76-1.41,14.31-3.33,14.7-6.24c0.31-2.24-4.19-4.29-9.7-5.13
					s-11.77-0.64-17.51-0.07s-11.18,1.51-16.85,2.17c-9.88,1.15-21.62,1.3-29.53-1.21c-5.74-1.82-8.36-4.75-8.6-7.59
					c-0.24-2.83,1.62-5.62,3.46-8.37"/>
				<path class="st5" d="M140.42,239.63c8.25-2.64,1.58-8.34,8.45-11.5c3.59-1.65,9.76-2.05,15.4-2.17
					c5.64-0.11,11.62-0.08,16.45-1.18c8.02-1.83,9.56-6.1,7.08-9.52c-2.48-3.41-7.95-6.41-11.01-9.76
					c-3.06-3.35-3.08-7.53,3.86-9.91c6.92-2.37,17.54-1.99,26.76-1.44c7.11,0.42,14.41,0.88,20.56,2.29c6.15,1.41,10.96,4,10.08,6.7
					c-0.66,2.03-4.26,3.71-7.19,5.42c-2.93,1.72-5.36,3.85-3.4,5.75c2.05,1.99,8.03,2.93,13.5,3.49s11.5,1.05,15.09,2.7
					c3.25,1.49,3.67,3.65,2.34,5.51c-1.33,1.87-4.17,3.52-6.98,5.14c-11.34,6.55-22.68,13.1-34.02,19.65"/>
			</g>
			<g>
				<path class="st6" d="M307.01,209.89l1.18,0.97c-0.06,0.03-0.12,0.06-0.18,0.09c0.08,0.03,0.18,0.05,0.26,0.08
					c0.16,0.05,0.3,0.1,0.43,0.16c0.35,0.05,0.69,0.11,1.02,0.19c4.91-2.68,9.22-5.54,12.83-8.53c-0.08-0.03-0.16-0.05-0.23-0.08
					c-0.02,0-0.04-0.01-0.05-0.01c-0.56-0.09-1.03-0.23-1.41-0.41c-0.03,0.03-0.06,0.05-0.09,0.08l0,0v-0.08h-4.65l-1.89,0.65
					l-0.69,0.52c-0.69,0.52-2.07,1.43-2.07,1.43l-2.41,0.78l-1.76,1.17c-1.76,1.17-0.99,0.39-0.3,1.69
					C307.7,209.89,307.01,209.89,307.01,209.89z"/>
				<path class="st6" d="M50.42,158.15c0,0-2.4,2.6-2.75,3.12l-0.35,0.52v2.99l1.55,2.08v3.12l1.55,1.17v2.6h1.38v0.65l1.73,0.78
					l3.1-3.12v4.42l5.16,1.17h2.41l2.77,2.99l2.75,1.04l7.92,0.52h2.76v0.39h2.07l4.47,2.08l3.44,1.17l5.17,0.78h1.38l1.38,0.65
					l3.1,0.91l2.07,0.65v0.52l-2.07,4.81l-0.35,0.78l-1.38,1.69l-2.06,2.21l3.79,1.17h2.07v0.65l2.75,1.04c0,0,3.45,2.73,3.79,3.25
					c0.35,0.52,4.14,2.73,4.14,2.73s-1.38,0.52,0,1.04c1.37,0.52,1.72,1.04,1.72,1.04l1.72,2.08v1.82c0.35,0.78,0,2.47,0,2.86
					c0,0.39-0.04,2.21,0.16,2.86c0.19,0.65,0,2.34,0,2.34h1.22v2.21c0,0,1.72,0.26,1.72,1.04v2.21l1.73,1.56v0.78l2.75,0.78
					l0.1,0.03c-0.05-0.01-0.1-0.02-0.15-0.03c0.16,0.06,0.23,0.14,0.25,0.23c0.14,0.04,0.24,0.09,0.31,0.15
					c0.5,0.04,0.95,0.1,1.35,0.19c0.22,0.01,0.42,0.03,0.62,0.05c-0.01-0.01-0.03-0.02-0.03-0.04c-0.03-0.05-0.02-0.1,0.02-0.16
					c0.02-0.02,0.04-0.03,0.05-0.05c0.07-0.07,0.09-0.15,0.16-0.22c0.09-0.1,0.22-0.18,0.37-0.27c0.13-0.07,0.26-0.15,0.45-0.21
					c0.01,0,0.02,0,0.03-0.01c-0.04-0.11,0.09-0.31,0.6-0.7c1.38-1.04,1.38-1.04,1.38-1.04s1.38-0.52,1.72-1.56
					c0.34-1.04-1.38-1.04,0-1.95c1.37-0.91,2.06-1.56,2.06-1.56s-2.4,0,0-0.39c2.42-0.39,8.27-1.82,8.27-1.82s2.75-1.69,3.09-2.21
					c0.35-0.52,0-1.82,0-1.82l4.14-2.21l6.2-0.39c0,0,1.38-0.52,2.41-0.78c1.04-0.26,3.79-1.3,3.79-1.3s2.76-0.65,3.79-1.43
					c1.04-0.78,2.76-2.47,3.1-3.12c0.35-0.65,0-1.43,0-1.43s-0.04,0.13,0.16-0.65c0.19-0.78-0.88-1.95,0-2.34
					c0.88-0.39,2.26-1.17,2.95-1.56l0.68-0.39v-2.08c0,0,2.42-0.91,0-1.3l-2.41-0.39l-1.38-0.26c0,0-1.03-0.13-2.06-0.39
					c-1.04-0.26,1.03,0.13-1.04-0.26c-2.06-0.39-3.79-0.65-3.79-0.65l-5.85-1.37h-4.47v-1.36l-0.69-0.91l-1.04-0.78l-12.39-3.38
					c0,0-2.07,0.13-3.1-0.13c-1.04-0.26-11.71-1.69-11.71-1.69l-2.42-0.13h-3.44l-1.73-0.39l-2.06,0.26l-2.74,0.52v0.39l-1.76,0
					l-3.79-0.52l-2.41-1.04l-3.11-1.04l-1.72-0.91l-1.38-0.26l-1.03-0.52l-5.85-1.17l2.07-1.43l-1.04-1.43c0,0-2.06-0.13-3.1-0.26
					c-1.03-0.13-1.03-0.13-1.03-0.13h-3.1l-1.38-0.13h-4.13l-0.69-1.69l0.69-0.78l1.03-1.04l1.72-0.39l5.85-0.65
					c0,0,0.69-0.13,3.1-0.13h4.82l2.06,0.91c0,0,1.73,0.26,3.1,0.65c1.38,0.39,1.38,0.39,2.76,0.65c1.38,0.26,3.1,0.52,3.1,0.52
					l-0.69-1.3l1.38-1.82l-0.34-2.08l4.84-0.52v-0.65l2.39-0.52l2.41-0.91l3.45-0.91l0.34-0.78v-1.04l0.35-2.6l2.07-0.39l4.47-0.26
					h1.72l1.72-0.13l1.38-0.13l1.72-0.13l4.47-0.26l1.38-0.39l1.83-0.53l0.84-0.25l-2.06-0.19l-2.32-0.1h-3.11l-1.8-0.78l2.58-1.85
					h1.55l2.12-0.64l1.75-0.53l1.29,1.66l2.84,0.39c1.55,0,4.39,0.29,4.39,0.29h1.29l3.61-0.68v-0.49l-1.03-1.85l-0.26-0.88
					l-5.94-2.44l-2.07-1.27l-1.8-1.17l-0.77-0.59l-0.77-0.78l-3.36-0.88h-4.65l-3.1-0.49c0,0,1.04,1.07-1.03,0
					c-2.07-1.07-3.62-1.76-3.62-1.76h-0.77l-1.04-0.49h-2.58v0.58c0,0-0.52,0.97-0.52,1.27c0,0.29-0.26,0.78-0.26,0.78
					s0,1.95-0.77,2.34c-0.77,0.39-1.03,0.88-1.03,0.88l-2.07,1.46l-2.84,0.29l-1.29-0.19l-1.1-0.19l-4.33-0.78l-2.84-1.56
					l-1.56-0.79l-0.51-0.49l-1.03-0.49l-1.04-0.68v-0.88l1.81-1.07l1.29,0.68l1.29-1.17l1.55-0.49l0.26-0.68h8.01l1.03-0.49v-0.49
					l1.29-0.97l0.77-0.88c0,0,0.26,0,2.32-0.59l2.06-0.58l1.04-0.49h2.59l0.26,0.49v0.49l1.8,2.05v0.97l-0.26,0.49l3.87,0.39h1.8
					c0,0,2.32-0.1,3.62-0.1h4.13l2.33-1.37l-0.26-0.88l-2.07-1.17v-0.78l-2.58-0.59c0,0,0.52-0.39-0.51-1.07
					c-1.04-0.68-4.65-2.24-4.65-2.24h-1.03l-2.58-0.88c0,0-1.29,0.78-3.87,0l-2.59-0.78c0,0-0.77,0.59-1.8,0
					c-1.04-0.58-3.1-0.88-3.1-0.88h-1.03l-0.52,0.49l-2.33,0.97v0.49l-1.29,1.46l-1.36,0.78v1.07l-1.49,0.19l-1.8,0.19l-0.26-0.59
					l-1.29-0.68l-0.26-0.68l-7.75-0.68l-0.77,0.49l-0.52,0.97l-1.03,1.27l-1.55,1.17l-4.65,0.19l-1.29-0.1l1.29-0.97l0.26-0.49
					l-1.22-0.74c-0.06-0.02-0.12-0.03-0.19-0.04h-0.03c0,0,0.01,0,0.01,0c-0.12-0.03-0.23-0.06-0.36-0.08
					c-0.05-0.01-0.19-0.03-0.22-0.03c-0.11-0.01-0.23-0.02-0.35-0.03c-0.04,0-0.08-0.01-0.13-0.01c-0.01,0-0.01,0-0.04,0
					c-0.12,0-0.24-0.01-0.36-0.01c-0.24,0-0.49,0-0.73,0.01c-0.05,0-0.11,0-0.16,0.01c-0.01,0-0.01,0-0.02,0
					c-0.12,0.01-0.25,0.01-0.37,0.02c-0.01,0-0.03,0-0.04,0c-15.04,4.86-27.44,10.85-36.27,17.62c-0.11,0.16-0.26,0.32-0.42,0.49
					c-0.12,0.12-0.2,0.24-0.28,0.36c0,0.03-0.01,0.06-0.01,0.09c0,0.08,0,0.16,0.02,0.24c0.01,0.04,0.02,0.09,0.03,0.13
					c0.01,0.02,0.02,0.03,0.02,0.04c0,0.01,0,0.02,0.01,0.03c0.01,0.03,0.03,0.05,0.05,0.07c0.03,0.02,0.05,0.04,0.08,0.06
					c0.03,0.01,0.07,0.02,0.1,0.03c0.09,0.04,0.15,0.08,0.19,0.13c0.01,0.01,0.02,0.03,0.03,0.04c0,0,0,0,0,0
					c0.04,0.01,0.07,0.03,0.11,0.04c0.18,0.05,0.37,0.08,0.57,0.12c0.16,0.03,0.28,0.08,0.37,0.14c0.03,0.03,0.07,0.06,0.1,0.09"/>
				<path class="st6" d="M159.39,125.33c0.32-0.12,0.58-0.25,0.92-0.4c0.71-0.33,1.71-0.33,2.75-0.48c0.58-0.09,1.16-0.15,1.76-0.21
					c0.03,0,0.05-0.01,0.08-0.01c5.71-0.26,11.52-0.39,17.41-0.39c12.71,0,25.03,0.63,36.79,1.78c0.1,0.09,0.22,0.17,0.35,0.25
					c-0.19,0.17-0.34,0.36-0.41,0.55c-0.02,0-0.05,0-0.07-0.01l-1.28,0.48l-1.81,0.59l-1.55,0.29l-1.55,0.59l-2.06,1.27v1.27
					l-1.29,0.68l-2.58,0.59l0,0.29l-1.56,0.58v2.88l-1.55,0.54v0.59l-3.87,0.19v1.07l-1.81,0.68c0,0-1.54,0.19-2.32,0.29
					c-0.77,0.1-2.58,0.19-2.58,0.19l-1.55,0.19l-1.8,0.39l-1.29,0.78c0,0-2.59,0.68-3.35,0.88c-0.77,0.19-4.91,0.97-4.91,0.97
					l-1.03,0.1c-1.04,0.1-3.06,0.58-3.06,0.58l-1.84,0.29c0,0-3.36,1.56-3.88,1.85c-0.51,0.29-2.06,1.17-2.06,1.17h-2.85v-0.68
					h-1.54v-0.97l-2.59-0.59c0,0,0.52-0.59,0-1.07c-0.51-0.49-1.8-1.07-1.8-1.07v-2.34l-1.29-0.49v-1.95l-0.52-0.78l0.52-0.78
					l1.29-0.78V134l-1.55-1.56l-0.52-0.59c0,0-1.29-0.39-2.07-0.58c-0.78-0.19-1.55,0-1.55,0h-7.23l-2.07-0.59v-0.88l1.29-0.88
					l1.8-0.97l3.35-0.59l7.22-1.75L159.39,125.33z"/>
				<path class="st6" d="M329.72,178.95l-1.72-0.78l-2.07-0.78h-3.44l1.38-1.3l2.4-0.26l4.82,0.39l2.11,0.51
					c0.01,0.07,0.02,0.14,0.03,0.22c0.57-0.15,1.25-0.26,2.05-0.3c-2.58-15.58-22.39-29.43-52.3-38.85
					c-0.28,0.02-0.57,0.03-0.88,0.03c-0.18,0-0.34,0-0.51-0.01c-0.67,0.19-1.45,0.3-2.3,0.31l-1.22,0.26h-2.07l-1.37,0.39
					c-1.38,0.39-2.07,0-2.07,0l-1.37,0l-2.41,0.78l-2.76,1.43l-1.72,1.4h-2.41l-2.07,1.46c0,0-1.03,0.13-2.07,0.52
					c-1.04,0.39-2.07,2.08-2.07,2.08h-1.72l-1.2,0.78v0.62l-1.21,0.69v0.91h2.41l2.07,0.78l2.76,0.65h1.72l2.06-0.65h5.51l1.73-0.52
					l0.69-0.91l2.06-1.56v-1.04l1.04-0.88h1.72l1.95-1.46l2.18,1.46v1.53l0.69,1.01l0.69,1.07l-0.69,0.78v0.52h-2.87l-1.6,0.91
					l-2.76,0.91l-4.82,0.39h-4.13l-4.82-0.13h-2.07l-2.07,0.78c0,0-1.03,0.39-2.41,0.78c-1.38,0.39-2.41,0.65-2.41,0.65l-1.37,0.65
					l-1.39,0.78h-1.37l-2.42,1.17l-3.78,0.39l-3.11,0.52l-2.2,0.26l1.86,0.65l3.45,0.39l1.37,1.04l2.41,0.65l-0.68,1.04l-2.76,0.26
					c-2.76,0.26-3.79,0.13-3.79,0.13l-1.86-0.13c-1.85-0.13-2.62-0.39-2.62-0.39l-1.38,0.13l-1.72,1.3l-1.55,0.26v0.52l0.51,1.69
					l-0.51,0.52c-0.52,0.52,2.58,0.91,2.58,0.91l4.69,1.3v0.52l-1.93,0.91l-0.35,0.65l-4.12,2.21l-2.67,0.91l-3.52,1.17l-4.14,0.91
					c0,0-1.72,1.17-3.79,1.56c-2.07,0.39,0,1.04,0,1.04v3.92l2.76,1.8v0.65l1.72,0.65v0.65l3.45,2.34v0.65l3.52,0.91l1.63,0.39h3.45
					l2.07,0.13l1.93,0.13c1.94,0.13,2.54,0.13,3.57,0.26c1.03,0.13,5.51,0.13,5.51,0.13h5.5l2.42,0.39l2.76,1.56l0.34,0.52
					l1.72,1.56l2.76,2.34v2.08c0,1.04-0.69,1.17-0.69,1.17v0.91l0.69,2.86l1.38,1.82l0.68,2.21l0.35,1.56l1.03,1.56l1.38,1.69
					l0.35,0.78v1.82l2.07,2.08l5.85,0.65l3.78-0.78l4.82-0.91l2.06-0.65c0,0,3.1-0.78,4.47-1.43c1.38-0.65,3.1-0.91,3.1-0.91
					l0.35-0.65l2.06-2.08l0.35-0.78l1.03-1.04l2.24-0.78l1.56-1.3l1.37-0.78l1.38-0.91c0,0,0-0.91,0.68-1.56
					c0.69-0.65,0.35-1.82,0.35-1.82v-0.65l1.38-1.3l0.69-1.3l1.73-1.43l0.68-1.43l2.07-0.65l1.38-0.78l2.41-1.69l2.41-1.04
					l1.38-0.52c0,0,2.76-1.3,3.79-2.08c1.03-0.78,1.73,0,1.73,0v-0.65l-1.38-0.65l-1.04-0.91h-6.54l-4.82-1.3l-4.82-2.08l-2.41-1.41
					l-0.68-0.37l-0.35-0.55l1.03-1.74v-1.51c0-0.52-0.34-0.78-0.34-0.78v-1.43l2.07-0.52l2.06,1.17c0,0,1.04,1.43,1.39,1.82
					c0.34,0.39,1.71,1.25,1.71,1.25h1.04l0.34,2.66l4.47,2.33l4.47-0.78h7.23l1.72-0.65l3.45-1.27l0.34-1.2l0-0.66l0.69-0.44
					L329.72,178.95z M307.01,164.39h-4.14v0.65h-3.78l-4.82,0l-2.06,0.39c-2.07,0.39-1.38,1.17-1.38,1.17l0,0v0.91l3.1,1.43
					l0.69,0.78v1.56l-3.44,0.65h-3.45l-1.73-0.65l-2.4-0.39l-1.73-0.13l-1.72-0.13c-1.73-0.13-4.47-0.13-4.47-0.13l-1.38,0.13
					l-2.06,0.39l-2.76,0.39v0.52h-4.14l-2.41-0.52l-3.45-1.04v-0.52h-2.06l-2.76-1.04h-1.72l-1.38-0.65l-4.82-0.65h-4.82l1.72-1.82
					l2.42-0.65l2.06-0.91l2.42-1.17l1.71-0.39l1.73-0.52l2.41-0.26l2.07,0.65l2.41,0.78l1.72,0.52l1.38,0.52l2.07,0.65l0.35,0.78
					l-0.69,0.82l-0.68,0.87l1.03,0.65l2.06-0.13l1.73-0.26l1.72-1.13h1.03l0.35-0.82l-1.03-0.52l-1.04-0.65l-1.03-0.78l-0.69-0.39
					c-0.69-0.39-2.41-1.3-2.41-1.3l1.12,0.03l3.01,0.09l1.39,0.26h2.23v0.65l2.81,0.91c0,0,1.84,1.17,2.87,1.43
					c1.03,0.26,0.69,1.08,0.69,1.08h1.38l2.75,0.74l-0.34-0.74l1.03-0.69l0.69-0.65c0.68-0.65,0-0.91,0-0.91v-0.91l0.68-0.52
					l4.47-1.69c0,0,2.07-0.13,3.11,0c1.03,0.13,1.03,0.52,1.03,0.52h1.37l0.35,0.65h5.86l2.07,0.78h1.73V164.39z"/>
				<path class="st6" d="M127.64,230.91"/>
			</g>
		</g>
	</g>
	<g>
		<defs>
			
				<ellipse id="SVGID_00000015323098709435029310000010712584119146275481_" transform="matrix(0.7492 -0.6624 0.6624 0.7492 5.2333 214.1011)" cx="285.31" cy="100.14" rx="91.9" ry="17.67"/>
		</defs>
		<clipPath id="SVGID_00000169552994350517022700000013918577778114259605_">
			<use xlink:href="#SVGID_00000015323098709435029310000010712584119146275481_"  style="overflow:visible;"/>
		</clipPath>
		<g style="clip-path:url(#SVGID_00000169552994350517022700000013918577778114259605_);">
			<path class="st8" d="M337.78,51.89l1.63,1.85c1.62,1.84,1.42,4.66-0.45,6.25L167.9,205.57c-0.7,0.6-1.76,0.52-2.37-0.17l0,0
				c-0.61-0.69-0.55-1.75,0.13-2.37L331.52,51.56C333.34,49.9,336.15,50.05,337.78,51.89z"/>
			<path class="st9" d="M307.97,75.4l4.39,4.97c0.63,0.71,0.55,1.79-0.17,2.41l-5.59,4.76c-0.7,0.6-1.76,0.52-2.37-0.17L300,82.6
				c-0.61-0.69-0.55-1.75,0.13-2.37l5.42-4.95C306.25,74.63,307.34,74.69,307.97,75.4z"/>
		</g>
	</g>
	<g>
		<defs>
			
				<ellipse id="SVGID_00000028298467782942178070000001813712427231728034_" transform="matrix(0.6052 -0.7961 0.7961 0.6052 38.6651 239.1615)" cx="260.44" cy="80.6" rx="91.9" ry="17.67"/>
		</defs>
		<clipPath id="SVGID_00000085231174211964850740000009235836016744395147_">
			<use xlink:href="#SVGID_00000028298467782942178070000001813712427231728034_"  style="overflow:visible;"/>
		</clipPath>
		<g style="clip-path:url(#SVGID_00000085231174211964850740000009235836016744395147_);">
			<path class="st8" d="M302.46,23.03l1.96,1.5c1.95,1.49,2.3,4.29,0.78,6.21L165.91,206.96c-0.57,0.72-1.62,0.86-2.35,0.3l0,0
				c-0.73-0.56-0.88-1.6-0.34-2.35L296.26,23.92C297.71,21.94,300.51,21.54,302.46,23.03z"/>
			<path class="st9" d="M277.82,51.91l5.27,4.02c0.75,0.57,0.89,1.65,0.3,2.4l-4.56,5.76c-0.57,0.72-1.62,0.86-2.35,0.3l-5.07-3.86
				c-0.73-0.56-0.88-1.6-0.34-2.35l4.35-5.92C275.99,51.49,277.07,51.34,277.82,51.91z"/>
		</g>
	</g>
</g>
</svg>
