<?xml version="1.0" encoding="utf-8"?>
<!-- Generator: Adobe Illustrator 28.3.0, SVG Export Plug-In . SVG Version: 6.00 Build 0)  -->
<svg version="1.1" xmlns="http://www.w3.org/2000/svg" xmlns:xlink="http://www.w3.org/1999/xlink" x="0px" y="0px"
	 viewBox="0 0 792 807.13" style="enable-background:new 0 0 792 807.13;" xml:space="preserve">
<style type="text/css">
	.st0{display:none;}
	.st1{display:inline;opacity:0.6;}
	.st2{opacity:0.6;}
</style>
<g id="Layer_2" class="st0">
	<g class="st1">
		<defs>
			<rect id="SVGID_1_" x="-41.93" y="-92.88" class="st2" width="986.47" height="1146.36"/>
		</defs>
		<clipPath id="SVGID_00000173866283184600164440000011175274386262173350_">
			<use xlink:href="#SVGID_1_"  style="overflow:visible;"/>
		</clipPath>
	</g>
</g>
<g id="Layer_1">
	<path d="M210.4,522.27c0.21,2.25-0.51,3.95-2.17,5.11c-1.11,0.78-2.31,1.03-3.61,0.77c-1.3-0.26-2.41-1.05-3.33-2.36
		c-0.92-1.31-1.87-3.35-2.86-6.13c-0.96-2.8-1.74-4.7-2.34-5.69c-0.43,4.9-2.45,8.61-6.06,11.13c-4.82,3.37-10.5,4.32-17.03,2.84
		c-6.53-1.48-11.71-4.95-15.52-10.39c-3.67-5.25-5-10.95-3.99-17.1c1.01-6.16,4.05-11,9.1-14.54c4.1-2.87,8.48-4.14,13.15-3.82
		c4.67,0.32,9.25,2.33,13.74,6.02c-3.14-8.6-2.28-14.6,2.57-18c3.7-2.59,8.13-3.15,13.27-1.67c5.14,1.48,9.34,4.55,12.6,9.21
		c1.51,2.16,3.12,5.34,4.83,9.52c1.74,4.16,3.04,6.86,3.92,8.1c1.45,2.07,3.28,3.57,5.5,4.5l-0.69,1.73
		c-4.95-0.79-8.8-3.15-11.55-7.08c-1.54-2.2-2.87-5.44-3.99-9.74c-1.09-4.32-2.15-7.21-3.19-8.69c-1.68-2.39-3.97-3.73-6.89-4.01
		c-2.91-0.28-5.8,0.58-8.66,2.58c-2.89,2.02-4.51,4.59-4.86,7.69c-0.35,3.1,0.63,6.31,2.95,9.62c1.26,1.8,2.65,3.33,4.15,4.57
		l-1.42,1.43c-4.98-5.5-10.16-8.73-15.56-9.66c-5.4-0.94-10.55,0.32-15.47,3.76c-4.62,3.24-7.35,7.36-8.2,12.37
		c-0.84,5.01,0.19,9.58,3.08,13.71c2.69,3.84,6.32,6.18,10.89,7.03c4.58,0.85,8.85-0.11,12.82-2.89c3.02-2.11,4.92-4.51,5.71-7.18
		c0.79-2.68,0.32-5.25-1.4-7.7c-1.35-1.93-2.99-3.14-4.9-3.6c-1.92-0.47-3.72-0.1-5.43,1.09c-1.11,0.78-1.76,1.73-1.93,2.85
		c-0.17,1.12,0.13,2.22,0.88,3.3c0.9,1.28,2.2,2.03,3.91,2.24l-0.96,1.55c-3.94,0.51-6.66-0.3-8.15-2.43
		c-1.06-1.51-1.38-3.21-0.97-5.11c0.41-1.9,1.46-3.44,3.17-4.64c3.02-2.11,6.37-2.53,10.05-1.25c3.68,1.28,7.14,4.23,10.38,8.86
		l6.19,9.89c2.36,3.38,4.41,4.46,6.15,3.24c0.46-0.32,0.73-0.73,0.82-1.23L210.4,522.27z"/>
	<path d="M308.99,346.62c10.64-15.91,24.81-26.51,42.51-31.8c17.45-5.22,34.37-4.44,50.76,2.34l-1.1,2.44
		c-14.52-4.35-30.3-3.97-47.34,1.12c-16.96,5.07-31.25,14.22-42.87,27.43L308.99,346.62z"/>
	<path d="M478.49,307.78c15.83-10.74,32.95-15.24,51.35-13.5c18.14,1.72,33.52,8.8,46.16,21.24l-1.94,1.84
		c-11.82-9.49-26.59-15.07-44.3-16.75c-17.62-1.67-34.3,1.43-50.03,9.31L478.49,307.78z"/>
	<path d="M541.12,579.61c-21.55,17.7-45.8,26.51-72.74,26.43c-26.56-0.08-49.83-8.31-69.83-24.68l2.57-2.93
		c18.43,12.2,40.6,18.33,66.53,18.41c25.8,0.08,49.59-6.65,71.39-20.18L541.12,579.61z"/>
	<path d="M530.53,463.48c-21.46,19.4-46.14,29.72-74.06,30.97c-27.52,1.22-52.04-6.15-73.56-22.13l2.52-3.16
		c19.69,11.73,42.97,17,69.83,15.8c26.73-1.19,51.06-9.33,72.97-24.42L530.53,463.48z"/>
	<path d="M246.23,374.37c23.56,20.67,37.76,45.95,42.58,75.83c4.76,29.46-0.12,56.78-14.63,81.93l-3.72-2.31
		c10.16-22.66,12.92-48.37,8.28-77.13c-4.62-28.62-16.42-53.78-35.4-75.48L246.23,374.37z"/>
	<path d="M245,297.63c-0.79,1.62-2.48,3.65-5.07,6.08c6.85,7.99,12.27,16.07,16.25,24.23c8.1,16.6,11.63,32.46,10.6,47.6
		c-1.03,15.14-5.82,24.79-14.37,28.97c-6.72,3.28-13.9,2.42-21.56-2.57c-0.89,9.3-4.67,15.57-11.33,18.82
		c-7.27,3.55-15.42,2.63-24.44-2.76c-9.02-5.39-16.47-14.11-22.35-26.15c-8.8-18.04-11.4-40.13-7.81-66.28
		c-1.73,1.67-3.79,3.09-6.18,4.25c-4.56,2.22-11.46,3.19-20.69,2.88c-7.22-0.26-12.22,0.29-14.99,1.65c-3.17,1.55-5.24,4-6.22,7.36
		c-0.97,3.36-0.65,6.71,0.97,10.04c1.35,2.78,3.46,4.67,6.31,5.68c2.85,1.01,5.6,0.88,8.23-0.41c2.41-1.17,4.03-3,4.87-5.47
		c0.84-2.47,0.72-4.82-0.36-7.04c-0.24-0.5-0.77-1.31-1.59-2.42l1.71-1.66c1.84,1.03,3.41,2.87,4.71,5.53
		c1.65,3.39,1.91,6.66,0.77,9.83c-1.14,3.17-3.34,5.55-6.62,7.14c-3.77,1.84-7.64,2.01-11.61,0.51c-3.96-1.5-7.03-4.47-9.19-8.91
		c-2.74-5.61-2.98-11.19-0.75-16.74c2.24-5.56,6.57-9.91,13.01-13.05c2.55-1.25,5.38-2.14,8.48-2.69c3.1-0.55,7.36-0.4,12.8,0.46
		c5.46,0.77,9.27,0.63,11.44-0.43c3.22-1.57,6.01-6.06,8.38-13.47l2.6,0.9c-4.93,23.71-1.05,48.55,11.62,74.52
		c5.88,12.04,12.2,20.67,18.97,25.89c6.77,5.22,12.82,6.53,18.15,3.93c3.11-1.52,5.35-4.1,6.72-7.77c1.37-3.66,1.41-6.82,0.11-9.49
		l-31.36-64.27l7.31-9.96l32.17,65.92c2.28,4.67,5.11,7.93,8.49,9.79c3.38,1.86,6.6,2.04,9.65,0.55
		c6.27-3.06,9.62-10.64,10.03-22.74c0.42-12.1-2.68-24.93-9.3-38.49c-5.31-10.89-12.44-20-21.38-27.33l-0.58,0.28
		c-8.55,4.17-16.23,5.57-23.05,4.19c-6.82-1.38-11.52-4.7-14.09-9.98c-1.38-2.83-1.61-5.55-0.69-8.17c0.92-2.61,2.83-4.63,5.71-6.03
		c4.94-2.41,10.64-2.72,17.11-0.93c6.46,1.79,13.27,5.69,20.41,11.69l0.17-0.08c1.05-0.51,2.56-2.42,4.53-5.71L245,297.63z
		 M228.79,307.5c-11.43-8.51-19.84-11.45-25.23-8.82c-2.61,1.27-3.2,3.38-1.76,6.32c1.44,2.94,4.68,4.88,9.74,5.81
		c5.06,0.93,10.25,0.1,15.58-2.5L228.79,307.5z"/>
	<path d="M544.61,219.5c3.45-7.34,9.19-12.72,17.23-16.16c3.08-1.32,5.3-2.07,6.65-2.25c3.26-7.58,2.92-15.99-1.03-25.24
		c-2.43-5.7-7.37-12.35-14.82-19.95c-7.51-7.57-12.57-13.28-15.16-17.13c-2.59-3.85-4.64-7.51-6.12-11
		c-5.56-13.01-5.49-26.59,0.19-40.75c5.68-14.16,15.6-24.26,29.74-30.3c10.39-4.44,19.88-5.28,28.47-2.53
		c8.59,2.75,14.76,8.52,18.51,17.3c4.18,9.79,3.98,19.72-0.59,29.8c-4.57,10.08-12.09,17.35-22.55,21.82
		c-5.56,2.38-10.48,2.83-14.75,1.37c-4.27-1.47-7.45-4.64-9.54-9.54c-2.63-6.17-2.36-12.25,0.83-18.25c3.19-6,9.32-11.17,18.4-15.53
		l1.12,2.61c-11.75,7.01-15.77,14.85-12.07,23.53c1.75,4.1,4.48,6.83,8.2,8.19c3.71,1.36,7.78,1.09,12.2-0.8
		c6.5-2.78,10.95-7.22,13.33-13.33s2.04-12.77-1.04-19.96c-3.65-8.55-9.6-14.44-17.84-17.68c-8.24-3.24-16.72-3-25.43,0.72
		c-9.85,4.21-16.74,11.24-20.66,21.08c-3.92,9.84-3.76,19.73,0.48,29.66c2.66,6.24,8.61,14.41,17.84,24.51
		c9.19,10.19,15.06,18.28,17.61,24.25c4.87,11.4,4.74,23.24-0.41,35.52c10.76-1.9,19.63-4.34,26.6-7.32
		c8.72-3.72,14.79-8.8,18.23-15.22c3.44-6.42,3.67-13.12,0.69-20.09c-1.86-4.36-4.57-7.32-8.14-8.89
		c-3.56-1.57-7.09-1.61-10.57-0.12c-2.28,0.97-4.02,2.71-5.21,5.2c-1.19,2.49-1.44,5.41-0.72,8.75l-2.71,1.16
		c-4.59-12.78-1.96-21.28,7.9-25.49c4.89-2.09,9.55-2.2,13.96-0.31c4.41,1.88,7.77,5.54,10.09,10.97
		c4.35,10.19,3.63,20.84-2.16,31.96c-5.79,11.11-15.63,19.64-29.51,25.56c-6.5,2.78-14.2,4.99-23.08,6.65
		c-8.92,1.75-14.22,2.98-15.9,3.7c-2.75,1.17-4.67,3.07-5.78,5.68L544.61,219.5z"/>
	<path d="M213.63,403.01c-2.47,0.65-5.74,3.29-9.81,7.93c-3.38,3.86-7.98,10.26-13.79,19.2c-5.74,8.94-10.53,15.6-14.37,19.97
		c-10.25,11.68-21.56,18.75-33.95,21.2c-12.39,2.45-22.4,0.33-30.04-6.37c-4.26-3.74-6.7-8.01-7.31-12.81
		c-0.61-4.8,0.73-9.07,4.01-12.82c2.93-3.34,6.49-5.15,10.68-5.44c4.19-0.29,7.87,0.94,11.02,3.71c2.45,2.15,3.84,4.65,4.19,7.51
		s-0.34,5.27-2.07,7.24c-1.4,1.59-3.2,2.56-5.39,2.9c-2.2,0.34-4.34-0.18-6.42-1.55l0.13-1.95c2.64,0.21,4.64-0.46,6-2.02
		c1.14-1.3,1.56-2.85,1.27-4.64c-0.29-1.8-1.18-3.35-2.66-4.65c-2-1.76-4.44-2.48-7.3-2.17c-2.86,0.31-5.3,1.61-7.32,3.91
		c-2.47,2.82-3.34,6.22-2.61,10.21c0.73,3.99,2.81,7.48,6.22,10.47c6.23,5.46,14.12,7.25,23.66,5.35c9.54-1.9,18.65-7.8,27.34-17.7
		c4.16-4.75,9.92-12.85,17.28-24.31c-18.4,8.86-31.36,9.99-38.89,3.39c-3.23-2.83-4.87-6.32-4.93-10.48
		c-0.06-4.16,1.57-8.12,4.88-11.91c1.92-2.19,4.42-4.41,7.51-6.65c3.09-2.25,8.47-5.28,16.16-9.11c7.68-3.82,13.09-6.89,16.23-9.19
		c3.13-2.3,5.68-4.57,7.63-6.79c3.87-4.41,5.59-9.09,5.16-14.02c-0.43-4.94-2.85-9.34-7.26-13.21c-4.93-4.33-10.68-6.23-17.23-5.71
		c-6.56,0.52-12,3.24-16.32,8.17c-3.22,3.67-4.85,7.49-4.88,11.47c-0.03,3.97,1.53,7.35,4.69,10.12c2.71,2.38,5.69,3.5,8.94,3.36
		c3.25-0.14,5.89-1.37,7.94-3.71c1.24-1.41,1.86-3.03,1.88-4.85c0.02-1.82-0.57-3.26-1.77-4.31c-1.68-1.47-3.76-1.69-6.25-0.66
		l-0.56-1.28l0.2-0.22c1.66-1.89,3.54-2.9,5.65-3.02c2.11-0.12,4.01,0.57,5.72,2.06c1.63,1.43,2.29,3.37,1.98,5.82
		c-0.31,2.45-1.52,4.88-3.64,7.29c-3.38,3.86-7.63,6.07-12.75,6.63c-5.12,0.56-9.55-0.8-13.3-4.08c-3.63-3.19-5.45-7.04-5.45-11.57
		c0-4.53,1.86-8.9,5.56-13.13c5.69-6.49,12.94-10.09,21.73-10.81c8.8-0.72,16.51,1.84,23.15,7.66c5.38,4.72,8.19,10.25,8.43,16.59
		c0.24,6.35-2.19,12.43-7.3,18.25c-3.48,3.97-8.18,7.49-14.09,10.57l-15.71,9.16c-9.9,5.75-15.84,9.76-17.83,12.02
		c-2.05,2.34-3.1,4.75-3.14,7.23c-0.05,2.48,0.86,4.54,2.71,6.17c1.52,1.33,3.24,2.27,5.16,2.81c1.92,0.54,4.08,0.72,6.46,0.55
		c2.38-0.17,4.99-0.68,7.82-1.51c2.83-0.83,6.74-2.34,11.74-4.52c5-2.18,7.74-3.55,8.23-4.1l5.79-6.83
		c1.56-1.78,3.02-3.37,4.38-4.77c1.36-1.4,2.75-2.72,4.17-3.97c1.42-1.25,2.89-2.36,4.4-3.33c0.74-0.47,1.99-0.58,3.75-0.35
		C210.89,401.65,212.39,402.18,213.63,403.01z"/>
	<path d="M702.01,226.2c-1.76,0.02-4.37,1.24-7.85,3.65c-2.89,2.01-7.02,5.5-12.37,10.5c-5.31,5-9.61,8.64-12.89,10.91
		c-8.76,6.08-17.48,8.9-26.13,8.48c-8.66-0.42-14.97-3.5-18.95-9.23c-2.22-3.2-3.13-6.45-2.74-9.75c0.39-3.3,1.99-5.92,4.8-7.87
		c2.5-1.74,5.18-2.35,8.02-1.85c2.84,0.5,5.08,1.94,6.72,4.3c1.27,1.84,1.79,3.74,1.54,5.7c-0.25,1.96-1.11,3.46-2.58,4.48
		c-1.2,0.83-2.55,1.17-4.07,1.03c-1.52-0.14-2.86-0.84-4.02-2.1l0.41-1.28c1.72,0.58,3.16,0.46,4.33-0.35
		c0.97-0.68,1.51-1.64,1.62-2.88c0.1-1.25-0.23-2.43-1-3.54c-1.04-1.5-2.54-2.39-4.5-2.66c-1.96-0.27-3.8,0.19-5.53,1.39
		c-2.11,1.47-3.26,3.59-3.43,6.37c-0.17,2.78,0.63,5.45,2.4,8.01c3.24,4.67,8.2,7.17,14.87,7.49c6.67,0.32,13.72-2.1,21.15-7.25
		c3.56-2.47,8.74-6.91,15.55-13.31c-13.73,2.84-22.55,1.44-26.46-4.21c-1.68-2.42-2.19-5.02-1.54-7.8c0.65-2.78,2.39-5.15,5.23-7.12
		c1.64-1.14,3.68-2.2,6.11-3.18c2.43-0.98,6.52-2.11,12.27-3.38c5.75-1.27,9.86-2.41,12.33-3.42c2.47-1.01,4.54-2.1,6.21-3.25
		c3.31-2.3,5.23-5.12,5.77-8.48c0.53-3.36-0.35-6.69-2.64-10c-2.57-3.7-6.07-5.92-10.53-6.67c-4.45-0.75-8.53,0.17-12.23,2.73
		c-2.75,1.91-4.47,4.19-5.15,6.83c-0.68,2.64-0.2,5.15,1.44,7.52c1.41,2.04,3.21,3.28,5.4,3.73c2.18,0.45,4.15,0.06,5.91-1.15
		c1.06-0.73,1.74-1.71,2.06-2.92c0.31-1.21,0.16-2.27-0.46-3.16c-0.87-1.26-2.22-1.75-4.05-1.48l-0.16-0.95l0.17-0.12
		c1.42-0.98,2.84-1.34,4.26-1.07c1.42,0.27,2.58,1.04,3.47,2.32c0.85,1.22,0.97,2.63,0.35,4.21c-0.61,1.58-1.83,3-3.63,4.25
		c-2.89,2.01-6.09,2.77-9.59,2.3c-3.5-0.48-6.23-2.12-8.18-4.93c-1.89-2.73-2.46-5.6-1.71-8.61c0.75-3.01,2.71-5.62,5.89-7.82
		c4.87-3.38,10.29-4.57,16.27-3.59c5.98,0.99,10.69,3.97,14.15,8.95c2.8,4.03,3.75,8.18,2.85,12.45c-0.89,4.27-3.53,7.91-7.89,10.94
		c-2.98,2.06-6.69,3.63-11.14,4.7l-11.98,3.49c-7.55,2.18-12.17,3.87-13.87,5.04c-1.75,1.22-2.85,2.65-3.3,4.29
		c-0.44,1.65-0.18,3.17,0.78,4.56c0.79,1.14,1.78,2.05,2.97,2.73c1.19,0.68,2.59,1.16,4.21,1.44c1.62,0.28,3.43,0.38,5.46,0.29
		c2.02-0.08,4.88-0.44,8.57-1.06c3.69-0.62,5.74-1.08,6.16-1.37l4.99-3.58c1.34-0.93,2.57-1.74,3.71-2.45
		c1.14-0.71,2.28-1.36,3.44-1.95c1.15-0.59,2.31-1.09,3.48-1.49c0.57-0.19,1.42-0.06,2.56,0.39
		C700.41,224.84,701.32,225.44,702.01,226.2z"/>
	<path d="M478.85,130.14c-3.08-0.64-8.14,0.48-15.16,3.36c-5.84,2.39-14.42,6.92-25.72,13.59c-11.23,6.7-20.16,11.41-26.79,14.12
		c-17.69,7.25-34.04,8.83-49.03,4.74c-14.99-4.09-24.86-11.92-29.6-23.49c-2.65-6.46-2.99-12.5-1.03-18.13
		c1.96-5.63,5.78-9.6,11.45-11.92c5.06-2.07,9.97-2.12,14.75-0.14c4.78,1.98,8.15,5.35,10.1,10.13c1.52,3.71,1.68,7.23,0.49,10.57
		c-1.19,3.34-3.27,5.62-6.25,6.84c-2.41,0.99-4.93,1.07-7.53,0.23c-2.61-0.84-4.68-2.58-6.22-5.22l1.22-2.07
		c2.79,1.68,5.36,2.03,7.72,1.07c1.97-0.81,3.28-2.28,3.95-4.42c0.66-2.14,0.54-4.34-0.39-6.58c-1.24-3.03-3.53-5.16-6.85-6.39
		c-3.32-1.23-6.73-1.13-10.21,0.3c-4.27,1.75-7.09,5.02-8.47,9.82c-1.38,4.8-1.01,9.78,1.11,14.95
		c3.87,9.44,11.58,15.72,23.13,18.86c11.55,3.14,24.83,1.63,39.83-4.51c7.19-2.95,17.98-8.71,32.37-17.3
		c-25.13-0.33-40.03-6.2-44.71-17.6c-2-4.89-1.9-9.64,0.31-14.25c2.21-4.61,6.18-8.09,11.91-10.44c3.31-1.36,7.29-2.43,11.92-3.21
		c4.63-0.78,12.23-1.17,22.79-1.17c10.56,0,18.2-0.41,22.92-1.22c4.72-0.82,8.76-1.92,12.13-3.3c6.68-2.74,11.14-6.94,13.38-12.62
		c2.23-5.67,1.98-11.85-0.76-18.54c-3.06-7.47-8.35-12.72-15.85-15.75c-7.51-3.03-14.99-3.01-22.46,0.05
		c-5.56,2.28-9.45,5.6-11.66,9.96c-2.22,4.36-2.34,8.94-0.38,13.72c1.68,4.11,4.35,6.98,8.01,8.61c3.65,1.63,7.25,1.72,10.79,0.27
		c2.13-0.87,3.71-2.31,4.73-4.31c1.02-2,1.16-3.9,0.41-5.71c-1.04-2.54-3.22-3.93-6.53-4.16l0.08-1.72l0.34-0.14
		c2.86-1.17,5.49-1.25,7.88-0.23c2.39,1.02,4.11,2.83,5.17,5.41c1.01,2.47,0.68,4.97-1.01,7.5c-1.69,2.53-4.36,4.54-8.01,6.04
		c-5.84,2.39-11.74,2.5-17.69,0.31c-5.95-2.19-10.08-6.12-12.41-11.79c-2.26-5.51-2.14-10.75,0.34-15.74
		c2.48-4.99,6.93-8.79,13.33-11.42c9.83-4.03,19.79-4.02,29.87,0.01c10.08,4.04,17.19,11.08,21.31,21.14
		c3.34,8.14,3.4,15.78,0.18,22.9c-3.22,7.12-9.23,12.49-18.05,16.11c-6.01,2.46-13.12,3.77-21.32,3.92l-22.33,1.47
		c-14.06,0.91-22.81,2.06-26.23,3.47c-3.54,1.45-6.02,3.53-7.43,6.24c-1.42,2.71-1.55,5.47-0.4,8.28c0.94,2.3,2.33,4.28,4.15,5.93
		c1.82,1.65,4.09,3.03,6.82,4.14c2.72,1.12,5.87,1.99,9.44,2.63c3.57,0.64,8.71,1.12,15.41,1.46c6.7,0.34,10.47,0.33,11.31-0.01
		l10.13-4.35c2.7-1.1,5.18-2.06,7.44-2.85c2.26-0.8,4.52-1.49,6.77-2.09c2.25-0.59,4.47-1.01,6.67-1.26
		c1.07-0.11,2.51,0.45,4.33,1.67C476.57,127.14,477.93,128.55,478.85,130.14z"/>
	<path d="M628.88,335c3.27,4.66,6.14,7.93,8.61,9.81c2.47,1.88,5.17,2.83,8.11,2.83c4.66,0,8.34-3.37,11.06-10.1
		c2.72-6.73,4.07-16.26,4.07-28.56c0-14.52-1.83-26.58-5.49-36.17c-3.66-9.59-7.45-14.38-11.39-14.38c-1.88,0-3.94,1.91-6.15,5.74
		c-3.82-3.99-5.74-6.43-5.74-7.32c0-1.05,0.71-2.22,2.12-3.49c1.41-1.27,2.98-1.91,4.7-1.91c5.82,0,11.61,4.92,17.38,14.76
		c5.77,9.84,9.81,23.41,12.14,40.7c0.61,4.55,1.11,7.69,1.5,9.44c0.39,1.75,1.87,5.67,4.45,11.77c2.58,6.1,5.38,10.96,8.4,14.59
		c3.02,3.63,5.81,5.45,8.36,5.45c2.11,0,3.89-1.03,5.36-3.08c1.47-2.05,2.2-4.82,2.2-8.31c0-3.49-0.49-7.51-1.46-12.06
		c-0.97-4.54-3.27-11.61-6.89-21.2c-3.68-9.59-5.97-16.53-6.89-20.83c-0.92-4.3-1.38-8.08-1.38-11.35c0-9.03,2.65-16.31,7.95-21.83
		c5.3-5.52,12.09-8.27,20.36-8.27c9.38,0,17.64,3.81,24.77,11.43c7.13,7.62,10.7,16.39,10.7,26.32c0,6.1-1.76,11.09-5.28,14.97
		c-3.52,3.88-7.88,5.82-13.1,5.82c-5.88,0-10.89-2.27-15.05-6.82c-4.16-4.54-6.24-9.92-6.24-16.13c0-3.49,0.9-6.47,2.7-8.94
		c1.8-2.47,4.06-3.7,6.78-3.7c2.55,0,4.61,0.9,6.19,2.7c1.58,1.8,2.37,4.03,2.37,6.69c0,1.05-0.05,1.91-0.17,2.58l-1.58,0.33
		c-0.95-3.55-2.87-5.32-5.77-5.32c-2.06,0-3.78,0.8-5.15,2.41c-1.37,1.61-2.05,3.6-2.05,5.99c0,3.49,1.49,6.57,4.46,9.23
		c2.97,2.66,6.32,3.99,10.04,3.99c4.39,0,8.16-1.76,11.3-5.28c3.14-3.52,4.71-8,4.71-13.43c0-7.65-2.52-14.27-7.57-19.87
		c-5.04-5.6-11.31-8.4-18.79-8.4c-6.6,0-11.85,2.07-15.76,6.19c-3.91,4.13-5.86,9.71-5.86,16.75c0,2.99,0.43,6.54,1.29,10.64
		c0.86,4.1,3.12,11.09,6.78,20.95c3.6,9.87,5.9,17.23,6.9,22.08c1,4.85,1.5,9.1,1.5,12.76c0,5.54-1.41,10.12-4.24,13.72
		c-2.83,3.6-6.29,5.4-10.39,5.4c-8.59,0-16.71-9.73-24.36-29.18c-1.5,10.14-3.71,17.45-6.65,21.91c-2.94,4.46-7.01,6.69-12.22,6.69
		c-9.09,0-17.16-5.54-24.2-16.63L628.88,335z"/>
	<path d="M641.59,500.17c-7.08,5.36-14,6.45-20.77,3.26c-4.58-2.15-7.48-5.71-8.7-10.66c-1.22-4.95-0.46-10.36,2.31-16.23
		c5.36-11.39,15.07-19.3,29.12-23.71c14.05-4.42,28.14-3.3,42.27,3.35c9.2,4.33,15.46,10.07,18.78,17.22
		c3.32,7.15,3.25,14.41-0.22,21.77c-3,6.37-7.91,11.38-14.73,15.03c-6.82,3.66-14.5,4.78-23.01,3.39l0.46-2.52
		c12.3,0.86,21.18-4.52,26.64-16.13c3.47-7.37,3.9-14.43,1.3-21.16c-2.6-6.73-7.86-11.96-15.77-15.68
		c-10.55-4.96-21.37-5.78-32.48-2.46c-11.1,3.32-18.95,9.87-23.55,19.63c-2.44,5.18-3.08,9.97-1.94,14.38
		c1.15,4.4,3.46,7.42,6.95,9.06c4.43,2.08,8.3,1.93,11.61-0.46L641.59,500.17z M686.22,471.77c-6.48,2.91-11.72,8.63-15.72,17.14
		c-1.13,2.39-2.78,7.42-4.96,15.09c-2.13,7.69-4.37,14.03-6.71,19.01c-5.23,11.1-12.26,18.71-21.09,22.83
		c-8.83,4.11-17.53,4.16-26.08,0.13c-6.17-2.9-10.41-7.03-12.73-12.37c-2.32-5.34-2.32-10.48,0-15.4l0.95-2.01l11.23,2.46
		l-0.01,1.18c-1.91,1.23-3.4,2.96-4.45,5.2c-1.55,3.28-1.6,6.71-0.15,10.27c1.44,3.57,4.08,6.25,7.9,8.05
		c5.71,2.69,11.47,2.46,17.28-0.67c5.81-3.13,10.72-8.96,14.73-17.47c2.11-4.48,4.47-10.61,7.1-18.37
		c2.67-7.74,4.57-12.81,5.69-15.2c2.46-5.23,5.67-9.55,9.63-12.98c3.96-3.43,9.35-6.46,16.16-9.09L686.22,471.77z"/>
	<path d="M177.18,300.27c-5.69,19.63-15.27,31.67-28.72,36.12c-9.67,3.2-18.84,1.83-27.49-4.1c-8.66-5.93-15.04-15.11-19.15-27.55
		c-5.58-16.87-6.73-35.18-3.46-54.94c3.27-19.76,10.17-37.14,20.69-52.16c10.52-15.01,22.48-24.73,35.86-29.16
		c8.65-2.86,16.5-2.25,23.53,1.83c7.04,4.08,12.16,10.98,15.38,20.72c7.49,22.66,2.17,44.4-15.95,65.22l14.85,44.92
		c1.42,4.3,2.65,7.09,3.67,8.36c1.03,1.28,2.74,1.52,5.14,0.72c5.38-1.78,10.13-8.63,14.26-20.56l4.43,1.68
		c-2.64,8.86-5.51,15.42-8.62,19.67c-3.11,4.25-6.92,7.13-11.43,8.62c-4.95,1.64-9.14,1.52-12.58-0.34
		C184.15,317.46,180.68,311.11,177.18,300.27z M175.89,250.24c6.73-6.73,11.03-14.42,12.89-23.05c1.87-8.63,1.36-17.3-1.52-26.02
		c-3.05-9.22-8.15-15.63-15.31-19.22c-7.16-3.59-15.21-3.91-24.15-0.96c-16.29,5.39-28.3,18.91-36.02,40.56
		c-7.72,21.66-7.63,44.44,0.27,68.34c4.32,13.08,10.17,22.84,17.54,29.26c7.37,6.43,14.8,8.41,22.29,5.93
		c2.25-0.75,4.38-1.83,6.37-3.25c1.99-1.42,3.83-3.16,5.54-5.22c1.7-2.05,3.23-4.44,4.6-7.15c1.36-2.71,2.67-6.43,3.93-11.16
		c1.26-4.73,1.71-7.64,1.35-8.73l-7.79-23.57c-2.38,1.11-4.44,1.95-6.18,2.53c-7.56,2.5-14.32,2.25-20.27-0.74
		c-5.95-2.99-10.15-8.2-12.6-15.62c-2.38-7.2-2.51-14.96-0.38-23.29c2.13-8.33,6.44-15.58,12.95-21.77l2.43,1.86
		c-8.01,12.87-10.19,24.82-6.54,35.85c2.16,6.53,5.64,11.16,10.45,13.87c4.81,2.72,10.23,3.08,16.27,1.08l1.64-0.54l-14.54-43.98
		l11.3-11.95L175.89,250.24z"/>
	<path d="M677.41,410.39c0.22,2.03-0.23,4.23-1.33,6.6c-1.11,2.37-2.51,4.2-4.21,5.5c-1.68,1.27-4.41,2.58-8.2,3.91
		c-3.76,1.31-6.09,2.3-6.98,2.98c-1.65,1.26-2.59,2.97-2.81,5.14c-0.22,2.17,0.35,4.16,1.72,5.95c1.33,1.75,2.96,2.77,4.9,3.05
		c1.94,0.29,3.95,0.13,6.05-0.46s5.23-1.71,9.38-3.36c4.14-1.67,7.59-2.85,10.35-3.53c2.77-0.69,5.55-0.69,8.36,0
		c2.81,0.68,5.31,2.47,7.51,5.37c3.3,4.34,4.45,9.55,3.46,15.63s-4.11,11.12-9.36,15.1c-4.79,3.64-9.72,5.4-14.78,5.28
		c-5.06-0.12-8.91-1.92-11.55-5.39c-1.95-2.56-2.65-5.4-2.11-8.52c0.54-3.11,2.28-5.78,5.2-8c3.07-2.33,6.3-3.46,9.71-3.38
		c3.4,0.08,5.99,1.28,7.75,3.6c1.2,1.58,1.64,3.3,1.33,5.14c-0.32,1.85-1.24,3.35-2.77,4.52c-2.54,1.93-5.32,2.19-8.35,0.79
		l0.52-1.19c1.62,0.24,2.98-0.05,4.08-0.89c1.17-0.89,1.84-2.05,1.99-3.47c0.15-1.42-0.25-2.75-1.19-4
		c-1.18-1.56-2.82-2.36-4.92-2.41c-2.1-0.05-4.07,0.63-5.91,2.03c-2.16,1.64-3.35,3.79-3.57,6.45c-0.22,2.66,0.5,5.1,2.18,7.3
		c2.2,2.9,5.37,4.42,9.51,4.57c4.14,0.15,8.14-1.26,12.02-4.21c4.14-3.15,6.61-7.07,7.38-11.77c0.78-4.69-0.16-8.79-2.82-12.29
		c-1.82-2.4-3.94-3.85-6.35-4.37c-2.41-0.51-4.79-0.46-7.14,0.15c-2.35,0.61-5.46,1.68-9.34,3.19c-3.88,1.52-6.99,2.59-9.34,3.2
		c-2.35,0.61-4.67,0.67-6.95,0.18c-2.28-0.49-4.29-1.88-6.02-4.15c-2.37-3.11-3.17-6.73-2.4-10.84c0.77-4.11,2.78-7.41,6.03-9.89
		c1.51-1.15,3.97-2.39,7.37-3.73c3.41-1.38,5.74-2.55,6.98-3.49c2.04-1.55,3.2-3.7,3.49-6.45L677.41,410.39z"/>
	<path d="M656.97,173.21c-2.92,7.16-8.13,12.6-15.63,16.33c-2.94,1.46-5.03,2.34-6.28,2.65c-3.22,6.61-2.81,13.96,1.21,22.05
		c3.24,6.53,7.83,12.07,13.78,16.64c4.82-7.32,9.48-12.1,14.01-14.35c1.51-0.75,3.58-1.31,6.21-1.68l1.36,2.26
		c0.44,0.88,1.52,4.25,3.26,10.12c-0.19,0.09-0.55,0.39-1.08,0.89c-0.47,0.47-0.77,0.73-0.9,0.8l-0.38,0.19
		c-1.41-1.73-3.19-2.8-5.35-3.21c-2.16-0.41-4.09-0.2-5.79,0.64c-3.2,1.59-5.73,4.29-7.59,8.11c7.25,7.2,11.9,12.19,13.95,14.97
		c2.04,2.78,3.77,5.58,5.17,8.41c6.61,13.31,7.49,26.76,2.66,40.35c-4.83,13.59-14.09,23.78-27.78,30.58
		c-9.35,4.64-18.05,5.85-26.08,3.62s-14.01-7.3-17.94-15.21c-4.46-8.98-4.72-18.41-0.79-28.31c3.93-9.89,10.57-17.16,19.93-21.81
		c4.83-2.4,9.58-3.04,14.25-1.91c4.67,1.13,8,3.7,9.99,7.72c2.52,5.09,2.45,10.84-0.24,17.25c-2.68,6.42-7.41,11.31-14.19,14.68
		l-2.07,1.03l-1.08-2.17c10.08-7.43,13.18-15.07,9.28-22.92c-1.81-3.64-4.5-5.96-8.09-6.96c-3.59-1-7.39-0.5-11.41,1.5
		c-6.03,2.99-10.06,7.64-12.1,13.93c-2.04,6.29-1.42,12.74,1.85,19.33c3.8,7.66,9.66,12.64,17.57,14.93
		c7.91,2.3,15.94,1.42,24.1-2.64c9.17-4.55,15.69-11.55,19.57-20.99c3.88-9.44,3.64-18.55-0.72-27.34
		c-2.15-4.33-6.07-9.31-11.76-14.94l-9.85-9.67c-1.7,3.35-2.34,7.42-1.92,12.22l-4.18-0.86c0.36-5.26,1.14-10.47,2.35-15.6
		c-6.28-7.45-10.43-13.21-12.46-17.29c-5.39-10.86-5.66-21.88-0.8-33.06c-10.32,2.54-19.25,5.68-26.78,9.42
		c-7.53,3.74-12.66,8.83-15.37,15.26c-2.71,6.43-2.57,12.66,0.42,18.69c1.9,3.83,4.62,6.39,8.16,7.69c3.54,1.3,6.72,1.24,9.55-0.16
		c2.13-1.06,3.8-2.86,5-5.42c1.2-2.55,1.46-5.3,0.78-8.25l1.88-0.94l1.5,2.54c2.06,4.14,2.5,8.42,1.33,12.84
		c-1.17,4.42-3.74,7.61-7.69,9.57c-4.39,2.18-8.98,2.33-13.75,0.43c-4.77-1.89-8.49-5.51-11.14-10.85
		c-4.61-9.29-4.39-19.24,0.67-29.85c5.06-10.61,13.96-19.08,26.71-25.41c6.03-2.99,13.26-5.53,21.7-7.6
		c8.5-2.11,13.54-3.55,15.11-4.33c2.51-1.25,4.26-3.25,5.24-6L656.97,173.21z"/>
	<path d="M221.5,278.97c6.69-0.75,10.99-3.53,12.88-8.34c0.86-2.19,1.53-6.36,2.01-12.5c0.46-6.08,1.41-10.98,2.87-14.7
		c4.02-10.24,11.21-17.33,21.56-21.28c10.35-3.95,21.48-3.59,33.38,1.08c18.36,7.21,26.67,19.59,24.92,37.12
		c-3.62,0.97-8.47,1.07-14.57,0.29l0.13-1.95c0.7-1.06,1.36-2.39,1.98-3.97c2.18-5.54,1.77-10.98-1.24-16.31
		c-3-5.33-7.83-9.3-14.47-11.91c-7.92-3.11-15.62-3.08-23.09,0.11c-7.47,3.18-12.77,8.73-15.88,16.66
		c-0.96,2.44-1.98,6.22-3.08,11.34c-1.16,5.1-2.11,8.6-2.85,10.48c-1.17,2.98-2.99,5.72-5.44,8.2c15.03-5.49,27.69-6.21,37.99-2.17
		c8.35,3.28,14.03,8.43,17.04,15.45c3.01,7.02,2.86,14.73-0.44,23.14c-4.96,12.61-14.58,22.04-28.88,28.27
		c-14.3,6.23-28.09,6.74-41.37,1.52c-6.52-2.56-11.1-6.21-13.74-10.94c-2.64-4.73-2.9-9.81-0.77-15.23
		c2.87-7.31,8.06-12.68,15.56-16.1c7.5-3.42,14.6-3.81,21.3-1.18c3.6,1.41,6.11,3.52,7.53,6.34c1.43,2.81,1.52,5.8,0.27,8.97
		c-2.9,7.37-9.52,11.35-19.88,11.92l-0.53-2.42c5.53-1.91,9.1-4.9,10.7-8.98c1.1-2.8,1.2-5.37,0.28-7.7
		c-0.91-2.33-2.68-4.01-5.3-5.04c-3.66-1.44-7.67-1.11-12.04,0.97c-4.37,2.08-7.44,5.38-9.21,9.89c-2.11,5.36-1.88,10.57,0.67,15.61
		c2.55,5.05,6.94,8.79,13.15,11.23c9.32,3.66,18.84,2.88,28.56-2.34c9.72-5.22,16.72-13.28,21-24.19
		c3.14-7.98,3.65-15.06,1.54-21.23c-2.11-6.17-6.36-10.52-12.76-13.03c-4.02-1.58-8.43-2.43-13.24-2.56
		c-4.8-0.13-11.17,1.31-19.1,4.31c-8.02,3.04-13.64,4.45-16.86,4.24L221.5,278.97z"/>
	<path d="M316.06,141c-9.67,2.81-17.1,1.91-22.27-2.69c-4.31-3.83-5.94-8.89-4.89-15.19c1.05-6.3,4.82-13.1,11.31-20.39
		c1.84-2.06,4.57-4.9,8.22-8.52c-0.94-0.51-1.93-1.23-2.97-2.16c-0.66-0.58-1.25-1.36-1.79-2.32c-0.54-0.96-1.01-1.63-1.43-2
		c-0.21-0.19-0.67-0.48-1.37-0.9c-1.8,3.22-4.24,6.54-7.29,9.98c-5.82,6.55-12.56,10.32-20.2,11.32c-7.64,1-14.41-1.13-20.31-6.37
		c-7.25-6.44-9.71-13.8-7.39-22.08l8.51,0.02l0.22,1c-4.64,8.41-4,15.24,1.9,20.49c4.02,3.57,8.51,4.99,13.47,4.27
		c4.97-0.73,9.62-3.53,13.95-8.4c1.01-1.14,2.92-3.67,5.72-7.61c2.86-3.94,5.45-7.21,7.76-9.81c6.89-7.75,13.73-12.91,20.52-15.49
		c-0.47-0.2-1.7-0.6-3.69-1.19c-1.94-0.6-3.44-1.38-4.52-2.33c-2.34-2.08-3.69-5.29-4.06-9.64c-0.34-4.32-1.5-7.36-3.48-9.12
		c-2.22-1.97-5.22-2.74-9.01-2.31c-3.79,0.43-6.88,1.99-9.28,4.69c-2.05,2.3-3.04,4.83-2.98,7.59c0.06,2.76,1.11,5.04,3.14,6.85
		c1.5,1.33,3.29,2.13,5.37,2.41c2.09,0.27,4.19-0.09,6.31-1.09l0.81,1.44c-3.19,2.09-6.44,3.03-9.74,2.82c-3.3-0.2-6-1.24-8.09-3.1
		c-2.33-2.07-3.51-4.68-3.52-7.83c-0.01-3.15,1.12-6,3.41-8.58c3.72-4.19,8.59-6.69,14.59-7.51c6-0.82,10.89,0.45,14.66,3.8
		c3.11,2.77,4.77,6.71,4.99,11.83c0.24,3.7,1.19,6.28,2.84,7.74c1.61,1.44,3.77,1.99,6.48,1.66l7.47-0.91l0.55,2.18
		c-7.78,0.31-14.68,3.87-20.72,10.65c-2.66,2.99-4.96,6.38-6.89,10.18c2.15,0.36,3.79,1.04,4.93,2.05c1.29,1.14,2.51,3.17,3.67,6.08
		c9-7.05,17.56-11.23,25.67-12.56c8.11-1.33,14.33-0.07,18.63,3.76c2.72,2.42,3.97,5.05,3.74,7.9l-8.64,0.59
		c1.18-3.98,0.84-6.8-1.02-8.46c-2.94-2.61-8.13-2.64-15.58-0.09c-7.45,2.55-15.23,8.39-23.33,17.5
		c-6.8,7.65-11.12,14.77-12.95,21.35c-1.83,6.59-1.1,11.34,2.2,14.28c3.63,3.22,8.95,3.84,15.99,1.84L316.06,141z"/>
	<path d="M367.94,194.71c-1.96-1.27-3.43-3.14-4.41-5.62c-1.5-3.79-1.4-7.41,0.3-10.86c1.7-3.45,4.7-6.02,8.99-7.72
		c11.22-4.44,21.77-1.25,31.66,9.56c10.22-7.55,19.8-13.1,28.74-16.64c13.24-5.24,25.28-5.96,36.13-2.16
		c10.85,3.8,18.22,10.6,22.1,20.4c2.68,6.77,2.88,13.1,0.6,19c-2.28,5.9-6.58,10.1-12.89,12.6c-5.36,2.12-10.55,2.09-15.6-0.09
		c-5.04-2.18-8.48-5.6-10.32-10.24c-1.58-3.99-1.65-7.97-0.21-11.93c1.44-3.96,4.01-6.67,7.69-8.13c3.43-1.36,6.86-1.36,10.26,0.01
		c3.4,1.37,5.9,4.05,7.48,8.04l-1.93,1.55c-3.03-4.12-6.85-5.27-11.44-3.45c-2.78,1.1-4.68,2.94-5.71,5.51
		c-1.03,2.58-0.97,5.31,0.18,8.2c1.38,3.5,3.92,5.87,7.59,7.11c3.68,1.24,7.48,1.08,11.43-0.48c4.9-1.94,8.26-5.48,10.09-10.61
		c1.82-5.13,1.61-10.55-0.65-16.26c-3.02-7.63-8.62-12.58-16.8-14.87s-17.62-1.31-28.33,2.93c-6.92,2.74-17.77,8.85-32.54,18.32
		c3.72,9.69,4.3,17.99,1.75,24.9c-2.55,6.91-8.02,12.03-16.41,15.35c-11.72,4.64-24.54,3.55-38.46-3.27
		c-13.92-6.82-23.97-17.16-30.16-31.01l1.67-1.54c11.18,9.95,26.07,11.24,44.66,3.88c8.34-3.3,17.77-8.47,28.31-15.5
		c-2.91-3.52-6.52-5.72-10.81-6.59c-4.29-0.87-8.53-0.48-12.72,1.18c-3.94,1.56-6.84,3.83-8.7,6.82c-1.86,2.99-2.27,5.79-1.23,8.42
		l0.72,1.82L367.94,194.71z M333.14,200.25c6.47,10.44,15.3,17.39,26.48,20.83c11.18,3.45,21.8,3.18,31.85-0.8
		c14.65-5.8,19.91-15.68,15.78-29.65c-9.84,5.41-16.77,8.92-20.82,10.52C367.34,208.71,349.58,208.41,333.14,200.25z"/>
	<path d="M321.17,156.08c6.86-2.67,11.27-6.2,13.23-10.58c1.47-3.29,2.17-7.81,2.1-13.58c-0.07-5.77-1.22-12.51-3.44-20.2
		c-2.14-7.73-3.13-13.92-2.96-18.58c0.17-4.66,1.13-8.94,2.88-12.85c3.99-8.92,11.52-15.22,22.6-18.9
		c11.08-3.68,22.55-2.87,34.41,2.43c9.56,4.27,16.19,10.12,19.88,17.54c3.7,7.42,3.82,14.99,0.37,22.71
		c-3.24,7.26-8.68,12.41-16.3,15.47c-7.62,3.06-14.83,3.06-21.62,0.02c-5.41-2.42-9.06-5.81-10.95-10.18s-1.77-8.91,0.34-13.63
		c3.19-7.14,9.31-10.87,18.37-11.17l0.4,2.35c-5.33,1.42-8.98,4.31-10.93,8.69c-1.67,3.74-1.69,7.69-0.06,11.84
		c1.63,4.15,4.44,7.11,8.41,8.89c4.32,1.93,8.7,1.87,13.14-0.19s7.77-5.56,9.99-10.51c3.14-7.03,2.9-14.44-0.73-22.25
		c-3.63-7.81-9.67-13.6-18.14-17.39c-7.77-3.48-15.19-4.04-22.25-1.71c-7.06,2.34-11.96,6.59-14.72,12.75
		c-3.27,7.31-3.12,17.09,0.46,29.33c4.16,13.88,4.1,25.61-0.17,35.17c-3.45,7.72-10.28,13.79-20.48,18.21
		c8.82,9.47,16.29,15.57,22.39,18.3c6.91,3.09,15.43,1.58,25.56-4.54l1.71,3.36c-6.48,4.29-12.74,6.78-18.78,7.46
		c-6.04,0.68-12.84-0.66-20.38-4.03c-6.05-2.7-13.67-8.77-22.86-18.2c-10.74,1-19.89-0.18-27.43-3.56
		c-4.66-2.09-8.17-4.76-10.51-8.02c-2.34-3.26-2.91-6.24-1.7-8.95c1.36-3.05,4.52-4.78,9.48-5.2c4.95-0.41,10.25,0.64,15.89,3.17
		C304.21,142.18,311.8,147.68,321.17,156.08z M308.73,158.19c-7.21-8.75-13.15-14.17-17.82-16.26c-5.99-2.68-9.68-2.46-11.07,0.65
		c-0.77,1.73-0.13,3.93,1.92,6.61c2.05,2.68,4.86,4.82,8.43,6.41C295.26,157.87,301.44,158.73,308.73,158.19z"/>
	<path d="M610.39,697.13c-2.96,4.8-6.4,8.37-10.33,10.69c-2.08,10.61-6.2,19.14-12.36,25.6c-6.15,6.46-11.64,9.7-16.45,9.7
		c-2.33,0-4.32-0.72-5.98-2.16c-1.66-1.44-2.49-3.3-2.49-5.58c0-3.52,1.6-7.01,4.81-10.48c3.21-3.46,11.83-8.97,25.86-16.54
		c0.32-2.17,0.48-4.15,0.48-5.96c0-6.5-1.81-11.34-5.43-14.51c-5.81,4.6-10.63,6.9-14.43,6.9c-2.97,0-4.45-1.22-4.45-3.66
		c0-2.2,1.51-4.21,4.54-6.03c3.03-1.82,6.45-2.73,10.25-2.73c1.56,0,3.29,0.34,5.17,1.02c6.66-7.2,9.99-15.73,9.99-25.57
		c0-7.96-2.1-14.47-6.31-19.51c-4.21-5.04-9.28-7.56-15.21-7.56c-5.93,0-11.17,2.58-15.72,7.74c-4.55,5.16-6.82,11.03-6.82,17.59
		c0,5.12,1.28,9.46,3.84,13c2.56,3.54,5.66,5.31,9.31,5.31c2.88,0,5.5-1.15,7.86-3.45c2.36-2.3,3.54-5.07,3.54-8.31
		c0-2.28-0.6-4.14-1.8-5.58c-1.2-1.44-2.68-2.16-4.44-2.16c-1.84,0-3.2,0.78-4.08,2.34l-1.2-0.9c1.24-4.32,3.7-6.48,7.38-6.48
		c2.32,0,4.29,0.95,5.91,2.85c1.62,1.9,2.43,4.31,2.43,7.23c0,4.6-1.84,8.82-5.52,12.67c-3.68,3.84-7.9,5.76-12.67,5.76
		c-4.6,0-8.41-1.7-11.44-5.1c-3.02-3.4-4.53-7.92-4.53-13.57c0-8.84,3.21-16.43,9.64-22.75c6.42-6.32,13.82-9.49,22.18-9.49
		c6.96,0,12.75,2.3,17.35,6.9c4.6,4.6,6.9,10.63,6.9,18.07c0,5.52-1.12,10.81-3.35,15.85c-2.23,5.04-5.87,10.41-10.89,16.09
		c5.73,3.6,8.6,9.51,8.6,17.71l-0.12,2.22c2.64-1.84,5.3-4.7,7.98-8.58L610.39,697.13z M593.04,711.78
		c-8.59,4.52-14.87,8.63-18.87,12.34c-3.99,3.7-5.99,7.37-5.99,11.02c0,1.36,0.42,2.48,1.26,3.36c0.84,0.88,1.95,1.32,3.31,1.32
		c3.81,0,7.79-2.63,11.94-7.89C588.85,726.66,591.63,719.94,593.04,711.78z M585.8,686.5c-1.2-0.56-2.57-0.84-4.09-0.84
		c-1.97,0-3.65,0.39-5.05,1.17c-1.4,0.78-2.11,1.65-2.11,2.61c0,0.92,0.66,1.38,1.99,1.38c1.2,0,2.72-0.38,4.54-1.14
		C582.9,688.93,584.48,687.87,585.8,686.5z"/>
	<path d="M595.36,117.12c4.29,8.73,6.33,17.02,6.11,24.88c13.56,12.78,22.23,26.62,26.01,41.54c3.78,14.91,3.46,25.88-0.95,32.9
		c-2.13,3.39-5.02,5.64-8.65,6.75c-3.63,1.11-7.11,0.61-10.44-1.49c-5.14-3.23-8.76-8.78-10.87-16.64
		c-2.11-7.86-2.23-25.5-0.38-52.92c-2.87-2.46-5.62-4.51-8.26-6.17c-9.49-5.97-18.21-7.77-26.16-5.4
		c1.38,12.71,0.32,21.84-3.18,27.4c-2.72,4.33-5.87,5.37-9.43,3.13c-3.21-2.02-4.76-6.07-4.63-12.16
		c0.12-6.09,1.93-11.91,5.43-17.47c1.44-2.28,3.51-4.48,6.24-6.61c-4.4-16.33-13.78-29.02-28.14-38.06
		c-11.62-7.31-23.04-10.21-34.26-8.7s-19.55,6.59-25,15.24c-5.45,8.66-6.49,18.67-3.13,30.05c3.36,11.38,9.82,20.08,19.4,26.11
		c7.47,4.7,14.97,6.81,22.49,6.33c7.52-0.48,12.95-3.38,16.3-8.7c2.65-4.2,3.37-9.08,2.18-14.64c-1.19-5.56-4.15-9.83-8.88-12.8
		c-3.33-2.09-6.59-2.93-9.8-2.5c-3.2,0.43-5.62,1.93-7.23,4.5c-1.69,2.69-1.8,5.39-0.33,8.11l-2.42,0.92
		c-5.17-5.78-6.06-11.35-2.68-16.73c2.13-3.39,5.33-5.39,9.59-6.01c4.26-0.62,8.52,0.41,12.79,3.09
		c6.72,4.23,11.19,10.79,13.41,19.69c2.22,8.9,1.15,16.82-3.22,23.77c-4.23,6.72-10.21,10.72-17.95,12
		c-7.74,1.29-15.72-0.66-23.96-5.84c-12.9-8.12-21.02-19.77-24.35-34.95c-3.33-15.18-1.15-28.87,6.53-41.07
		c6.39-10.16,15.06-16.48,26-18.97c10.94-2.49,21.84-0.32,32.7,6.52c8.06,5.07,14.74,11.55,20.05,19.44
		c5.31,7.89,9.8,18.11,13.47,30.67c10.52-5.06,21.77-3.82,33.74,3.71l3.13,2.21c-0.26-5.54-1.99-12.05-5.19-19.53L595.36,117.12z
		 M600.8,155.88c-1.29,16.68-1.06,29.63,0.68,38.85c1.74,9.22,5.26,15.51,10.58,18.85c1.98,1.25,4.01,1.66,6.07,1.24
		c2.06-0.42,3.71-1.63,4.97-3.62c3.5-5.56,3.31-13.78-0.55-24.68C618.67,175.65,611.43,165.43,600.8,155.88z M557.28,143.24
		c-1.92,1.24-3.58,2.98-4.98,5.2c-1.81,2.87-2.78,5.68-2.93,8.45s0.48,4.59,1.88,5.47c1.34,0.85,2.62,0.3,3.84-1.63
		c1.1-1.76,1.94-4.31,2.51-7.68C558.16,149.69,558.05,146.42,557.28,143.24z"/>
	<path d="M252.81,392.09c0.73,2.85,0.33,6.2-1.18,10.06c-4.7-1.88-8.72-1.96-12.06-0.26c-5.27,2.68-8.24,9.16-8.93,19.43
		c-0.68,10.27,1.43,21.25,6.33,32.94c1.05-0.27,1.96-0.6,2.74-1c1.72-0.88,3.48-2.46,5.27-4.75l0.76,1.49
		c1.35,2.66,1.71,4.84,1.07,6.55c-0.64,1.71-2.7,3.48-6.16,5.31c7.11,12.15,14.13,20.54,21.06,25.19
		c6.93,4.65,12.77,5.76,17.52,3.34c2.82-1.43,4.9-3.45,6.24-6.03c1.34-2.59,2.42-6.82,3.24-12.69l3.5,0.68
		c-1.44,14.33-5.89,23.4-13.34,27.19c-6.36,3.24-12.75,2.7-19.16-1.62c-6.41-4.32-13.89-13.4-22.45-27.24
		c3.6,15.71,3.58,28.48-0.05,38.31c-3.63,9.83-9.33,16.73-17.1,20.68c-3.39,1.73-6.72,2.57-9.99,2.53s-5.79-1.02-7.56-2.95
		c-0.05-3.32,0.52-7.36,1.72-12.11l1.26,0.15c1.7,2.95,4.19,4.71,7.48,5.3c3.29,0.59,6.5,0.09,9.63-1.51
		c6.36-3.24,10.36-10.1,11.98-20.59c1.62-10.48,0.19-21.68-4.3-33.58l-3.76,1.72c-2.24,1.14-3.42,2.76-3.54,4.86
		c-1.01-1.46-1.77-2.71-2.31-3.75c-2.05-4.02-0.04-7.57,6.01-10.65l1.02-0.52l-1.47-2.89c-6.67-13.09-14.41-22.48-23.22-28.18
		c-8.81-5.69-17.03-6.6-24.64-2.72c-6,3.06-9.85,7.91-11.55,14.56c-1.7,6.65-0.87,13.29,2.5,19.91c2.82,5.53,6.59,9.2,11.33,11.03
		c4.74,1.82,9.09,1.73,13.05-0.29c3.18-1.62,5.38-4.37,6.59-8.24c1.21-3.87,1.05-7.32-0.49-10.34c-1.06-2.09-2.55-3.51-4.45-4.29
		c-1.9-0.77-3.74-0.7-5.52,0.2c-1.77,0.9-2.9,2.89-3.37,5.95l-1.81-0.26l-0.63-0.86c-1.28-2.5-1.63-4.8-1.05-6.9
		c0.57-2.1,1.96-3.71,4.15-4.82c2.87-1.46,5.7-1.51,8.5-0.14c2.8,1.37,5.14,3.9,7.03,7.6c2.9,5.69,3.53,11.55,1.92,17.6
		c-1.62,6.05-5.01,10.38-10.17,13.01c-4.96,2.52-9.97,2.73-15.05,0.62c-5.08-2.11-9.2-6.27-12.36-12.47
		c-4.78-9.39-5.98-19.12-3.6-29.21c2.39-10.08,7.8-17.28,16.25-21.58c7.98-4.06,16.35-3.63,25.1,1.3
		c8.75,4.94,16.81,14.23,24.16,27.9c-4.53-28.37-0.43-45.8,12.29-52.28C245.46,390.61,249.32,390.39,252.81,392.09z"/>
	<path d="M398.28,87.15c-2.96,4.56-6.37,7.83-10.24,9.82c-3.86,1.98-8.78,2.97-14.74,2.97c-9.65,0-17.38-2.96-23.2-8.88
		c-5.82-5.92-8.73-13.71-8.73-23.35c0-8.12,2.07-16.05,6.21-23.77c4.14-7.72,9.58-13.93,16.33-18.61
		c6.74-4.68,13.52-7.02,20.32-7.02c4.96,0,8.89,1.38,11.8,4.14c2.9,2.76,4.35,6.54,4.35,11.35c0,7.04-2.54,13.36-7.62,18.94
		c-5.08,5.58-10.59,8.37-16.51,8.37c-3,0-5.45-0.92-7.35-2.76c-1.9-1.84-2.85-4.24-2.85-7.2c0-4.72,2.66-9.16,7.98-13.33l1.26,1.5
		c-2.88,1.88-4.32,4.84-4.32,8.88c0,2.48,0.85,4.51,2.55,6.09c1.7,1.58,3.85,2.37,6.45,2.37c4.04,0,7.63-1.75,10.78-5.25
		c3.14-3.5,4.71-7.73,4.71-12.7c0-4.8-1.48-8.66-4.44-11.59c-2.96-2.92-6.86-4.38-11.71-4.38c-8.08,0-15.25,3.78-21.49,11.35
		s-9.37,16.65-9.37,27.26c0,9.77,2.79,17.9,8.37,24.4c5.58,6.5,12.64,9.76,21.16,9.76c4.24,0,7.77-0.75,10.6-2.25
		c2.82-1.5,5.39-4.03,7.71-7.59L398.28,87.15z"/>
	<path d="M168.05,399.39c1.42,5.25,1.58,9.98,0.48,14.17c-1.1,4.2-3.64,8.52-7.62,12.96c-6.44,7.18-13.81,10.96-22.1,11.35
		c-8.3,0.38-16.04-2.64-23.22-9.08c-6.05-5.42-10.57-12.25-13.56-20.49c-2.99-8.24-3.97-16.43-2.96-24.58
		c1.01-8.15,3.79-14.75,8.33-19.82c3.31-3.7,6.96-5.7,10.96-6.02c3.99-0.32,7.78,1.13,11.35,4.33c5.25,4.7,8.25,10.81,9.02,18.32
		c0.76,7.51-0.83,13.47-4.78,17.88c-2,2.24-4.33,3.45-6.96,3.63c-2.64,0.19-5.06-0.71-7.27-2.68c-3.52-3.15-5.05-8.1-4.59-14.84
		l1.96,0.06c-0.52,3.4,0.72,6.45,3.73,9.15c1.85,1.66,3.93,2.38,6.24,2.17c2.31-0.21,4.34-1.29,6.07-3.22
		c2.7-3.01,3.79-6.85,3.28-11.53c-0.51-4.68-2.61-8.67-6.31-11.98c-3.58-3.21-7.44-4.68-11.59-4.43c-4.15,0.26-7.84,2.19-11.08,5.79
		c-5.4,6.02-7.36,13.88-5.9,23.58c1.47,9.7,6.15,18.09,14.04,25.17c7.27,6.52,15.19,9.87,23.76,10.05c8.57,0.18,15.7-2.9,21.39-9.25
		c2.83-3.16,4.63-6.29,5.4-9.39c0.77-3.1,0.6-6.71-0.51-10.81L168.05,399.39z"/>
	<path d="M634.93,172.93c-4.58-0.09-8.43-1.07-11.56-2.94c-3.13-1.88-6.03-4.94-8.68-9.2c-4.29-6.89-5.62-13.73-3.98-20.52
		c1.64-6.79,5.9-12.33,12.79-16.63c5.8-3.61,12.38-5.66,19.74-6.14c7.36-0.48,14.21,0.65,20.55,3.38
		c6.34,2.73,11.03,6.53,14.06,11.39c2.21,3.54,2.97,6.97,2.29,10.27c-0.68,3.3-2.74,6.02-6.17,8.16
		c-5.03,3.13-10.67,4.13-16.92,2.98c-6.25-1.15-10.69-3.83-13.32-8.06c-1.34-2.14-1.77-4.3-1.3-6.48c0.47-2.18,1.76-3.92,3.88-5.24
		c3.37-2.1,7.73-2.18,13.07-0.23l-0.51,1.57c-2.63-1.22-5.38-0.93-8.27,0.87c-1.77,1.1-2.84,2.61-3.22,4.53
		c-0.37,1.92,0.02,3.81,1.18,5.66c1.8,2.89,4.65,4.67,8.54,5.36c3.9,0.69,7.62-0.08,11.16-2.28c3.43-2.14,5.53-4.91,6.3-8.33
		c0.77-3.41,0.08-6.85-2.08-10.31c-3.6-5.77-9.48-9.21-17.66-10.3c-8.18-1.09-16.06,0.72-23.63,5.44
		c-6.97,4.34-11.54,9.96-13.7,16.84c-2.16,6.88-1.34,13.36,2.45,19.45c1.89,3.03,3.99,5.22,6.32,6.56c2.33,1.35,5.28,2.06,8.85,2.13
		L634.93,172.93z"/>
	<path d="M247.48,228.25c-0.6,0.26-2.02,0.55-4.26,0.89c0.22,6.34-0.55,12.96-2.33,19.86c-3.12,12.09-7.98,21.34-14.6,27.76
		c-6.61,6.42-13.49,8.7-20.62,6.87c-6.05-1.56-10.39-5.68-13.02-12.37c-2.64-6.69-2.74-14.72-0.33-24.1
		c1.58-6.12,4.03-11.86,7.36-17.22c3.32-5.36,8.35-11.39,15.08-18.08c-2.75,0.72-5.35,0.76-7.8,0.13c-3.61-0.93-6.9-3.26-9.87-6.98
		c-2.3-2.8-4.65-4.51-7.06-5.13c-2.41-0.62-4.64-0.24-6.7,1.16c-2.06,1.39-3.4,3.33-4.04,5.81c-0.52,2.02-0.23,3.96,0.86,5.83
		c1.09,1.87,2.6,3.06,4.5,3.55c1.4,0.36,2.67,0.28,3.8-0.23c1.13-0.51,1.84-1.35,2.14-2.52c0.21-0.81,0.17-1.66-0.12-2.54
		c-0.29-0.88-0.8-1.5-1.54-1.85l0.36-0.9c0.52,0.05,1.21,0.19,2.06,0.41c3.49,0.9,4.81,2.98,3.97,6.23
		c-0.57,2.21-1.84,3.85-3.81,4.91c-1.97,1.06-4.17,1.28-6.62,0.65c-3.06-0.79-5.34-2.61-6.84-5.45c-1.5-2.85-1.86-5.78-1.08-8.8
		c0.91-3.53,3.15-6.36,6.72-8.5c3.57-2.14,7.25-2.72,11.05-1.74c2.01,0.52,4.06,1.56,6.14,3.13c2.08,1.57,3.83,3.32,5.28,5.27
		c2.16,2.83,4.23,4.5,6.21,5.01c3.02,0.78,6.45-0.63,10.27-4.23l1.46,1.56c-11.52,10.51-19.35,23.82-23.5,39.92
		c-2.35,9.12-2.85,16.82-1.49,23.1c1.35,6.29,4.36,10.03,9.01,11.23c5.27,1.36,10.53-0.54,15.79-5.7
		c5.26-5.16,9.13-12.55,11.61-22.17c2.15-8.34,2.62-16.39,1.39-24.16c-4.97-1.57-8.47-4.1-10.51-7.58
		c-2.04-3.48-2.58-7.08-1.62-10.8c0.45-1.74,1.3-3.02,2.54-3.84c1.24-0.82,2.64-1.02,4.19-0.62c2.67,0.69,5.07,2.89,7.19,6.6
		c2.12,3.71,3.54,8.36,4.24,13.96c1.64-0.11,3.01-0.3,4.11-0.55L247.48,228.25z M236.66,225.96c-0.37-3.4-1.23-6.35-2.58-8.85
		c-1.35-2.5-2.69-3.92-4.01-4.26c-1.36-0.35-2.26,0.31-2.69,1.97c-0.39,1.51,0.2,3.47,1.78,5.89
		C230.75,223.12,233.25,224.87,236.66,225.96z"/>
	<path d="M245.78,556.54c-4.3,15.08-14.32,22.62-30.05,22.62c-9.72,0-18.13-2.59-25.23-7.76c-7.1-5.17-10.65-11.26-10.65-18.25
		c0-7.64,3.33-13.11,9.99-16.4c1.06,1.12,2.74,4.01,5.04,8.66c-0.48,0.47-0.89,0.77-1.25,0.88c-5.94,1.35-8.91,4.67-8.91,9.95
		c0,4.23,2.14,7.78,6.42,10.66c4.28,2.88,9.93,4.32,16.95,4.32c9.15,0,16.51-2.51,22.08-7.53c5.58-5.02,8.37-11.64,8.37-19.86
		l1.59-0.35c1.94,4.98,5.27,8.98,9.99,12c4.71,3.02,9.66,4.53,14.85,4.53c7.6,0,14.08-2.93,19.44-8.79
		c5.36-5.86,8.04-13.01,8.04-21.43c0-12.61-4.6-23.96-13.79-34.07c-9.19-10.1-19.56-15.16-31.11-15.16c-5.54,0-10,1.27-13.39,3.8
		c-3.39,2.53-5.08,5.8-5.08,9.81c0,4.71,3.33,9.1,9.99,13.17l-1.06,1.86c-5.24-1.83-9.28-4.51-12.11-8.04s-4.24-7.45-4.24-11.75
		c0-4.65,1.77-8.41,5.3-11.27c3.53-2.86,8.1-4.29,13.7-4.29c9.13,0,18.32,2.92,27.57,8.75c9.25,5.83,16.69,13.59,22.31,23.29
		c5.63,9.69,8.44,19.84,8.44,30.44c0,9.6-2.55,17.28-7.64,23.02c-5.1,5.74-11.83,8.62-20.19,8.62
		C261.72,567.94,253.26,564.14,245.78,556.54z M280.86,542.66c-6.3-4.12-13.23-6.19-20.77-6.19c-4.01,0-10.16,0.63-18.47,1.9
		c-8.31,1.33-14.58,1.99-18.82,1.99c-12.25,0-22.53-3.6-30.84-10.8c-8.31-7.2-12.46-16.05-12.46-26.55c0-6.85,2-12.54,6.01-17.08
		c4.01-4.54,9.66-7.26,16.97-8.14c1.53,3.24,2.86,7.1,3.98,11.58l-1.24,0.35c-2.3-1.3-4.71-1.94-7.25-1.94
		c-3.89,0-7.31,1.56-10.25,4.68c-2.95,3.12-4.42,7.04-4.42,11.75c0,7.19,3.09,13.24,9.28,18.16c6.19,4.92,14.43,7.38,24.74,7.38
		c3.24,0,8.04-0.3,14.4-0.88c6.36-0.59,11.1-0.88,14.23-0.88c15.26,0,27.36,4.42,36.32,13.26L280.86,542.66z"/>
	<path d="M342.57,217.7c-4.16,6.63-8.72,11.54-13.7,14.72c-4.97,3.18-10.84,4.78-17.6,4.78c-7.73,0-14.02-3.14-18.86-9.41
		c-4.84-6.27-7.26-14.44-7.26-24.52c0-20.41,9.62-44.16,28.85-71.26c-3.7,1.63-7.47,2.44-11.31,2.44c-4.29,0-8.35-1.14-12.19-3.41
		l-17.16,20.96v82.08l-11.41,5.75V132.79c0-3.7-0.88-5.56-2.63-5.56c-1.63,0-4.09,2.18-7.41,6.53c-3.31,4.35-4.97,7.18-4.97,8.48
		c0,0.07,0.1,0.52,0.29,1.36c1.43,7.15,2.14,14.01,2.14,20.57c0,20.34-5.51,37.6-16.52,51.76c-11.02,14.17-23.93,21.25-38.75,21.25
		c-13.19,0-22.71-4.78-28.56-14.33l10.25-9.16l1.45,0.97c2.54,11.44,9.67,17.16,21.38,17.16c10.93,0,20.67-5.67,29.19-17.01
		c8.53-11.34,12.79-25.69,12.79-43.04c0-17.09-4.08-30.89-12.23-41.38c-8.16-10.49-18.05-15.74-29.68-15.74
		c-10.59,0-19.84,4.29-27.73,12.87s-11.84,18-11.84,28.27c0,7.34,2.14,13.57,6.43,18.67c4.29,5.1,9.55,7.65,15.79,7.65
		c6.37,0,11.81-2.39,16.33-7.16c4.52-4.78,6.78-10.45,6.78-17.01c0-3.51-0.94-6.45-2.83-8.82c-1.89-2.37-4.19-3.56-6.92-3.56
		c-4.09,0-6.43,2.21-7.02,6.63l-1.95-0.39c-0.46-1.75-0.68-3.09-0.68-4c0-3.31,1.1-6.14,3.31-8.48c2.21-2.34,4.97-3.51,8.29-3.51
		c4.03,0,7.34,1.79,9.94,5.36c2.6,3.57,3.9,8.12,3.9,13.65c0,9.42-3.28,17.79-9.85,25.1c-6.56,7.31-14.56,10.97-23.98,10.97
		c-7.47,0-13.39-2.45-17.74-7.36c-4.35-4.91-6.53-11.68-6.53-20.33c0-14.95,5.51-28.24,16.52-39.87
		c11.02-11.63,23.61-17.45,37.77-17.45c8.9,0,16.47,2.4,22.71,7.21c6.24,4.81,11.63,12.32,16.18,22.52
		c5.07-6.82,8.95-11.39,11.65-13.7c2.7-2.31,5.34-3.46,7.94-3.46c2.27,0,4.21,1.12,5.8,3.36c1.59,2.24,2.39,5.31,2.39,9.21v14.91
		l21.74-28.07c3.7,6.24,8.77,9.36,15.21,9.36c5.46,0,10.3-2.4,14.52-7.21l2.24,2.24c-12.22,12.87-20.34,26.04-24.37,39.53
		c-4.03,13.49-6.04,25.98-6.04,37.48c0,9.16,2,16.59,6,22.27c4,5.69,9.18,8.53,15.55,8.53c7.47,0,14.62-4.94,21.45-14.82
		L342.57,217.7z"/>
	<path d="M447.91,126.56l-0.71,2.24c-1.28,3.18-3.33,5.37-6.18,6.56c-2.84,1.19-5.83,1.16-8.95-0.09c-3.24-1.3-5.39-3.49-6.45-6.57
		c-1.06-3.08-0.93-6.27,0.39-9.56c2.3-5.75,6.52-9.71,12.64-11.89c6.12-2.18,12.89-1.78,20.31,1.2c6.86,2.75,11.75,6.85,14.65,12.29
		c2.9,5.44,3.28,10.84,1.13,16.19c-1.52,3.79-4.03,7.22-7.54,10.29c-3.5,3.06-9.81,6.01-18.93,8.83
		c-9.12,2.82-15.05,5.33-17.78,7.54c-2.74,2.21-4.65,4.68-5.75,7.41c-0.85,2.12-0.98,4.2-0.4,6.25c0.58,2.05,1.69,3.4,3.32,4.05
		c1.63,0.65,3.78,0.25,6.45-1.2l1.35,1.71c-1.59,2.34-3.57,3.93-5.94,4.76c-2.37,0.83-4.62,0.82-6.74-0.03
		c-2.68-1.07-4.41-2.9-5.19-5.48c-0.78-2.58-0.47-5.61,0.92-9.07c1.28-3.18,3.41-6.14,6.41-8.86c2.99-2.72,8.25-5.72,15.76-9
		c7.51-3.28,12.73-5.98,15.65-8.12c2.92-2.13,5.21-5.27,6.87-9.4c2.15-5.36,2.2-10.42,0.15-15.16c-2.05-4.74-5.67-8.16-10.86-10.24
		c-4.24-1.7-8.28-1.97-12.11-0.81c-3.83,1.16-6.47,3.54-7.91,7.12c-1.01,2.52-1.12,4.83-0.34,6.94c0.78,2.1,2.3,3.6,4.54,4.5
		c3.48,1.4,6.77,0.48,9.89-2.74L447.91,126.56z M422.9,204.65l-10.39,5.55l-3.47-11.69l10.32-5.87L422.9,204.65z"/>
	<path d="M816.21,749.64l2.76,29.88l-187.03-79.36c3.49,16.46,3.73,32.91,0.73,49.33l-10.44,0.99c3.76-35.23-6.01-65.82-29.3-91.78
		l3.66-2.24L816.21,749.64z"/>
	<path d="M425.7,363.26l-7.8,1.69l14.91-51.96c-4.24,1.45-8.57,2.05-13,1.79l-0.6-2.73c9.43-0.15,17.19-3.72,23.29-10.71l0.71,0.89
		L425.7,363.26z"/>
	<path d="M679.81,379.79c15.42,4.53,23.13,13.14,23.13,25.83c0,8.69-4.18,16.68-12.54,23.98c-8.36,7.3-18.07,10.95-29.12,10.95
		c-8.98,0-16.42-2.59-22.33-7.77c-5.91-5.18-8.86-11.07-8.86-17.66c0-4.83,1.61-8.96,4.83-12.37c3.22-3.41,7.13-5.12,11.74-5.12
		c7.9,0,13.77,4.34,17.61,13l-2.76,2.07c-2.61-3.6-6.06-5.41-10.36-5.41c-3.15,0-5.87,1.15-8.17,3.45c-2.3,2.3-3.45,5.06-3.45,8.29
		c0,4.37,2.24,8.23,6.73,11.57c4.49,3.34,9.8,5.01,15.94,5.01c7.67,0,14.27-2.79,19.79-8.36s8.29-12.24,8.29-20.01
		c0-6.38-2.03-11.95-6.1-16.72c-4.07-4.77-8.32-7.15-12.77-7.15c-1.77,0-3.49,0.6-5.18,1.79c-1.61,1.11-3.49,1.67-5.64,1.67
		c-2.38,0-3.57-0.66-3.57-1.99c0-2.89,4.56-4.49,13.69-4.79c10.82-6.43,16.23-14.73,16.23-24.91c0-6.2-2.21-11.38-6.62-15.55
		c-4.41-4.17-9.99-6.26-16.74-6.26c-6.21,0-11.37,1.9-15.48,5.7c-4.1,3.8-6.16,8.19-6.16,13.18c0,3.07,1.19,5.87,3.57,8.4
		c2.38,2.53,5.02,3.8,7.94,3.8c4.91,0,8.59-2.91,11.05-8.75l2.65,1.27c-3.38,10.66-9.13,16-17.26,16c-4.45,0-8.08-1.42-10.88-4.26
		c-2.8-2.84-4.2-6.67-4.2-11.51c0-8.13,3.41-15.19,10.24-21.17c6.83-5.98,15.11-8.98,24.86-8.98c8.44,0,15.23,2.22,20.37,6.66
		c5.14,4.44,7.71,10.3,7.71,17.57C698,361.99,691.93,371.52,679.81,379.79z"/>
	<path d="M109.58,846.28c-20.11,13.46-42.28,13.91-66.52,1.34l-32.13,35.85l-29.18-7.06l42.95-47.92
		C9.71,804.1-1.68,788.42-9.49,781.42c-12.26-10.99-25.9-16.07-40.93-15.25l-0.66-5.62c66.79-16.72,126.43-41.65,178.91-74.78
		c12.55,3.43,28.81,6.73,48.76,9.88l-1.38,3.78c-28.93,13.59-58.37,24.51-88.3,32.74l-99.36,27.51c8.69,4,17.5,9.99,26.42,17.99
		c9.29,8.32,18.3,19.2,27.04,32.61l69.92-78.01l28.85,7.43l-82.41,91.94c14.24,12.76,30.77,15.75,49.59,8.95L109.58,846.28z"/>
	<path d="M428.45,409.05c-1.83,0.06-3.47-0.4-4.93-1.39c-2.32-1.56-3.67-3.8-4.05-6.72c-0.38-2.92,0.3-5.68,2.05-8.28
		c1.96-2.92,4.64-4.58,8.04-5c3.4-0.41,6.81,0.53,10.24,2.85c4.32,2.91,7.12,6.68,8.41,11.31c1.29,4.63,0.7,8.77-1.77,12.44
		c-2.54,3.77-6.16,5.84-10.84,6.2c-4.69,0.36-9.58-1.18-14.67-4.61c-6.89-4.64-11.53-10.53-13.92-17.67
		c-2.39-7.14-1.9-13.19,1.45-18.17c1.1-1.63,2.26-2.71,3.5-3.25c1.24-0.54,2.35-0.47,3.36,0.2c0.97,0.65,1.57,1.63,1.78,2.91
		c0.21,1.29-0.02,2.43-0.69,3.43c-0.17,0.26-0.47,0.58-0.89,0.96l-0.57-0.26c0.07-1.41-0.35-2.42-1.26-3.03
		c-1.46-0.98-2.92-0.39-4.38,1.79c-2.35,3.49-2.44,7.97-0.26,13.45c2.17,5.48,5.99,10.05,11.45,13.73
		c4.89,3.29,9.58,4.97,14.08,5.02c4.49,0.06,7.87-1.59,10.12-4.94c1.73-2.57,2.21-5.25,1.41-8.03c-0.79-2.78-2.67-5.17-5.65-7.17
		c-2.95-1.98-5.96-2.76-9.03-2.33c-3.08,0.43-5.42,1.85-7.05,4.26c-1.2,1.78-1.62,3.64-1.27,5.59c0.35,1.95,1.34,3.47,2.97,4.57
		c0.97,0.66,1.73,0.98,2.28,0.97L428.45,409.05z"/>
	<path d="M361.42,716.92c-5.91,0.4-19.21-4.38-39.9-14.33c-34.56-16.68-64.75-27.19-90.58-31.53c-25.83-4.34-43.9-5.22-54.19-2.63
		c-6.53,1.64-11.73,4.72-15.6,9.26c-3.87,4.54-5.11,9.58-3.72,15.12c2.01,8.02,9.97,13.31,23.87,15.87l-0.43,3.81
		c-12.84,2.29-23.95,1.04-33.32-3.78s-15.21-11.79-17.51-20.93c-2.37-9.43-0.45-17.92,5.75-25.49c6.2-7.57,15.53-12.91,28-16.04
		c28.28-7.09,64.68,0.35,109.2,22.33l57.25,28.19c-0.22-0.87-1.75-3.88-4.58-9.03c-2.8-5.03-4.92-10.38-6.34-16.07
		c-1.57-6.27-2.75-14.96-3.53-26.07c-0.79-11.11-1.7-18.78-2.76-23.01c-1.94-7.73-5.07-13.79-9.39-18.21
		c-4.32-4.41-7.31-6.57-8.97-6.46l-26.25,1.6l-0.71-9.17l69.47-4.24l0.92,9.16l-24.81,1.52c16.17,14.16,26.1,28.57,29.78,43.24
		c0.87,3.49,0.92,11.97,0.14,25.44c-0.64,13.44-0.25,22.99,1.17,28.65c1.42,5.66,7.46,11.63,18.14,17.91L361.42,716.92z"/>
	<path d="M363.66,319.92c0.29-0.14,0.72-0.29,1.3-0.44c1.54-0.4,2.93-0.27,4.2,0.41c1.26,0.68,2.09,1.75,2.47,3.23
		c0.6,2.27-0.05,4.46-1.94,6.57c-1.89,2.1-4.76,3.66-8.61,4.67c-4.73,1.24-8.81,1.25-12.23,0.02c-3.42-1.23-5.52-3.31-6.29-6.26
		c-0.74-2.83-0.01-5.51,2.21-8.05c2.21-2.54,5.38-4.35,9.49-5.43c7.62-2,13.82-0.27,18.6,5.2l-0.65,0.66
		c-4.34-3.94-9.47-5.13-15.39-3.58c-3.91,1.03-6.97,2.77-9.17,5.22c-2.2,2.45-3,4.83-2.4,7.13c0.52,1.97,1.99,3.32,4.41,4.06
		c2.43,0.73,5.35,0.65,8.77-0.24c3.56-0.94,6.27-2.4,8.12-4.4c1.85-2,2.53-3.94,2.04-5.8c-0.24-0.92-0.74-1.58-1.5-1.98
		c-0.76-0.39-1.65-0.46-2.68-0.19l-0.34,0.09L363.66,319.92z"/>
	<path d="M551.87,596.51c-17.01,1.25-28.49-2.2-34.43-10.33c-2.83-3.87-3.68-6.96-2.56-9.26c1.12-2.3,3.7-4.93,7.74-7.88
		l23.28-17.01c-10.46,1.01-19.93,1.45-28.41,1.31l-0.11-4.92c5.29-0.19,9.88-0.41,13.75-0.66c3.87-0.24,8.83-0.72,14.89-1.42
		c6.06-0.7,9.34-1.24,9.86-1.61l39.6-28.95l16.56,2.75l-36.74,26.86l34.18-2.17l-0.04,5.88l-43.08,2.83l-29.78,21.77
		c-4.53,3.31-7.41,5.71-8.65,7.21c-1.24,1.5-1.22,3.12,0.06,4.86c3.21,4.39,11.35,6.45,24.43,6.2L551.87,596.51z"/>
	<path d="M330.53,304.08c-3.85,0.47-7.16,0.4-9.94-0.19c-2.78-0.59-4.75-1.58-5.92-2.95c-1.32-1.54-1.73-2.87-1.24-3.98
		c0.49-1.11,1.77-2.55,3.86-4.33l7.8-6.65c-3.01,1.04-6.31,1.63-9.89,1.77l-0.06-2.24c5.95-0.49,11-1.8,15.14-3.95l5.93,2.35
		l-13.59,11.59c-1.69,1.44-2.73,2.47-3.14,3.09c-0.41,0.62-0.35,1.24,0.19,1.87c1.1,1.29,4.74,1.76,10.92,1.43L330.53,304.08z
		 M345.85,278.28l-6.37,0.25l1.22-6.3l6.28-0.1L345.85,278.28z"/>
	<path d="M342.3,588.59c-5.96,9-12.08,15.9-18.36,20.71c-6.28,4.81-11.92,7.22-16.95,7.22c-5.65,0-9.21-1.52-10.67-4.55
		c-1.47-3.03-2.2-8.37-2.2-16v-28.56c-3.24,8.27-7.95,16.32-14.12,24.16l-4.86-3.92c9.73-13.49,16.06-26.57,18.98-39.22l15.69-8.32
		v49.74c0,6.17,0.29,10.25,0.86,12.24c0.57,1.99,2.01,2.98,4.31,2.98c4.71,0,12.29-6.85,22.75-20.55L342.3,588.59z M315.32,509.51
		l-10.98,13.96l-11.14-13.96l11.14-13.49L315.32,509.51z"/>
	<path d="M477.33,367.14c0.95-2.25,2.37-3.73,4.24-4.46c1.87-0.73,3.86-0.64,5.96,0.25c4.53,1.92,7.58,5.93,9.14,12.03
		c1.56,6.1,0.82,12.74-2.22,19.92c-3.35,7.89-8.05,13.7-14.12,17.45c-6.07,3.75-11.54,4.59-16.4,2.53
		c-2.73-1.16-4.58-2.93-5.57-5.33c-0.98-2.39-0.98-4.77,0.03-7.13l0.82-1.93c0.44-1.03,0.76-1.7,0.98-2l-4.14,2.55l-1.28-2.04
		c12.03-8.16,21.24-10.88,27.65-8.16c3.43,1.45,5.45,4.01,6.07,7.66c0.91-1.53,1.68-3.03,2.3-4.5c2.09-4.94,2.47-10.08,1.13-15.43
		c-1.34-5.35-4.03-8.89-8.09-10.6C481.77,367.07,479.6,366.8,477.33,367.14z M468.57,412.08c2.8,1.19,5.93,0.85,9.39-1
		s5.9-4.46,7.33-7.82c0.94-2.21,1.04-4.22,0.31-6.03c-0.73-1.81-2.17-3.17-4.3-4.08c-2.84-1.2-5.9-0.96-9.18,0.74
		c-3.28,1.69-5.59,4.11-6.92,7.24c-1.02,2.4-1.21,4.6-0.59,6.63C465.22,409.77,466.54,411.22,468.57,412.08z M491.26,414.85
		c-6.77,4.69-13.68,6-20.71,3.93l0.04-1.48c6.58,1.18,13.07-0.32,19.46-4.52L491.26,414.85z"/>
	<path d="M382.64,418.53c-0.74,0.53-1.49,1.1-2.26,1.71c-0.77,0.61-1.94,1.64-3.51,3.07c-1.57,1.43-2.41,2.28-2.51,2.54l-6.43,15.96
		c-1.12,2.77-3.02,4.85-5.72,6.25c-2.7,1.39-5.22,1.62-7.56,0.67c-2.77-1.12-3.64-2.97-2.6-5.55c0.92-2.27,2.62-4.66,5.11-7.15
		c2.49-2.49,6.9-6.02,13.23-10.58l5.99-14.86c-1.14-0.38-2.28-0.45-3.42-0.22c-1.14,0.23-3.1,1.26-5.87,3.09l-0.74-1.33
		c4.58-3.44,8.2-4.63,10.85-3.56l4.96-12.3c1.1-2.72,2.73-4.61,4.9-5.65c2.17-1.04,4.37-1.11,6.59-0.21
		c2.35,0.95,3.77,2.7,4.28,5.28l-4.07,1.7l-0.37-0.73c0.32-0.39,0.53-0.71,0.63-0.94c0.36-0.9,0.39-1.79,0.08-2.65
		c-0.31-0.87-0.92-1.48-1.82-1.85c-2.32-0.94-4.43,0.95-6.33,5.67L380.75,410c1.11,0.67,2.1,1.69,2.98,3.06
		c-0.65,0.92-1.59,1.73-2.83,2.41c-0.23-1.33-0.64-2.27-1.22-2.81l-3.8,9.42c1.87-1.92,3.91-3.56,6.12-4.93L382.64,418.53z
		 M368.99,428.94c-7.37,5.38-11.93,10.22-13.66,14.53c-0.87,2.16-0.52,3.55,1.04,4.18c1.16,0.47,2.43,0.27,3.79-0.6
		c1.37-0.87,2.45-2.3,3.26-4.29L368.99,428.94z"/>
	<path d="M572.23,606.3c0.87-1.37,1.74-2.82,2.6-4.35c0.87-1.53,2.13-4.01,3.77-7.44c1.65-3.43,2.47-5.39,2.47-5.9v-30.78
		c0-5.35,1.77-10.08,5.31-14.19c3.54-4.11,7.57-6.17,12.1-6.17c5.35,0,8.02,2.49,8.02,7.47c0,4.39-1.23,9.48-3.7,15.29
		c-2.47,5.8-7.43,14.6-14.88,26.39v28.65c2.15-0.14,4.09-0.78,5.83-1.92c1.74-1.14,4.3-4.16,7.68-9.05l2.12,1.71
		c-5.3,8.77-10.51,13.16-15.63,13.16v23.72c0,5.25-1.45,9.47-4.35,12.65c-2.9,3.18-6.5,4.76-10.8,4.76c-4.52,0-8.07-1.97-10.63-5.9
		l5.62-5.55l1.1,0.96c-0.27,0.87-0.41,1.53-0.41,1.99c0,1.74,0.55,3.22,1.65,4.46s2.51,1.85,4.25,1.85c4.48,0,6.72-4.55,6.72-13.64
		v-25.29c-2.29-0.37-4.62-1.39-6.99-3.08c0.46-1.96,1.48-3.93,3.08-5.9c1.28,2.06,2.58,3.34,3.91,3.84v-18.17
		c-1.83,4.43-4.11,8.52-6.85,12.27L572.23,606.3z M587.93,579.91c8.64-13.85,12.96-24.93,12.96-33.25c0-4.16-1.51-6.24-4.52-6.24
		c-2.24,0-4.2,1.18-5.9,3.53c-1.69,2.35-2.54,5.45-2.54,9.29V579.91z"/>
	<path d="M405.35,451.94c1.35,0.44,2.77,0.86,4.26,1.26c1.49,0.4,3.87,0.93,7.13,1.57s5.11,0.91,5.54,0.8l26.1-6.73
		c4.53-1.17,8.93-0.7,13.19,1.4c4.26,2.1,6.89,5.08,7.88,8.91c1.17,4.53-0.36,7.35-4.58,8.43c-3.72,0.96-8.31,1.03-13.77,0.2
		c-5.46-0.82-14.01-3.11-25.63-6.85l-24.3,6.26c0.59,1.79,1.55,3.3,2.9,4.52c1.35,1.22,4.47,2.73,9.35,4.53l-0.99,2.18
		c-8.6-2.58-13.46-6.04-14.58-10.38l-20.11,5.18c-4.46,1.15-8.35,0.84-11.68-0.93c-3.33-1.77-5.46-4.47-6.4-8.11
		c-0.99-3.84-0.1-7.27,2.68-10.3l5.94,3.55l-0.57,1.14c-0.8-0.04-1.39-0.01-1.78,0.09c-1.47,0.38-2.61,1.17-3.42,2.37
		c-0.81,1.2-1.02,2.54-0.64,4.01c0.98,3.8,5.33,4.7,13.04,2.72l21.45-5.53c-0.19-2.02,0.17-4.22,1.09-6.6
		c1.77-0.04,3.66,0.4,5.67,1.33c-1.46,1.53-2.27,2.92-2.4,4.15l15.41-3.97c-4.16-0.58-8.13-1.62-11.9-3.13L405.35,451.94z
		 M431.16,459.48c13.63,4.3,23.97,5.54,31.03,3.72c3.53-0.91,4.96-2.64,4.3-5.2c-0.49-1.9-1.92-3.31-4.28-4.23
		c-2.37-0.92-5.18-0.96-8.43-0.12L431.16,459.48z"/>
	<path d="M544.95,255.27c2.85,4.87,3.65,8.41,2.41,10.64l10.15,5.39c1.64,0.87,3.14,1.82,4.51,2.85c1.37,1.03,2.18,2.46,2.42,4.29
		c0.25,1.83,0.04,3.37-0.64,4.64c-1.32,2.49-3.36,3.45-6.11,2.89c-0.32-1.24-0.48-2.59-0.48-4.07l0.6-0.02
		c0.32,0.34,0.63,0.58,0.91,0.74c0.81,0.43,1.59,0.55,2.34,0.38c0.75-0.18,1.33-0.66,1.75-1.44c0.6-1.14,0.37-2.15-0.69-3.05
		c-1.06-0.9-3.5-2.36-7.32-4.39l-20.27-10.76c1.28,1.55,2.62,3.68,4.02,6.42l-1.39,0.48c-2-3.5-4.01-6.37-6.01-8.6l0.12-4.26
		l14.21,7.54c0.53-1,0.66-2.15,0.39-3.42c-0.27-1.28-1.06-3.17-2.36-5.68L544.95,255.27z M525.31,253.2l1.89,3.94l-4.31,0.61
		l-1.81-3.86L525.31,253.2z"/>
	<path d="M366.3,600.18c-10.35-17.14-13.38-29.68-9.1-37.65l-36.31-18.61c-5.86-3-11.24-6.3-16.15-9.9
		c-4.91-3.6-7.85-8.63-8.83-15.1c-0.98-6.47-0.3-11.96,2.02-16.49c4.56-8.9,11.74-12.42,21.53-10.56c1.21,4.37,1.85,9.18,1.92,14.44
		l-2.12,0.1c-1.17-1.19-2.25-2.04-3.27-2.56c-2.89-1.48-5.66-1.89-8.32-1.23c-2.65,0.66-4.7,2.4-6.14,5.21
		c-2.08,4.06-1.21,7.66,2.6,10.8c3.82,3.14,12.56,8.21,26.22,15.21L402.85,571c-4.62-5.42-9.49-12.95-14.61-22.57l4.9-1.78
		c7.29,12.32,14.55,22.4,21.77,30.24l-0.21,15.13l-50.84-26.05c-1.84,3.59-2.25,7.65-1.21,12.17c1.03,4.52,3.92,11.2,8.66,20.04
		L366.3,600.18z M436.11,606.53l-6.93-13.9l15.27-2.38l6.63,13.61L436.11,606.53z"/>
	<path d="M452.63,710.24c5.41,12.59,5.83,22.18,1.27,28.77c-2.3,3.32-5.44,5.41-9.42,6.27c-3.98,0.86-11.14,1.06-21.47,0.63
		l2.08,7.12l10.23,7.07l-1.37,10.19l-27.66-19.12l7.37,19.46l-3.55,0.78c-6.82-16.45-10.56-24.9-11.21-25.35l-34.14-23.6
		c-6.08-4.2-9.99-9.93-11.73-17.19c-1.74-7.25-0.89-13.37,2.54-18.34c3.92-5.68,8.73-6.55,14.4-2.63
		c4.42,3.06,9.34,9.05,14.74,17.99c5.41,8.94,10.74,20.23,16,33.89l19.82,13.7c-3.22-10.91-4.97-18.88-5.25-23.9
		c-0.28-5.02,0.62-9.04,2.71-12.05c1.53-2.21,3.66-3.54,6.38-4c2.73-0.45,4.62-0.32,5.67,0.41c1.51,1.04,2.05,4.02,1.63,8.92
		c-5.33-1.09-8.85-0.41-10.55,2.05c-1.94,2.81-2.02,7.83-0.24,15.07c8.72,0.27,15.43,0.22,20.12-0.14
		c4.69-0.36,8.16-2.17,10.42-5.44c2.05-2.96,1.28-9.47-2.32-19.53L452.63,710.24z M394.85,732.12
		c-4.38-10.31-8.98-18.99-13.78-26.06c-4.8-7.07-9.21-11.99-13.23-14.77c-1.96-1.35-3.97-2.02-6.03-1.99
		c-2.06,0.03-3.66,0.87-4.81,2.52c-1.84,2.66-1.83,6.01,0.02,10.04c1.86,4.03,4.94,7.54,9.26,10.52L394.85,732.12z"/>
	<path d="M504.79,260.67c-1.98,2.19-4.09,3.96-6.33,5.31l8.32-1.42c2.56-0.44,4.24-0.44,5.05-0.02c0.81,0.43,1.31,1.17,1.49,2.24
		c0.61,3.56-1.49,7.62-6.29,12.17l-1.43-1.21c3.47-3.73,5.09-6.28,4.85-7.65c-0.11-0.64-0.52-0.98-1.23-1.01
		c-0.71-0.04-2.01,0.11-3.9,0.43l-13.2,2.26c-6.61,6.05-11.81,10.44-15.6,13.15c-3.78,2.72-6.89,4.28-9.33,4.7
		c-1.83,0.31-3.37,0.11-4.62-0.6c-1.25-0.71-2.01-1.86-2.28-3.44c-0.51-2.99,0.77-6.15,3.83-9.5c3.07-3.35,6.78-5.39,11.13-6.13
		l17.68-3.02c0.49-0.08,1.43-0.55,2.84-1.4c1.41-0.85,2.53-1.6,3.38-2.25c0.85-0.65,1.59-1.27,2.22-1.86
		c0.64-0.59,1.31-1.25,2.04-1.97L504.79,260.67z M473.24,274.99c-3.72,0.63-6.54,1.8-8.48,3.49c-1.94,1.69-2.74,3.5-2.41,5.42
		c0.36,2.1,2.24,2.86,5.66,2.28c2.22-0.38,4.74-1.48,7.55-3.29c2.81-1.81,7.22-5.33,13.22-10.56L473.24,274.99z"/>
	<path d="M540.31,385.78c-0.15,1.31-0.26,2.53-0.35,3.65c-0.09,1.12-0.12,2.37-0.1,3.75c0.03,1.38,0.18,3.12,0.45,5.24
		c0.27,2.11,0.56,3.45,0.87,4.01l11.19,20.36c2.76,5.01,3.68,10.42,2.76,16.23c-0.92,5.8-3.1,9.65-6.54,11.54
		c-1.82,1-3.6,1.16-5.33,0.46c-1.73-0.69-3.17-2.09-4.33-4.2c-1.54-2.81-2.46-7.22-2.76-13.25c-0.3-6.03-0.05-14.83,0.76-26.41
		l-8.36-15.2c-1.2-2.17-2.1-3.61-2.71-4.3c-0.61-0.69-1.28-0.84-2.02-0.43c-1.58,0.87-2.86,4.56-3.84,11.09l-2.38-0.47
		c0.74-8.54,3.16-13.93,7.27-16.19c1.23-0.68,2.38-0.77,3.47-0.3c1.08,0.48,2.44,2.19,4.06,5.13l5.26,9.57
		c-0.44-3.37-0.34-6.94,0.28-10.7L540.31,385.78z M539.04,411.01c-0.46,10.3-0.47,17.6-0.04,21.91c0.43,4.31,1.35,7.74,2.75,10.3
		c2.16,3.93,4.45,5.23,6.87,3.9c2.21-1.21,3.39-3.49,3.55-6.82c0.16-3.33-0.94-7.13-3.29-11.41L539.04,411.01z"/>
	<path d="M456.6,753.68c6.07-2.71,12.04-4.44,17.91-5.2l-18.45-4.64c-5.68-1.43-9.16-2.95-10.44-4.57s-1.63-3.61-1.03-5.97
		c1.99-7.91,10.01-14.37,24.06-19.39l1.85,3.81c-10.55,4.53-16.21,8.32-16.98,11.36c-0.36,1.42,0.18,2.49,1.62,3.21
		c1.44,0.72,4.25,1.61,8.44,2.66l29.3,7.37c19.16-6.46,33.88-10.77,44.16-12.93c10.28-2.16,18.12-2.56,23.53-1.19
		c4.06,1.02,7.05,2.83,8.98,5.44c1.93,2.61,2.45,5.67,1.57,9.18c-1.67,6.62-7.19,11.99-16.55,16.1c-9.37,4.11-18.89,4.95-28.55,2.52
		l-39.23-9.87c-1.08-0.27-3.46-0.17-7.14,0.31c-3.68,0.48-6.68,1-9.02,1.56c-2.33,0.56-4.43,1.17-6.28,1.82
		c-1.85,0.65-3.85,1.39-6,2.21L456.6,753.68z M534.74,752.86c8.24,2.07,15.14,2.25,20.68,0.51c5.54-1.73,8.84-4.73,9.91-8.99
		c1.17-4.66-2.03-7.95-9.59-9.85c-4.94-1.24-11.13-1.27-18.57-0.09c-7.45,1.18-19.75,4.43-36.89,9.74L534.74,752.86z"/>
	<path d="M465.12,438.55c1.35,0.99,2.62,1.88,3.8,2.69c1.18,0.81,2.53,1.63,4.07,2.47c1.53,0.84,3.55,1.77,6.04,2.81
		c2.49,1.03,4.14,1.56,4.96,1.57l29.44,0.52c7.25,0.13,13.78,2.52,19.58,7.19c5.8,4.67,8.66,9.49,8.57,14.46
		c-0.05,2.64-1,4.69-2.85,6.15c-1.85,1.46-4.3,2.17-7.34,2.12c-4.06-0.07-9.49-1.84-16.3-5.31c-6.81-3.47-16.34-9.29-28.57-17.47
		l-21.98-0.39c-3.14-0.06-5.29,0.03-6.43,0.27c-1.15,0.23-1.73,0.88-1.75,1.95c-0.04,2.28,3.22,6.02,9.77,11.2l-2.02,2.32
		c-8.92-6.19-13.33-12.26-13.23-18.19c0.03-1.78,0.65-3.11,1.86-4c1.21-0.89,3.94-1.3,8.2-1.23l13.84,0.24
		c-3.98-1.64-7.84-3.99-11.59-7.05L465.12,438.55z M492.06,455.83c11.04,6.99,19.06,11.61,24.07,13.85
		c5.01,2.24,9.36,3.4,13.06,3.46c5.68,0.1,8.55-1.6,8.61-5.1c0.06-3.19-1.7-5.93-5.26-8.2c-3.56-2.27-8.44-3.46-14.62-3.57
		L492.06,455.83z"/>
	<path d="M378.1,282.39c3.21,2.94,4.63,6.32,4.28,10.13c-0.2,2.13-1.12,3.81-2.77,5.03c-1.65,1.22-3.68,1.72-6.07,1.5
		c-3.88-0.36-7.35-2.12-10.41-5.3c-3.07-3.18-4.44-6.54-4.11-10.09c0.24-2.59,1.25-4.55,3.05-5.85c1.79-1.31,4.22-1.82,7.27-1.54
		l7.39,0.68c-2.75-1.38-5.54-3.29-8.36-5.74l1.46-1.31c2.75,2.11,5.42,3.88,8,5.33c2.58,1.45,3.96,2.18,4.12,2.19l18.27,1.68
		c5.68,0.52,10.16,2.18,13.45,4.96c3.29,2.79,4.78,5.79,4.49,9.01c-0.15,1.64-0.85,2.93-2.09,3.86c-1.24,0.93-2.77,1.31-4.58,1.14
		c-2.56-0.24-5.87-1.49-9.94-3.77c-4.06-2.28-9.79-6.06-17.19-11.34L378.1,282.39z M388.39,283.34c6.21,4.31,10.79,7.19,13.73,8.64
		c2.94,1.45,5.61,2.28,8,2.5c1.61,0.15,2.93-0.08,3.98-0.68c1.05-0.6,1.62-1.46,1.72-2.57c0.15-1.61-0.67-2.98-2.45-4.12
		c-1.78-1.14-4.23-1.85-7.34-2.14L388.39,283.34z M367.95,281.46c-4.37-0.4-6.69,0.88-6.96,3.83c-0.18,2,0.7,3.95,2.64,5.83
		c1.95,1.88,4.35,2.96,7.2,3.22c2.36,0.22,4.28-0.15,5.74-1.11c1.46-0.96,2.27-2.31,2.43-4.05c0.19-2.04-0.41-3.72-1.79-5.06
		c-1.38-1.34-2.22-2.02-2.52-2.04L367.95,281.46z M365.85,305.36c-5.38-4.14-8.14-9.24-8.28-15.31l1.17-0.29
		c0.7,5.4,3.51,10.12,8.43,14.19L365.85,305.36z"/>
	<path d="M523.08,305.64l-5.24,5.59l-5.24-5.36l5.24-5.82L523.08,305.64z"/>
	<path d="M363.05,325.77l-5.48,5.84l-5.48-5.6l5.48-6.09L363.05,325.77z"/>
	<path d="M237.66,199.04c-1.91,7.45-1.61,13.35,0.91,17.68c1.89,3.25,5.31,6.6,10.25,10.06c4.94,3.46,11.36,6.59,19.24,9.4
		c7.87,2.9,13.73,5.84,17.58,8.82c3.85,2.98,6.9,6.41,9.16,10.28c5.14,8.82,5.9,19.06,2.27,30.71
		c-3.63,11.65-11.31,20.89-23.05,27.73c-9.46,5.51-18.46,7.57-27.02,6.18c-8.55-1.39-15.05-5.9-19.5-13.53
		c-4.18-7.18-5.25-14.93-3.19-23.26c2.05-8.33,6.44-14.45,13.16-18.37c5.36-3.12,10.46-4.15,15.31-3.08
		c4.85,1.06,8.64,3.93,11.36,8.6c4.11,7.06,3.54,14.53-1.71,22.4l-2.24-1.1c2.05-5.39,1.81-10.25-0.71-14.58
		c-2.16-3.7-5.5-6.13-10.02-7.27c-4.52-1.14-8.74-0.57-12.68,1.72c-4.27,2.49-6.89,6.25-7.85,11.27c-0.96,5.03-0.02,9.99,2.84,14.89
		c4.05,6.95,10.49,11.26,19.33,12.95c8.84,1.68,17.44,0.08,25.82-4.8c7.69-4.48,12.7-10.43,15.01-17.85
		c2.32-7.42,1.7-14.17-1.85-20.27c-4.22-7.24-12.61-13.07-25.18-17.49c-14.32-4.93-24.23-12.13-29.74-21.59
		c-4.45-7.63-5.44-17.13-2.97-28.48c-13.42,1.71-23.15,4.33-29.19,7.85c-6.84,3.98-10.75,12.14-11.73,24.46l-3.89-0.59
		c0.31-8.12,2.01-14.95,5.12-20.49c3.1-5.55,8.38-10.49,15.85-14.84c5.98-3.48,15.78-6.25,29.38-8.3
		c5.7-9.73,12.28-16.77,19.75-21.12c4.61-2.69,9.02-4.03,13.21-4.04c4.2,0,7.07,1.33,8.63,4.01c1.76,3.02,1.3,6.76-1.37,11.21
		c-2.67,4.45-6.8,8.31-12.38,11.56C259.81,193.12,250.5,196.21,237.66,199.04z M243.46,187.19c11.83-0.79,20.05-2.52,24.66-5.21
		c5.93-3.45,7.99-6.72,6.2-9.79c-1-1.71-3.25-2.51-6.78-2.4c-3.52,0.11-7.05,1.19-10.58,3.25
		C251.94,175.96,247.44,180.68,243.46,187.19z"/>
	<path d="M526.15,301.72c0.33-0.07,0.8-0.1,1.41-0.1c1.64,0,3,0.5,4.08,1.51c1.08,1.01,1.62,2.3,1.62,3.87
		c0,2.43-1.22,4.44-3.66,6.05c-2.44,1.61-5.71,2.41-9.82,2.41c-5.05,0-9.12-1.06-12.22-3.18c-3.09-2.12-4.64-4.76-4.64-7.9
		c0-3.02,1.44-5.5,4.31-7.46c2.87-1.96,6.51-2.94,10.9-2.94c8.13,0,13.87,3.36,17.22,10.07l-0.82,0.49
		c-3.3-5.07-8.11-7.61-14.43-7.61c-4.18,0-7.69,0.94-10.53,2.81c-2.84,1.87-4.26,4.04-4.26,6.49c0,2.1,1.12,3.84,3.35,5.21
		c2.23,1.37,5.17,2.05,8.82,2.05c3.8,0,6.89-0.76,9.26-2.27c2.37-1.51,3.56-3.27,3.56-5.26c0-0.99-0.33-1.78-0.98-2.37
		c-0.66-0.59-1.53-0.89-2.62-0.89h-0.36L526.15,301.72z"/>
</g>
</svg>
