<?xml version="1.0" encoding="utf-8"?>
<!-- Generator: Adobe Illustrator 27.8.1, SVG Export Plug-In . SVG Version: 6.00 Build 0)  -->
<svg version="1.1" id="icons" xmlns="http://www.w3.org/2000/svg" xmlns:xlink="http://www.w3.org/1999/xlink" x="0px" y="0px"
	 viewBox="0 0 360 360" style="enable-background:new 0 0 360 360;" xml:space="preserve">
<style type="text/css">
	.st0{fill:none;stroke:#000000;stroke-width:30;stroke-linecap:round;stroke-linejoin:round;stroke-miterlimit:6.25;}
	.st1{fill:none;stroke:#000000;stroke-width:30;stroke-linecap:round;stroke-miterlimit:15.625;}
</style>
<g>
	<polyline class="st0" points="139.4,38.1 180,14.4 220.6,38.1 	"/>
	<line class="st1" x1="180" y1="14.4" x2="180" y2="73.5"/>
	<polyline class="st0" points="220.6,321.9 180,345.6 139.4,321.9 	"/>
	<line class="st1" x1="180" y1="345.6" x2="180" y2="286.5"/>
	<polyline class="st0" points="38.1,144.2 38.1,97.2 77.4,73.9 	"/>
	<line class="st1" x1="38.1" y1="97.2" x2="87.8" y2="126.8"/>
	<polyline class="st0" points="321.9,215.8 321.9,262.8 282.6,286.1 	"/>
	<line class="st1" x1="321.9" y1="262.8" x2="272.2" y2="233.2"/>
	<polyline class="st0" points="77.4,286.5 38.1,262.8 38.1,215.8 	"/>
	<line class="st1" x1="38.1" y1="262.8" x2="87.3" y2="233.2"/>
	<polyline class="st0" points="282.6,73.9 321.9,97.2 321.9,144.2 	"/>
	<line class="st1" x1="321.9" y1="97.2" x2="272.2" y2="126.8"/>
	<polyline class="st1" points="180,227.3 180,180 220.6,156.3 	"/>
	<line class="st1" x1="180" y1="180" x2="139.4" y2="156.3"/>
</g>
</svg>
