<?xml version="1.0" encoding="utf-8"?>
<!-- Generator: Adobe Illustrator 27.8.1, SVG Export Plug-In . SVG Version: 6.00 Build 0)  -->
<svg version="1.1" id="Layer_1" xmlns="http://www.w3.org/2000/svg" xmlns:xlink="http://www.w3.org/1999/xlink" x="0px" y="0px"
	 viewBox="0 0 360 360" style="enable-background:new 0 0 360 360;" xml:space="preserve">
<style type="text/css">
	.st0{fill:#004482;}
	.st1{fill:#00599C;}
	.st2{fill:#659AD2;}
	.st3{fill:#FFFFFF;}
</style>
<g>
	<path class="st0" d="M339.9,105.8c0.1-5.6-1.2-11.1-3.9-16c-2.8-4.7-6.8-8.6-11.6-11.3C281.8,54,239.2,29.4,196.6,4.9
		c-11.5-6.6-22.6-6.4-34,0.3c-17,10-101.8,58.7-127.1,73.3C25,84.6,20,93.8,20,105.8v148.3c-0.1,5.5,1.2,10.9,3.8,15.7
		c2.8,4.9,6.9,8.9,11.8,11.6c25.3,14.7,110.2,63.4,127.2,73.4c11.4,6.7,22.5,7,34,0.3c42.6-24.6,85.2-49.2,127.8-73.7
		c4.9-2.7,9-6.7,11.8-11.6c2.6-4.8,3.9-10.2,3.8-15.7V105.8H339.9z"/>
	<path class="st1" d="M340,254.2c0.1,5.5-1.2,10.9-3.8,15.7c-0.6,1.1-1.3,2.3-2.1,3.3L179.9,180L324.4,78.6
		c4.8,2.7,8.8,6.6,11.6,11.3c2.7,4.9,4,10.4,3.9,16C340,155.3,340,254.2,340,254.2L340,254.2z"/>
	<path class="st2" d="M336,89.8l-312.3,180c-2.6-4.8-3.8-10.2-3.7-15.7V105.8c0-12,5.1-21.2,15.5-27.3
		C60.7,63.9,145.6,15.2,162.6,5.2c11.4-6.7,22.5-7,34-0.3c42.6,24.6,85.2,49.2,127.8,73.7C329.2,81.2,333.2,85.1,336,89.8z"/>
	<path class="st3" d="M186.1,239.9c-21.4,0-41.2-11.6-51.5-30.4c-0.5-0.9-1-1.9-1.5-2.8c-14.1-29.2-1.9-64.4,27.3-78.5
		c24.4-11.8,53.8-5.4,71,15.6c0.8,0.9,1.5,1.9,2.3,2.9c0.4,0.5,0.7,1,1,1.5l51.6-29.7c-1.3-2-2.6-4-3.9-5.9c-0.7-1-1.5-2-2.2-2.9
		c-39.6-51.5-113.4-61.1-164.9-21.5c-45.2,34.8-58.9,97-32.5,147.6c0.5,0.9,1,1.9,1.5,2.8c32,56.5,103.8,76.3,160.3,44.3
		c16.7-9.5,30.8-22.8,41.1-39l-50.5-30.5C224.4,230,205.9,239.9,186.1,239.9L186.1,239.9z"/>
</g>
</svg>
