<?xml version="1.0" encoding="utf-8"?>
<!-- Generator: Adobe Illustrator 27.8.1, SVG Export Plug-In . SVG Version: 6.00 Build 0)  -->
<svg version="1.1" id="Layer_1" xmlns="http://www.w3.org/2000/svg" xmlns:xlink="http://www.w3.org/1999/xlink" x="0px" y="0px"
	 viewBox="0 0 360 360" style="enable-background:new 0 0 360 360;" xml:space="preserve">
<path d="M107.6,305.4c-13.7-10.8-28.3-21.1-38.3-35.7C48.2,244,32,214.3,20.9,183c-6.7-20.3-9-42.1-17.6-61.6
	c-9-14.2,1.6-29.7,17.1-34.2c6.9-1.3,19.1-7.9,4.4-3.2c-13.2,9.7-14.4-8.8-0.9-9.9c9.2-1.2,12.6-8.8,9.5-15.5
	c-9.9-6.5,24-13.5,6.9-23.2c-17.7-19.2,24.8-22.8,14.3-1.1C52.1,51,84.4,31.2,76.9,50.5c7.6,9.3,28.5,2.1,28,15.1
	c11.1,0.8,14.9,10.1,25.3,10.8c10.8,4.9,30.3,8.7,34,20.9c-10.7,8.5-35.5-17.5-36.7,6c3.2,34.6,2.4,70.3,15.1,103.3
	c6,20,20.5,35.7,33.7,51.3c12.6,15.2,29.6,26,46.9,35c15.2,7.2,31.6,11.9,48.2,14.9c6.7-5.1,18.6-24.3,29.1-16.2
	c0.5,9.1-20.8,18.9-1,17.9c11.6-3.5,19.7,9,29.3-2.3c8.8,10.5,36.7-6.7,30.4,14.7c-8.5,5.5-20.9,2.2-29.4,9.7
	c-14-7-25.2,6.3-40.7,4.6c-17.2,3.1-34.8,4.3-52.3,4.4c-28.7-2.3-58-3.2-85.3-13.2C136.1,322.9,121.1,314.1,107.6,305.4L107.6,305.4
	z M131.8,315.9c15,6.5,29.7,13.3,46.1,15.4c26.1,3.6,53,9.2,79.2,4.1c-11.9-5.4-24.1,2.1-35.9-3.8c-14.2,3-29.4-0.8-43.8-2.7
	c-16.4-7.3-34-12.3-49.4-21.8c-19.2-7,9.9,9,15.1,10.3c12,6.8-13.2-3.5-16.7-6.3c-10-5.6-11.3-4.5-1,1.3
	C127.6,313.6,129.6,314.9,131.8,315.9L131.8,315.9z M103.2,295.7c14.5,5.4-0.1-10.2-6.7-9.3c-3-5.1-11.3-8.4-5.4-11.1
	c-10.6,3.7-11.1-13.9-16-11.4c-11.2-3.5-4.4-16-17.7-23.7c-1.2-8.1-13.2-15.1-17.1-27.3c-1.7-6.3-13.6-24.2-6.3-7.5
	c6.2,16.1,17.1,29.9,26.3,43.6c7.1,13.1,15.4,26.8,28.3,35C92.9,288,97.1,294.4,103.2,295.7L103.2,295.7z M61.3,249.7
	C61.8,247.5,64,254.5,61.3,249.7z M120.7,302.2C123.9,300.7,116,300.3,120.7,302.2z M128.6,305C127.7,301.1,125,307.3,128.6,305z
	 M138.4,309.2C143.1,304.7,131.2,306.3,138.4,309.2z M155.4,318.6C158.2,314.4,146.2,317,155.4,318.6z M122.9,295.9
	C130.2,291.2,113.4,295.9,122.9,295.9z M130.3,299.6C130.1,297.1,127.6,300.7,130.3,299.6z M167.3,322.8c6,3.8,34.8,8.2,16.7,1.5
	C181,324.9,150.6,315.7,167.3,322.8z M108.5,276.9C107.9,274.4,99.2,274.2,108.5,276.9z M125.7,287
	C130.2,283.9,116.4,284.6,125.7,287z M140.3,295.9C146.7,293.5,129.8,293.5,140.3,295.9z M101.5,269.3c7,5.4,28.2,0.7,10.7-3.2
	c-8-4.2-25.9-7.1-13.7,2.6L101.5,269.3z M150.1,299C153,294,137.9,296.1,150.1,299z M135.3,287.2c17.1,4.8-14.4-10.8-4.2-1.8l2.3,1
	L135.3,287.2z M164.9,304.3C181.1,304.5,150.3,302.1,164.9,304.3z M95.3,259.9C94.6,256.9,91.3,260.2,95.3,259.9z M192.3,319.7
	C192.7,314.3,187,323.8,192.3,319.7z M122.9,276.8C121.9,274,117.8,276.7,122.9,276.8z M96.8,258C106.1,257.5,84.1,254,96.8,258z
	 M65.9,238.1C64.7,233.6,55.8,230.1,65.9,238.1z M147,289.6C145.3,287.6,146.2,290,147,289.6z M197.5,320.5
	C197.3,317.6,194.8,321.7,197.5,320.5z M142.5,284.9C143.5,281.1,134.6,283.8,142.5,284.9z M104.9,261.1
	C111.8,260.4,93.8,256.4,104.9,261.1z M168.6,300.6C179.3,296.4,158.1,298.6,168.6,300.6z M135.5,278.2c12.4,1.6-14.8-8.5-2.7-0.9
	L135.5,278.2z M178.6,304.7c11.6-6.9,7.8,16.2,19.7,2c11.7-8.6-10.1,10.6,4.3,1.5c10.5-7,25.9,3.3,35.7,6.7c7-0.3,13.8,6.1,21,2.2
	c13.8-3.7-27.1-5.5-16.4-12.1c-12.7,3.7-22-4.4-28.3-12.5c-14.2-3.3-30.6-10.5-37.7-23.1c-2.9-4.7,4.2,0.7-2.5-7.1
	c-8.6-7.6-12.8-16.3-18.6-25.5c-6.9-3.7-7.7-14.4-8.4-0.4c0.1-8.9-8.3-14.9-10.3-12.4c0-8.6,8.9-4.3,2.7-10.6
	c-1.4-8.9-5.8-18.1-7.1-28.1c-2.1-4.8-0.3-15.2-7.1-4.2c-2.5,11.6-0.8-14.2,3-5.7c5.1-8.7-1.8-7.6-2.1-6.4
	c3.3-7.3,2.1-17.7-0.9-13.7c1.8-7.8,2.8-28.5-2.6-24.8c3.3-8.1,6.2-37.1-8-26c-5.8,0.1-15.7,2.1-20.4,4.4c14.8,8.1-1.5,2.9-7.5,1.6
	c-0.8,7.5-6.7,4.3-14.2,4.4c11.9,1.5-5.8,12.2-12.6,8c-8.9,4.2,7.6,14.8,0.2,18.1c0.9,4.9-13.6-1.8-12.4,9.6
	c-8.6-3.6-1.2,13.5,3.1,7.7c14.6,4,10.3,13,10.7,21.6c-2.4,5-11.8-11.7-2.1-11c-7.6-12.4-8.4-4.5-14.8,1.3c-1.5,0.4,16.2,8.2,5.1,12
	c9.7,1.5,10,10,12,15.4c5.9,6.1,4.7-6.7,11.7,0.6c-4.4-6.5-23.5-18.4-8.2-14.6c-0.1-6.6-2.8-11.9,1.9-11.8
	c4.7-8.4-4.9,20.8,5.6,10.1c2.9-1.3,3.6-8.4,8.9,0.7c7.6,7.5,2.7,12.9-8,6c1.9,6.5,14.3,8.8,12,19c2.5,8.9,5.9,5.6,8.9,5.1
	c2.4,8.7,3.7,2.3,3.8-1.8c10.8,2.3,8.3,8.7,11.7,13.2c7.5,3.4-10.7-22.8,2.1-7.9c13.5,12.2,5.1,17.2-7,15.3
	c7.7-0.6,10.1,10.3,19.7,10c8.7,4.2,14.6,20.1-0.4,13.5c-5.2-4.7-23.7-10.5-8.6-1.6c13.9,6.5,25,10.3,38.4,18.4
	c9.6,6.9,13.8,14.7,17.4,16.3c-8.1,3.9-24.3-3.1-12.3-5.2c-7.5-1.4-16-5.2-8.8,4.2c6.1,5.1,21.7,4.6,24.6,5.2
	c-2.4,5.2-6.4,5.6,0.1,6C168.3,301.9,177.9,302.5,178.6,304.7L178.6,304.7z M163.7,262.6c-4.4-4.6-5.6-13.3-0.8-5.8
	C165.4,257.8,170.8,271,163.7,262.6z M212.3,293.4C215,293.3,212.4,295.5,212.3,293.4z M156.7,251.2
	C156.5,244.2,158.3,256.6,156.7,251.2z M151.9,244.7C146.3,233.9,158.9,247.8,151.9,244.7z M93.3,204.3
	C96.6,203.4,95,209.9,93.3,204.3z M139.9,229.6C141.9,222,142.3,235.9,139.9,229.6z M107,206.7C104.7,202.5,111.9,210.6,107,206.7z
	 M135.2,215.7c-5.3-11.8,3.8-6.5,1.2,1.9L135.2,215.7z M86.6,183.3c-2.4-3.9-6.3-15.3-5-18.8c1.1,5.7,12.1,24.4,5.4,7.8
	c-7.4-13.9,8.9,4.5,10.5,8c0.8,3.5-4.6-0.9-0.9,7.2C89.9,178.2,92.6,192.5,86.6,183.3z M71.5,172.9
	C72.1,163.8,74.9,179.1,71.5,172.9z M78.3,175.2C81.5,168.4,83.7,184.7,78.3,175.2z M62,162.6c-5.6-5.6-9.7-10.7,0.3-3.5
	c3.8,0.1-8.5-11.7,0.9-3.8C73.1,157.2,68.1,171.6,62,162.6L62,162.6z M70.5,162.4C73.8,159.2,72.3,165.6,70.5,162.4z M75.8,164.1
	C70.9,154.8,81.8,168,75.8,164.1z M65.3,154.1c-16.3-14.5,20.5,7.6,2.7,2.7L65.3,154.1z M112,181.2c-7.1-4.2-1.9-29.7,0.5-12.3
	c6.9-2.2-0.4,9,4.7,8.9C116.5,184.9,114.2,187.5,112,181.2z M129.3,191.4C130,183.7,130.7,196.7,129.3,191.4z M126.3,188.4
	C127,185.2,126.4,192.3,126.3,188.4z M68.5,149.3c-10.5-14.4,30.4,14.6,6.7,3.7C72.8,152.3,69.8,152.1,68.5,149.3z M101.8,166.9
	C100.8,154.8,104,169,101.8,166.9z M127,183.1C129,176.2,127.2,187.7,127,183.1z M70.1,143.8c6.2-1.3,25.8,10.9,7.8,3.5
	C76,145.1,71.7,146.1,70.1,143.8L70.1,143.8z M123.5,170.4c0.7-12.4,3.7-7.4,0,1.8L123.5,170.4L123.5,170.4z M74.8,139.5
	c2.5-3.7-6.7-16.8,1.3-4.7c3.5,2.8,10.1,4.6,4.3,5.8C89.5,148.7,78.1,142.8,74.8,139.5z M120.9,166.5
	C122.7,152.4,122.5,174.8,120.9,166.5z M69.5,126.4C71.4,125.6,70.5,129,69.5,126.4z M81.5,133.6C84.6,127.1,87.2,140.8,81.5,133.6z
	 M115.5,152.5C115.4,150,116.1,156.1,115.5,152.5z M113.5,148.1C108.8,136.5,117.9,154.3,113.5,148.1z M110.6,140.5
	C109.8,135.7,113.3,146.5,110.6,140.5z M115.3,132.8c-3.2-5.7,4.1-25.1,4.9-13.1c-3.4,9.4-1,14.6,1.4,2
	C126,111.9,120.6,141.3,115.3,132.8L115.3,132.8z M120.1,104C121.5,102.2,120.5,106,120.1,104z M112.1,263.2
	C110.1,261.5,112.3,264.2,112.1,263.2z M128.7,271.6c9.3,2.4,9.2-1.4,0.8-2.6c-4.5-4.2-18.7-8.6-6-0.5
	C124.4,270.6,127.1,270.6,128.7,271.6z M95.8,249.7c5.1,3.8,19.2,10.8,7.3,1.5c4-4.7-7.7-7.2-3.8-10.3c-9.9-6.1-7.8-5.5-0.9-5.3
	c-11.9-5.3,1.7-4.9,1.1-7.6c-4.6-0.9-22.8-8.1-12.1,0.6c-10.9-5.5-2.6,2.1-5.9,1.3c-11.1-3,9.9,8.5-1.8,5.6c6.4,5.1,17.2,13,2.7,5.4
	C80.5,243.5,92.8,247.7,95.8,249.7L95.8,249.7z M113.2,259.8C134.4,266.6,102.9,251.4,113.2,259.8z M202.3,313.7
	C202.6,309.5,199.5,317.3,202.3,313.7z M211.5,317.6c4.9-4.7,0.2,7.5,8.1-1.2c0.1-6.2-0.2-9.9-9.1-2.3
	C208.1,315.4,207,321.2,211.5,317.6L211.5,317.6z M66.1,226.3C64.6,220.4,55.6,220.4,66.1,226.3z M75.9,232.7
	C72.3,226.7,62.9,227.2,75.9,232.7z M131.5,266.2c5.4,4.8,24.9,3.5,6.6,0.6C135.4,262.8,120.9,263.8,131.5,266.2z M208,313.5
	C216.4,306.5,199.9,316.6,208,313.5z M225.4,325.4C225.5,323.2,221.8,326.4,225.4,325.4z M225.4,322.3
	C234.7,312.5,216.5,322.9,225.4,322.3z M42.1,206.1c-7.9-11.3-4.9-16.3-12.5-25.5c-1.4-7-13.1-23-6-6.1
	C30,184.4,31.9,199.7,42.1,206.1L42.1,206.1z M222.5,319.2C239.6,308.1,215.5,314.4,222.5,319.2z M235.5,324.3
	C244.1,316.9,230.1,322.7,235.5,324.3z M63.2,213.8C65.7,210.2,56.9,213.4,63.2,213.8z M232.8,320.8c8.3-5.3-1.9-4.5-1.5,0.5
	L232.8,320.8z M120.7,250.1C120.5,246.5,116.4,250.4,120.7,250.1z M127.7,254.1C125.5,249.7,124.3,254.8,127.7,254.1z M246.1,324.4
	c10.6-7.6-6.4-1.5-2.2,1.5L246.1,324.4z M242,322.4C250.6,315.2,232.9,325.6,242,322.4z M262.7,336.2
	C268.5,332.3,255.7,334.9,262.7,336.2z M68.5,211.2c7.8,1.7,31,19.1,17.3,1.2c-7-2.1-2.8-19.2-10-16.2c4.8,8,4,11.4-6.1,6.4
	c-12.7-6.2-7.1,3.1-4.6,5.6C61.7,209,69.5,211.2,68.5,211.2L68.5,211.2z M33.2,183.3c1.4-5.7-12.8-31.6-6.7-13
	C28.7,174.3,28.5,181.7,33.2,183.3z M98.1,223.3C94.1,220,97.9,222.8,98.1,223.3z M107.9,225.6C107.9,219.5,97,223.1,107.9,225.6z
	 M193.1,279.3C191.5,275.2,186.7,279.2,193.1,279.3z M197.2,282.3C196.6,280,194.9,282.8,197.2,282.3z M231,303.6
	C234.3,301.2,227,303.3,231,303.6z M50.8,187.8C60.1,184.2,40.9,185.3,50.8,187.8z M185.6,272.7
	C185.5,266.7,179.7,274.2,185.6,272.7z M47.2,179.3C53.1,177.2,41.6,177.9,47.2,179.3z M64.5,187.7
	C64.4,185.7,62.7,188.4,64.5,187.7z M275.9,317.3c7.7-1.6,25.2,3.9,28-2c-9.3-0.2-32.2-6.6-33.3,1.5l2,0.3L275.9,317.3L275.9,317.3z
	 M70,189C70.1,182.9,65.3,188.8,70,189z M24.5,157.4C22.4,145.8,16.6,155.7,24.5,157.4z M35.3,160.2
	C35.5,156.4,25.4,156.8,35.3,160.2z M41.5,163.2C39.7,161.8,40.1,165,41.5,163.2z M80.6,188.3C82.4,186.6,76.2,187,80.6,188.3z
	 M37.4,156.3C36.3,147.6,24.8,155,37.4,156.3z M15.1,141.9C14.8,137.8,12.9,143.4,15.1,141.9z M18.4,139.4
	C17.9,134.6,15.6,140,18.4,139.4z M36.7,150.3c7.7-3-14.1-6.3-1.6-0.6L36.7,150.3z M281.7,301.6
	C286.7,297.1,275.4,300.2,281.7,301.6z M311.3,317C313.3,311.1,306.3,317.8,311.3,317z M38.6,140.7C39.4,135,32.5,141.8,38.6,140.7z
	 M12.6,123.3c-1.4-8-1.2-22.1,12.2-17.3c-17.9,3.5,12.4,22.2,8.6,7.5c7.5,0.4,14.7-4.4,10.7,2.9c14.8-1.6,25.1-14.5,39.4-12.7
	c11.1-1.5,23.3-2.6,35.3-7.1c9.9-0.7,19.4-11.3,14-17.6c-13.5-1.1-27.5,0.5-42.4,3.5c-16.5,3.4-31.4,9.9-48.1,12.7
	c-16.2,2.2,3.3,6-1.4,6.8c-8.5,2.9,10.1,4.9-1.1,8c-6.9-1.3-14.1-3.7-11.1-11c-15.5,2-29.2,8.5-16.9,24.3L12.6,123.3L12.6,123.3z
	 M50,104.2c3.6-13.4,19.5,11,6,1.8C54.3,104.8,51.7,103.8,50,104.2z M50.7,97.7C55.9,93.8,53.5,99.9,50.7,97.7z M57.3,97.8
	c0.5-6.2,15.3,3.3,2.4,2.2L57.3,97.8L57.3,97.8z M66.5,94.2C69.8,90.3,67.4,97.6,66.5,94.2z M68.8,92.6c5.6-6.7,31.4-4.3,12.5-0.7
	C76.2,88.1,72.3,94.2,68.8,92.6L68.8,92.6z M102.6,87.4C101.7,69.2,119.4,93.8,102.6,87.4z M112.2,87.3c3.5-9.2,13.6-3.7,1.6-1.8
	C114,86.5,113.4,90.2,112.2,87.3z M34.8,136C45.3,129.6,23.7,130.4,34.8,136z M42.6,138.2C46.2,134.3,34.6,136.6,42.6,138.2z
	 M19.8,122C25.7,117.4,12.7,120.2,19.8,122z M328.8,315.3C329,310,324.2,317.7,328.8,315.3z M297.4,293.9
	C298.3,287.7,293.4,294.4,297.4,293.9z M337.4,317.4c8.4,0,25.3-2.6,7.1-2.6C341.7,315.2,328,315.1,337.4,317.4z M49.4,134.4
	c6.8-0.5,10.6-7.5-1.3-7.1c-18.4-1.9,16.3,6.3-2.4,4C43.2,132.9,49.2,134.8,49.4,134.4z M55.3,137.4
	C54.6,133.1,53.2,139.7,55.3,137.4z M62.4,118.6C65.3,114.9,58.3,117.6,62.4,118.6z M39.9,80.9c12.1-4.1,28.6-8.7,34.3,2
	c-5.8-7-2.3-13.9,3.1-3.6c7.8,10.3,11.6-4.7,6.6-8.2c5.7,7.1,12.3,10.5,3.8,0.5c9.2-11-18.3,1.4-24.6,1.3
	C60.2,74.3,32.1,80.1,39.9,80.9L39.9,80.9z M47,67.4c6.9-5.2,23.8,3.1,13-5.2C58.9,61.3,36.1,68.5,47,67.4z M72.1,68.4
	c8.1,0.2-3.5-10.8,6.1-5.8c-1.6-5.1-11.2-6.1-15.9-8.2C59.7,59.1,67.7,68.5,72.1,68.4z M51.4,45.6C54.2,41.8,46.5,47.5,51.4,45.6z
	 M61.6,48.1c13-1.7-3.3-5.6-2.6-0.1L61.6,48.1L61.6,48.1z M42.5,33.1c-9.2-11.9,17.2,2,7.9-10.5C42.6,16.4,35,29.6,42.5,33.1
	L42.5,33.1z M159.9,96.3c4.2-7.4-17.3-10-2.8-2.6C158.4,94.1,158.1,96.8,159.9,96.3L159.9,96.3z"/>
</svg>
