<?xml version="1.0" encoding="utf-8"?>
<!-- Generator: Adobe Illustrator 27.8.1, SVG Export Plug-In . SVG Version: 6.00 Build 0)  -->
<svg version="1.1" id="Layer_1" xmlns="http://www.w3.org/2000/svg" xmlns:xlink="http://www.w3.org/1999/xlink" x="0px" y="0px"
	 viewBox="0 0 360 360" style="enable-background:new 0 0 360 360;" xml:space="preserve">
<style type="text/css">
	.st0{fill-rule:evenodd;clip-rule:evenodd;fill:#1B1F23;}
</style>
<path class="st0" d="M180,0C80.5,0,0,80.5,0,180c0,79.6,51.5,146.9,123.1,170.8c9,1.6,12.4-3.8,12.4-8.5c0-4.3-0.2-18.5-0.2-33.5
	c-45.2,8.3-56.9-11-60.5-21.2c-2-5.2-10.8-21.1-18.4-25.4C50,258.8,41,250.4,56,250.2c14.2-0.2,24.3,13.1,27.7,18.4
	c16.2,27.2,42.1,19.6,52.4,14.9c1.6-11.7,6.3-19.6,11.5-24.1c-40.1-4.5-81.9-20-81.9-88.9c0-19.6,7-35.8,18.4-48.4
	c-1.8-4.5-8.1-22.9,1.8-47.7c0,0,15.1-4.7,49.5,18.5c14.4-4.1,29.7-6.1,45-6.1s30.6,2,45,6.1C259.9,69.5,275,74.5,275,74.5
	c9.9,24.8,3.6,43.2,1.8,47.7c11.5,12.6,18.5,28.6,18.5,48.4c0,69.1-42.1,84.4-82.1,88.9c6.5,5.6,12.1,16.4,12.1,33.3
	c0,24.1-0.2,43.4-0.2,49.5c0,4.7,3.4,10.4,12.4,8.5C308.5,326.9,360,259.4,360,180C360,80.5,279.5,0,180,0z"/>
</svg>
