<?xml version="1.0" encoding="utf-8"?>
<!-- Generator: Adobe Illustrator 27.8.1, SVG Export Plug-In . SVG Version: 6.00 Build 0)  -->
<svg version="1.1" id="Layer_1" xmlns="http://www.w3.org/2000/svg" xmlns:xlink="http://www.w3.org/1999/xlink" x="0px" y="0px"
	 viewBox="0 0 360 360" style="enable-background:new 0 0 360 360;" xml:space="preserve">
<style type="text/css">
	.st0{fill:#5382A1;}
	.st1{fill:#E76F00;}
</style>
<g>
	<path class="st0" d="M132.8,278.4c0,0-13.8,8,9.8,10.7c28.5,3.3,43.1,2.8,74.5-3.2c0,0,8.3,5.2,19.8,9.7
		C166.4,325.8,77.4,293.9,132.8,278.4 M124.1,239c0,0-15.4,11.4,8.1,13.9c30.5,3.1,54.5,3.4,96.2-4.6c0,0,5.8,5.8,14.8,9
		C158.1,282.2,63.2,259.2,124.1,239"/>
	<path class="st1" d="M196.7,172.1c17.4,20-4.6,38-4.6,38s44.1-22.8,23.8-51.3c-18.9-26.6-33.4-39.8,45.1-85.3
		C261.1,73.5,137.9,104.3,196.7,172.1"/>
	<path class="st0" d="M289.9,307.6c0,0,10.2,8.4-11.2,14.9c-40.7,12.3-169.3,16-205,0.5c-12.8-5.6,11.2-13.3,18.8-15
		c7.9-1.7,12.4-1.4,12.4-1.4c-14.3-10.1-92.3,19.8-39.6,28.3C209,358.2,327.2,324.4,289.9,307.6 M139.4,198.2
		c0,0-65.4,15.5-23.2,21.2c17.8,2.4,53.4,1.8,86.5-0.9c27.1-2.3,54.3-7.1,54.3-7.1s-9.5,4.1-16.5,8.8
		c-66.4,17.5-194.8,9.3-157.8-8.5C114,196.4,139.4,198.2,139.4,198.2 M256.7,263.8c67.5-35.1,36.3-68.8,14.5-64.3
		c-5.3,1.1-7.7,2.1-7.7,2.1s2-3.1,5.8-4.5c43.1-15.2,76.3,44.7-13.9,68.4C255.4,265.5,256.4,264.6,256.7,263.8"/>
	<path class="st1" d="M216,0c0,0,37.4,37.4-35.5,95c-58.4,46.2-13.3,72.5,0,102.5c-34.1-30.8-59.2-57.9-42.4-83.1
		C162.8,77.4,231.1,59.4,216,0"/>
	<path class="st0" d="M146,358.9c64.8,4.2,164.4-2.3,166.7-33c0,0-4.5,11.6-53.6,20.9c-55.3,10.4-123.6,9.2-164.1,2.5
		C95.1,349.3,103.4,356.1,146,358.9"/>
</g>
</svg>
