<?xml version="1.0" encoding="utf-8"?>
<!-- Generator: Adobe Illustrator 27.8.1, SVG Export Plug-In . SVG Version: 6.00 Build 0)  -->
<svg version="1.1" id="svg4525" xmlns="http://www.w3.org/2000/svg" xmlns:xlink="http://www.w3.org/1999/xlink" x="0px" y="0px"
	 viewBox="0 0 360 360" style="enable-background:new 0 0 360 360;" xml:space="preserve">
<style type="text/css">
	.st0{fill:#D4B830;}
	.st1{opacity:0.986;fill:#EBEBEB;fill-opacity:0;enable-background:new    ;}
	.st2{opacity:0.986;fill:#EBEBEB;fill-opacity:0.9216;enable-background:new    ;}
	.st3{fill:#FDD83C;}
</style>
<g id="g5193" transform="translate(4.988 -113.385)">
	<path id="path5113" class="st0" d="M46,437.1L16.6,113.4l316.8,0.1l-29.2,323.3l-129.5,36.6L46,437.1z M280.4,419.4L305,142.2
		H175.3l1,305.8L280.4,419.4z M163.2,182.8h-31.5l-0.4,165.9l-61.2-16.7l0.1,37.9l92.9,25.1V182.8L163.2,182.8z"/>
	<path id="path5159" class="st1" d="M152.8,392c-4.1-1.2-24.2-6.7-44.7-12.2l-37.2-10v-18.7c0-18.3,0-18.7,1.9-18
		c1,0.4,14.6,4.1,30.1,8.4l28.3,7.8l0.2-82.8l0.2-82.8h30.9v105.3c0,83.6-0.2,105.3-1.1,105.3C160.8,394.1,156.9,393.1,152.8,392
		L152.8,392z"/>
	<path id="path5157" class="st2" d="M70.2,370l-0.1-37.9c0,0,39,11,61.2,16.7l0.4-165.8h31.5v212.1L70.2,370L70.2,370z"/>
	<path id="path5117" class="st3" d="M175.3,142H305l-24.6,277.2l-105.1,28.5V142z M273.7,372.8l8.5-103.7l-63,7v-55.3l67.2-0.2
		l2.7-37.8l-101.4,0.5l1.4,137.6l61.3-10.5l-0.9,30.6l-61.8,16.4l0.6,37.6L273.7,372.8L273.7,372.8z"/>
</g>
</svg>
