<?xml version="1.0" encoding="utf-8"?>
<!-- Generator: Adobe Illustrator 27.8.1, SVG Export Plug-In . SVG Version: 6.00 Build 0)  -->
<svg version="1.1"
	 id="Layer_1" xmlns:inkscape="http://www.inkscape.org/namespaces/inkscape" xmlns:dc="http://purl.org/dc/elements/1.1/" xmlns:cc="http://creativecommons.org/ns#" xmlns:svg="http://www.w3.org/2000/svg" xmlns:rdf="http://www.w3.org/1999/02/22-rdf-syntax-ns#" xmlns:sodipodi="http://sodipodi.sourceforge.net/DTD/sodipodi-0.dtd" inkscape:version="0.48.4 r9939"
	 xmlns="http://www.w3.org/2000/svg" xmlns:xlink="http://www.w3.org/1999/xlink" x="0px" y="0px" viewBox="0 0 360 360"
	 style="enable-background:new 0 0 360 360;" xml:space="preserve">
<style type="text/css">
	.st0{fill:#FFFFFF;}
	.st1{fill:#484444;}
	.st2{fill:url(#path20_00000049209810151522513030000009911848714834377346_);}
	.st3{fill:url(#path29_00000137118553617064835270000014596261064434316712_);}
	.st4{fill:url(#path40_00000022525303455355321070000007605331246308146345_);}
	.st5{fill:url(#path49_00000150796165892995011000000006982126886180235137_);}
</style>
<sodipodi:namedview  bordercolor="#666666" borderopacity="1" fit-margin-bottom="0" fit-margin-left="0" fit-margin-right="0" fit-margin-top="0" gridtolerance="10" guidetolerance="10" id="namedview61" inkscape:current-layer="Layer_1" inkscape:cx="262.411" inkscape:cy="72.138333" inkscape:pageopacity="0" inkscape:pageshadow="2" inkscape:window-height="989" inkscape:window-maximized="0" inkscape:window-width="1422" inkscape:window-x="0" inkscape:window-y="0" inkscape:zoom="0.39645207" objecttolerance="10" pagecolor="#ffffff" showgrid="false">
	</sodipodi:namedview>
<g id="g5">
	<path id="path7" inkscape:connector-curvature="0" class="st0" d="M187.2,276.2c-0.5-3.1,0.4-6.2-0.5-9.1c-0.8-2.5-2.6-2.8-3.8-4.8
		c-3.2-5.4-6.4-12.4-6.7-19c-0.3-5.9-2.5-11.3-2.8-17.2c-0.1-2.8,0.2-5.8,0.1-8.6c-0.1-1.4-0.1-2.6-0.4-4c-0.1-0.4-0.3-1.9-0.4-2.5
		l0.7-1.8c-0.3-0.6,6.3-0.4,8.3-0.4c3.4,0,6.5,0.2,9.9,0.4c6.8,0.3,13.1,0.3,19.7-0.8c14.9-2.3,21.7-8.4,25.2-10.9
		c13.6-9.8,19.9-25.9,19.9-25.9c2.3-5,2.2-14,7.1-18c5.7-4.7,15.2-4.4,21.8-7.3c3.8-1.7,6.6-2.6,10.5-1.8c2.9,0.6,8.1,4,9.3-0.8
		c-1-0.6-1.3-1.8-1.9-2.4c5.4-0.5,0.1-13-2-15.5c-3.3-3.8-8.8-5.6-14.6-7.2c-6.9-1.8-13.2-4-19.7-2.7c-11.4,2.2-10.5-4.3-17.3-4.3
		c-8.1,0-22.4,0.4-24.9,8.2c-1.2,3.7-2.3,3.8-4.3,6.6c-1.7,2.4,0.3,4.5-0.6,7.3c-0.9,2.8-2.2,12.8-3.5,16.2
		c-2.3,5.9-5,13.2-10.1,13.2c-7.1,0.8-12.7,1.1-18.4-1c-3.5-1.3-9.3-3.2-12.1-4.4C162.2,152.1,160,146,160,146
		c-1.4-2.3-5.2-6.1-6.6-11.1c-1.5-5.4-4.1-10-5.2-12.8c-1.1-2.9-3.7-7.6-5.7-12.7c-2.6-6.5-6.3-11.4-9-13.8
		c-4.1-3.7-7.9-9.4-16.3-7.7c-1.5,0.3-6.9,0.5-11.1,4c-2.8,2.4-3.7,7.3-6.3,11.4c-1.5,2.4-4.2,9.2-6.6,14.9c-1.7,4-2.5,6.9-4.3,8.4
		c-1.4,1.1-3.2,2.6-5.3,1.8c-1.3-0.5-2.7-1.3-4.2-2.5c-1.9-1.5-6.3-9-9-14.5c-2.3-4.8-7.3-12-10.2-15.8c-4.2-5.6-6.6-7-12.8-7
		c-13.2,0-14.2,7.4-20,18.1c-2.5,4.7-3.5,12.2-8.6,18.1C15.8,128.2,6.5,142,0,144.3v-0.1l0,0.1v98.4l0,0.1v-0.6
		c0.4-1.3,0.9-2.5,1.4-3.6c2.5-5.3,8.3-10.3,11.6-15.8c1.8-3,3.8-5.9,4.9-9.1c1-2.7,1.5-6.7,2.9-9.1c1.8-2.9,4.6-3.9,7.4-4.3
		c4.5-0.7,8.3,6.4,14,9.1c2.4,1.1,13.7,5.1,17,5.9c5.5,1.3,11.7,2.4,17.3,3.6c3,0.6,5.9,1,9,1.3c2.8,0.3,13.2,0.6,13.9,1.4
		c-5.3,2.7-8.4,10.3-10.4,15.7c-2.1,5.6-3.5,11.8-6,17.3c-2.8,6.1-8.6,8.6-7.9,15.6c0.3,2.8,0.8,5.8,0.3,8.9c-0.5,3.3-1.8,5.8-2.8,9
		c-1.2,4.2-2.7,17.6-4.6,21.6l11.6-1.5l0,0c1.3-3,2.4-15.7,2.8-16.9c2.2-6.4,5-11.6,9.5-16.6c4.3-4.8,4.1-11,6.6-16.6
		c2.7-6.1,6.4-11,9.9-16.7c6.3-10.3,10.4-23.4,23.7-26.1c1.4-0.3,9.6,5.6,13.2,9.1c4.1,4,8.7,8.6,11.4,14.1
		c5.3,10.6,9.7,26.1,11.4,34.6c1,4.9,1.7,5.2,5,9c1.5,1.8,4.6,7.3,5.6,9.4c1,2.3,2.6,7.4,3.9,10.1c0.7,1.6,2.7,6.4,4.1,10.6
		l10.8-0.3c0,0.1,0.2,0,0.3,0.1c0,0,0,0,0,0c0-0.1-0.1-0.2-0.1-0.3C192.4,300.7,189,288.2,187.2,276.2L187.2,276.2z"/>
	<path id="path9" inkscape:connector-curvature="0" class="st1" d="M180.3,212.9l0.1-0.1C180.3,212.4,180.3,212.3,180.3,212.9z"/>
	<g id="g11">
		<g id="g13">
			
				<linearGradient id="path20_00000108309332638328387440000006275153725772857746_" gradientUnits="userSpaceOnUse" x1="338.8571" y1="-291.9942" x2="338.8571" y2="-292.3903" gradientTransform="matrix(1 0 0 -1 -158.534 -79.501)">
				<stop  offset="0" style="stop-color:#F29100"/>
				<stop  offset="1" style="stop-color:#EC670F"/>
			</linearGradient>
			
				<path id="path20" inkscape:connector-curvature="0" style="fill:url(#path20_00000108309332638328387440000006275153725772857746_);" d="
				M180.3,212.9l0.1-0.1C180.3,212.4,180.3,212.3,180.3,212.9z"/>
			<g id="g22">
				
					<linearGradient id="path29_00000166665452272110921110000007223931247760706697_" gradientUnits="userSpaceOnUse" x1="291.7802" y1="-294.7398" x2="291.7802" y2="-393.2384" gradientTransform="matrix(1 0 0 -1 -158.534 -79.501)">
					<stop  offset="0" style="stop-color:#F29100"/>
					<stop  offset="1" style="stop-color:#EC670F"/>
				</linearGradient>
				
					<path id="path29" inkscape:connector-curvature="0" style="fill:url(#path29_00000166665452272110921110000007223931247760706697_);" d="
					M182.7,301.6c-1.3-2.6-2.9-7.8-3.9-10.1c-1-2.1-4-7.7-5.6-9.4c-3.3-3.9-4.1-4.2-5-9c-1.7-8.5-6.2-23.9-11.4-34.6
					c-2.7-5.5-7.2-10.1-11.4-14.1c-3.6-3.5-11.8-9.4-13.2-9.1c-13.3,2.7-17.5,15.7-23.7,26.1c-3.5,5.7-7.1,10.6-9.9,16.7
					c-2.5,5.6-2.3,11.8-6.6,16.6c-4.4,4.9-7.3,10.2-9.5,16.6c-0.4,1.2-1.6,13.9-2.8,16.9c0,0,0,0,0,0l19.8-1.4
					c18.4,1.3,13.1,8.3,41.9,6.8l45.5-1.4l0,0C185.4,307.9,183.5,303.1,182.7,301.6L182.7,301.6z"/>
			</g>
			<g id="g31">
				<g id="g33">
					
						<linearGradient id="path40_00000167372053034102622070000006302109977855787162_" gradientUnits="userSpaceOnUse" x1="338.5449" y1="-79.501" x2="338.5449" y2="-393.1676" gradientTransform="matrix(1 0 0 -1 -158.534 -79.501)">
						<stop  offset="0" style="stop-color:#F29100"/>
						<stop  offset="1" style="stop-color:#EC670F"/>
					</linearGradient>
					
						<path id="path40" inkscape:connector-curvature="0" style="fill:url(#path40_00000167372053034102622070000006302109977855787162_);" d="
						M314.6,0H45.4C20.3,0,0,20.3,0,45.4v98.9v0.1c6.5-2.3,15.8-16.2,18.7-19.5c5.1-5.9,6-13.4,8.6-18.1c5.8-10.7,6.8-18.1,20-18.1
						c6.1,0,8.6,1.4,12.8,7c2.9,3.9,7.9,11.1,10.2,15.8c2.7,5.5,7.1,13,9,14.5c1.4,1.1,2.9,2,4.2,2.5c2.1,0.8,3.9-0.7,5.3-1.8
						c1.8-1.5,2.6-4.4,4.3-8.4c2.4-5.7,5.1-12.5,6.6-14.9c2.6-4.1,3.5-9,6.3-11.4c4.2-3.5,9.6-3.7,11.1-4c8.4-1.7,12.2,4,16.3,7.7
						c2.7,2.4,6.4,7.3,9,13.8c2,5.1,4.7,9.8,5.7,12.7c1.1,2.8,3.7,7.4,5.2,12.8c1.4,4.9,5.1,8.7,6.6,11.1c0,0,2.2,6.1,15.4,11.7
						c2.9,1.2,8.7,3.2,12.1,4.4c5.8,2.1,11.3,1.8,18.4,1c5.1,0,7.8-7.3,10.1-13.2c1.4-3.5,2.7-13.4,3.5-16.2
						c0.9-2.7-1.2-4.9,0.6-7.3c2-2.8,3.2-3,4.3-6.6c2.5-7.8,16.8-8.2,24.9-8.2c6.7,0,5.9,6.5,17.3,4.3c6.5-1.3,12.8,0.8,19.7,2.7
						c5.8,1.5,11.3,3.3,14.6,7.2c2.1,2.5,7.4,15,2,15.5c0.5,0.6,0.9,1.8,1.9,2.4c-1.2,4.7-6.4,1.4-9.3,0.8
						c-3.9-0.8-6.7,0.1-10.5,1.8c-6.5,2.9-16.1,2.6-21.8,7.3c-4.8,4-4.8,13-7.1,18c0,0-6.2,16.1-19.9,25.9
						c-3.5,2.5-10.3,8.6-25.2,10.9c-6.7,1-12.9,1.1-19.7,0.8c-3.4-0.2-6.5-0.3-9.9-0.4c-2,0-8.6-0.2-8.3,0.4l-0.7,1.8
						c0.1,0.6,0.4,2.1,0.4,2.5c0.3,1.5,0.3,2.7,0.4,4c0.1,2.8-0.2,5.8-0.1,8.6c0.3,5.9,2.5,11.3,2.8,17.2c0.3,6.6,3.6,13.6,6.7,19
						c1.2,2.1,3,2.3,3.8,4.8c0.9,2.9,0.1,6,0.5,9.1c1.8,12,5.2,24.6,10.6,35.4c0,0.1,0.1,0.2,0.1,0.3c0,0,0,0,0,0
						c6.7-1.1,13.4-3.5,22-4.8c15.9-2.4,38-1.1,52.2-2.5c36-3.4,55.5,14.7,87.8,7.3V45.4C360,20.3,339.7,0,314.6,0L314.6,0z
						 M180.3,212.9c-0.1-0.5,0-0.5,0.1-0.1L180.3,212.9z"/>
				</g>
			</g>
			<g id="g42">
				
					<linearGradient id="path49_00000153693187890720529080000000219601459408968348_" gradientUnits="userSpaceOnUse" x1="208.2679" y1="-279.8083" x2="208.2679" y2="-391.002" gradientTransform="matrix(1 0 0 -1 -158.534 -79.501)">
					<stop  offset="0" style="stop-color:#F29100"/>
					<stop  offset="1" style="stop-color:#EC670F"/>
				</linearGradient>
				
					<path id="path49" inkscape:connector-curvature="0" style="fill:url(#path49_00000153693187890720529080000000219601459408968348_);" d="
					M83,254.5c2.5-5.5,4-11.7,6-17.3c2-5.4,5.1-13,10.4-15.7c-0.6-0.8-11.1-1.1-13.9-1.4c-3.1-0.3-6-0.7-9-1.3
					c-5.6-1.1-11.8-2.2-17.3-3.6c-3.4-0.8-14.6-4.8-17-5.9c-5.7-2.6-9.5-9.8-14-9.1c-2.9,0.5-5.6,1.4-7.4,4.3
					c-1.4,2.3-1.9,6.4-2.9,9.1c-1.2,3.1-3.2,6.1-4.9,9.1c-3.2,5.5-9.1,10.5-11.6,15.8c-0.5,1.1-1,2.3-1.4,3.6v0.6v19.9v35.5v5.1
					c2.9,0.5,6,1.1,9.4,2c25.3,6.7,31.5,7.3,56.3,4.5l2.3-0.3v0c1.9-4,3.4-17.4,4.6-21.6c1-3.2,2.3-5.7,2.8-9c0.5-3.1,0-6-0.3-8.9
					C74.4,263.1,80.2,260.6,83,254.5L83,254.5z"/>
			</g>
		</g>
	</g>
</g>
</svg>
