<?xml version="1.0" encoding="utf-8"?>
<!-- Generator: Adobe Illustrator 27.8.1, SVG Export Plug-In . SVG Version: 6.00 Build 0)  -->
<svg version="1.1" id="Layer_1" xmlns="http://www.w3.org/2000/svg" xmlns:xlink="http://www.w3.org/1999/xlink" x="0px" y="0px"
	 viewBox="0 0 360 360" style="enable-background:new 0 0 360 360;" xml:space="preserve">
<style type="text/css">
	.st0{fill:url(#SVGID_1_);}
	.st1{fill:url(#SVGID_00000132808727250704800600000015150180427103236791_);}
</style>
<g>
	
		<linearGradient id="SVGID_1_" gradientUnits="userSpaceOnUse" x1="39.5015" y1="-0.5545" x2="53.7421" y2="13.7339" gradientTransform="matrix(12.5 0 0 12.5 -460 40)">
		<stop  offset="0" style="stop-color:#387EB8"/>
		<stop  offset="1" style="stop-color:#366994"/>
	</linearGradient>
	<path class="st0" d="M178.7,0.9c-91.3,0-85.7,39.6-85.7,39.6l0.1,41h87.2v12.3H58.5c0,0-58.5-6.7-58.5,85.6c0,92.2,51,88.9,51,88.9
		h30.4v-42.8c0,0-1.6-51,50.2-51h86.5c0,0,48.6,0.8,48.6-47V48.7C266.9,48.7,274.2,0.9,178.7,0.9z M130.6,28.6
		c8.6,0,15.7,7,15.7,15.7s-7,15.7-15.7,15.7c-8.6,0-15.7-7-15.7-15.7c0,0,0,0,0-0.1C114.9,35.6,121.9,28.6,130.6,28.6z"/>
	
		<linearGradient id="SVGID_00000034786580627020743700000011654441743847500944_" gradientUnits="userSpaceOnUse" x1="48.2571" y1="8.5438" x2="63.5517" y2="23.1966" gradientTransform="matrix(12.5 0 0 12.5 -460 40)">
		<stop  offset="0" style="stop-color:#FFE052"/>
		<stop  offset="1" style="stop-color:#FFC331"/>
	</linearGradient>
	<path style="fill:url(#SVGID_00000034786580627020743700000011654441743847500944_);" d="M181.3,359.1c91.4,0,85.7-39.6,85.7-39.6
		l-0.1-41h-87.2v-12.3h121.9c0,0,58.5,6.7,58.5-85.6s-51-88.9-51-88.9h-30.5v42.8c0,0,1.6,51-50.2,51h-86.5c0,0-48.6-0.8-48.6,47
		v78.9C93.2,311.3,85.8,359.1,181.3,359.1z M229.4,331.4c-8.6,0-15.7-7-15.7-15.7c0,0,0,0,0-0.1c0-8.6,7-15.7,15.7-15.7
		c8.6,0,15.7,7,15.7,15.7C245.1,324.5,238.1,331.4,229.4,331.4z"/>
</g>
</svg>
