<?xml version="1.0" encoding="utf-8"?>
<!-- Generator: Adobe Illustrator 27.8.1, SVG Export Plug-In . SVG Version: 6.00 Build 0)  -->
<svg version="1.1" id="Layer_1" xmlns="http://www.w3.org/2000/svg" xmlns:xlink="http://www.w3.org/1999/xlink" x="0px" y="0px"
	 viewBox="0 0 360 360" style="enable-background:new 0 0 360 360;" xml:space="preserve">
<style type="text/css">
	.st0{fill:url(#SVGID_1_);}
	.st1{fill:url(#SVGID_00000132809055687037449670000011055416662597297854_);}
	.st2{fill:#FFFFFF;}
</style>
<g>
	
		<linearGradient id="SVGID_1_" gradientUnits="userSpaceOnUse" x1="-535.5746" y1="72.6206" x2="-528.6142" y2="112.0945" gradientTransform="matrix(-9.7656 0 0 9.7656 -5016.0347 -721.9528)">
		<stop  offset="0" style="stop-color:#FAAE42"/>
		<stop  offset="1" style="stop-color:#EF3E31"/>
	</linearGradient>
	<path class="st0" d="M80,0.1h199.3c9.7,0,19.1,1.5,28.3,4.8c13.2,4.8,25.2,13.2,34.2,24.2c9.1,11,15.2,24.5,17.3,38.5
		c0.8,5.2,1,10.4,1,15.6v194.4c0,6.2-0.3,12.5-1.5,18.6c-2.8,13.9-9.4,27-19,37.5c-9.4,10.5-21.8,18.4-35.1,22.6
		c-8.2,2.5-16.6,3.7-25.2,3.7c-3.8,0-199.8,0-202.7-0.1c-14.3-0.7-28.5-5.3-40.5-13.4c-11.7-7.9-21.2-18.8-27.4-31.5
		c-5.3-10.8-8-22.9-8-35V80.1C0.3,68.1,2.8,56.3,8,45.6C14.1,33,23.5,21.9,35.1,14c11.9-8.2,26-12.9,40.3-13.6
		C76.9,0.1,78.4,0.1,80,0.1z"/>
	
		<linearGradient id="SVGID_00000068638922828603265170000004440084684436300697_" gradientUnits="userSpaceOnUse" x1="979.2348" y1="1538.9637" x2="974.1375" y2="1510.0555" gradientTransform="matrix(9.7656 0 0 -9.7656 -9379.2188 15034.8438)">
		<stop  offset="0" style="stop-color:#E39F3A"/>
		<stop  offset="1" style="stop-color:#D33929"/>
	</linearGradient>
	<path style="fill:url(#SVGID_00000068638922828603265170000004440084684436300697_);" d="M303.6,294.4c-1.3-2-2.7-3.9-4.2-5.8
		c-3.5-4.2-7.6-7.9-12.1-11c-5.6-3.8-12.2-6.2-19-6.5c-4.8-0.3-9.6,0.6-14.1,2.2c-4.5,1.5-8.9,3.8-13.1,6c-4.9,2.5-9.8,5.1-15,7.2
		c-6.2,2.5-12.7,4.5-19.3,5.9c-8.3,1.5-16.7,2.1-25,2c-15-0.3-30.1-2.5-44.4-6.7c-12.7-3.8-24.7-9-36.1-15.6
		c-10-5.8-19.3-12.4-28-19.8c-7.2-6.2-13.8-12.8-20-19.8c-4.2-4.9-8.3-10.1-12.1-15.5c-1.5-2.1-3-4.4-4.2-6.6L0,170.4V79.8
		c0-44,35.6-79.7,79.6-79.7h71l52.6,53.4c118.6,80.7,80.3,169.7,80.3,169.7S317.1,261.1,303.6,294.4z"/>
	<path class="st2" d="M203.4,53.5c118.6,80.7,80.3,169.7,80.3,169.7s33.7,38.1,20.1,71.4c0,0-13.9-23.3-37.3-23.3
		c-22.5,0-35.7,23.3-81,23.3c-100.8,0-148.4-84.2-148.4-84.2c90.8,59.7,152.8,17.4,152.8,17.4C149,204,62,90.5,62,90.5
		C137.8,155,170.5,172,170.5,172C151,155.8,96.1,76.8,96.1,76.8c43.9,44.4,131,106.4,131,106.4C251.9,114.6,203.4,53.5,203.4,53.5z"
		/>
</g>
</svg>
