<?xml version="1.0" encoding="utf-8"?>
<!-- Generator: Adobe Illustrator 27.8.1, SVG Export Plug-In . SVG Version: 6.00 Build 0)  -->
<svg version="1.1" id="Capa_1" xmlns="http://www.w3.org/2000/svg" xmlns:xlink="http://www.w3.org/1999/xlink" x="0px" y="0px"
	 viewBox="0 0 360 360" style="enable-background:new 0 0 360 360;" xml:space="preserve">
<style type="text/css">
	.st0{fill:#DD4814;}
	.st1{fill:#FFFFFF;}
</style>
<circle class="st0" cx="180" cy="180" r="180"/>
<g id="ubuntu">
	<g>
		<g>
			<path class="st1" d="M119.7,180.2c0-19.5,9.1-36.8,23.3-48l-21.7-34.8c-18.2,13.1-31.9,32-38.4,54c10.1,6.5,16.8,17.9,16.8,30.8
				c0,12.5-6.2,23.5-15.7,30.1c6.9,20.9,20.5,38.7,38.2,51.1l20.2-35.9C128.6,216.4,119.7,199.3,119.7,180.2z"/>
		</g>
	</g>
	<g>
		<path class="st1" d="M89.5,182.3c0,14.5-11.8,26.3-26.4,26.3c-14.6,0-26.4-11.8-26.4-26.3c0-14.5,11.8-26.3,26.4-26.3
			C77.7,156,89.5,167.8,89.5,182.3z"/>
	</g>
	<g>
		<g>
			<path class="st1" d="M237.5,246c6.1,0,11.9,1.5,17,4.2c15.8-16.6,26-38.6,27.7-62.9l-40.9-0.8c-3.2,30.7-29.1,54.6-60.6,54.6
				c-8.7,0-17.1-1.8-24.6-5.2l-20.3,35.6c13.6,6.7,28.8,10.4,44.9,10.4c7,0,13.8-0.7,20.4-2C202.4,261,218.2,246,237.5,246z"/>
		</g>
	</g>
	<g>
		<path class="st1" d="M263.9,282.7c0,14.5-11.8,26.3-26.3,26.3c-14.6,0-26.3-11.8-26.3-26.3c0-14.6,11.8-26.3,26.3-26.3
			C252.1,256.3,263.9,268.1,263.9,282.7z"/>
	</g>
	<g>
		<g>
			<path class="st1" d="M257.3,113.3c-6,4.2-13.3,6.7-21.1,6.7c-20.2,0-36.6-16.4-36.6-36.6c0-1.1,0-2.1,0.1-3.2
				c-6.2-1.2-12.5-1.8-19-1.8c-16.3,0-31.7,3.8-45.3,10.6l20.2,35.6c7.7-3.4,16.1-5.4,25.1-5.4c31.2,0,57,23.5,60.5,53.8l40.9-1.2
				C280.3,149.5,271.2,129.2,257.3,113.3z"/>
		</g>
	</g>
	<g>
		<path class="st1" d="M262.5,83.4c0,14.6-11.8,26.3-26.3,26.3c-14.6,0-26.3-11.8-26.3-26.3c0-14.6,11.8-26.4,26.3-26.4
			C250.7,57,262.5,68.8,262.5,83.4z"/>
	</g>
</g>
</svg>
